<?xml version="1.0" standalone="no"?>
<!DOCTYPE svg PUBLIC "-//W3C//DTD SVG 1.1//EN" "http://www.w3.org/Graphics/SVG/1.1/DTD/svg11.dtd" >
<svg>
<metadata>
Created by FontForge 20090914 at Wed Nov  8 12:02:09 2017
 By www-data
Copyright (c) 2011 by vernon adams. All rights reserved.
</metadata>
<defs>
<font id="Oswald-Bold" horiz-adv-x="1248" >
  <font-face 
    font-family="Oswald"
    font-weight="700"
    font-stretch="normal"
    units-per-em="2048"
    panose-1="2 0 5 6 0 0 0 2 0 4"
    ascent="1638"
    descent="-410"
    x-height="1305"
    cap-height="1800"
    bbox="-187 -704.002 2075 2415"
    underline-thickness="102"
    underline-position="-205"
    unicode-range="U+000D-U+FB04"
  />
<missing-glyph horiz-adv-x="748" 
d="M136 68h408v1229h-408v-1229zM68 0v1365h544v-1365h-544z" />
    <glyph glyph-name="uniFB00" unicode="ff" horiz-adv-x="1279" 
d="M760 1305l0.999023 29c4.66699 152 32.334 258.333 83.001 319c46 54.667 115 82 207 82c61.333 0 121.333 -3.66699 180 -11l32 -3v-252c-46 4 -79 6 -99 6c-44 0 -66.333 -36.333 -67 -109v-61h163v-225h-163v-1080h-337v1080h-282v-1080h-337v1080h-76v225h76l1 29
c5.33301 152 33.333 258.333 84 319c46 54.667 114.667 82 206 82c61.333 0 121.333 -3.66699 180 -11l32 -3v-252c-46.667 4 -80 6 -100 6c-44 0 -66 -36.333 -66 -109v-61h282z" />
    <glyph glyph-name="uniFB01" unicode="fi" horiz-adv-x="1198" 
d="M141 1305l1 29c5.33301 152 33.333 258.333 84 319c46 54.667 114.667 82 206 82c61.333 0 121.333 -3.66699 180 -11l32 -3v-252c-46.667 4 -80 6 -100 6c-44 0 -66 -36.333 -66 -109v-61h624v-1305h-337v1080h-287v-1080h-337v1080h-76v225h76zM765 1419v315h337v-315
h-337z" />
    <glyph glyph-name="uniFB02" unicode="fl" horiz-adv-x="1189" 
d="M141 1305l1 29.001c4.66699 151.333 36.667 257.666 96 318.999c53.333 54.667 131.333 82 234 82c70.667 0 175.5 -3.66699 314.5 -11s241.167 -12.333 306.5 -15v-1709h-337v1470c-96.667 3.33301 -161.167 5 -193.5 5s-54.5 -7.83301 -66.5 -23.5
s-18 -44.167 -18 -85.5v-61h163v-225h-163v-1080h-337v1080h-76v225h76z" />
    <glyph glyph-name="uniFB03" unicode="ffi" horiz-adv-x="1840" 
d="M760 1305l0.999023 29c4.66699 152 32.334 258.333 83.001 319c46 54.667 115 82 207 82c61.333 0 121.333 -3.66699 180 -11l32 -3v-252c-46 4 -79 6 -99 6c-44 0 -66.333 -36.333 -67 -109v-61h647v-1305h-337v1080h-310v-1080h-337v1080h-282v-1080h-337v1080h-76v225
h76l1 29c5.33301 152 33.333 258.333 84 319c46 54.667 114.667 82 206 82c61.333 0 121.333 -3.66699 180 -11l32 -3v-252c-46.667 4 -80 6 -100 6c-44 0 -66 -36.333 -66 -109v-61h282zM1407 1419v315h337v-315h-337z" />
    <glyph glyph-name="uniFB04" unicode="ffl" horiz-adv-x="1849" 
d="M801 1305l1 29c4.66699 150.667 38.667 257 102 319c56 54.667 136.667 82 242 82s307.666 -12.333 606.999 -37v-1698h-337v1471l-140 4c-49.333 0 -84.666 -7.83301 -105.999 -23.5s-32 -44.167 -32 -85.5v-61h163v-225h-163v-1080h-337v1080h-323v-1080h-337v1080h-76
v225h76l1 29c5.33301 152 33.333 258.333 84 319c46 54.667 114.667 82 206 82c61.333 0 121.333 -3.66699 180 -11l32 -3v-252c-46.667 4 -80 6 -100 6c-44 0 -66 -36.333 -66 -109v-61h323z" />
    <glyph glyph-name=".notdef" horiz-adv-x="748" 
d="M136 68h408v1229h-408v-1229zM68 0v1365h544v-1365h-544z" />
    <glyph glyph-name="CR" unicode="&#xd;" horiz-adv-x="0" 
 />
    <glyph glyph-name="space" unicode=" " horiz-adv-x="278" 
 />
    <glyph glyph-name="exclam" unicode="!" horiz-adv-x="524" 
d="M199 462l-104 1338h343l-123 -1338h-116zM95 0v317h323v-317h-323z" />
    <glyph glyph-name="quotedbl" unicode="&#x22;" horiz-adv-x="758" 
d="M130 1202l-90 599h294l-1 -599h-203zM434 1202l-1 599h285l-102 -599h-182z" />
    <glyph glyph-name="numbersign" unicode="#" horiz-adv-x="1150" 
d="M153 0l88 616h-142v255h178l16 114h-194v255h231l80 561h209l-81 -561h142l80 561h209l-81 -561h136v-255h-173l-16 -114h189v-255h-226l-89 -616h-206l88 616h-143l-89 -616h-206zM485 871h142l16 114h-142z" />
    <glyph glyph-name="dollar" unicode="$" horiz-adv-x="1145" 
d="M529 -100v171.003c-217.333 19.333 -354.333 123.666 -411 312.999c-16.667 56 -25 117.333 -25 184l364 69v-49c-0.666992 -82.667 10.333 -143.334 33 -182.001c22 -38 57 -57 105 -57c68.667 0 103 41 103 123c0 36 -6.33301 64.167 -19 84.5
s-22.334 35.333 -29.001 45s-18.667 22.167 -36 37.5l-36.5 32.5c-7 6.33301 -22 18.333 -45 36l-43.5 33.5l-112 89c-116 92 -191 169 -225 231c-38.667 70.667 -58 146 -58 226c0 129.333 39.333 233.166 118 311.499s184.334 123.5 317.001 135.5v197h96v-194
c122 -6 224.167 -48.167 306.5 -126.5s123.5 -174.833 123.5 -289.5v-46l-373 -50c2 36 3 60.667 3 74c0 108 -37.333 162 -112 162c-40.667 0 -71 -13 -91 -39s-30 -59.667 -30 -101s12.833 -79.166 38.5 -113.499s63.5 -70.5 113.5 -108.5l123 -93
c143.333 -107.333 234.333 -199 273 -275c37.333 -74 56.166 -163.333 56.499 -268s-41.167 -194.834 -124.5 -270.501s-185.666 -116.5 -306.999 -122.5v-170h-96z" />
    <glyph glyph-name="percent" unicode="%" horiz-adv-x="2041" 
d="M94 1295l-0.000976562 6c0 248.667 68 403.667 204 465c50.667 22.667 111 34 181 34s130.333 -11.333 181 -34c50.667 -23.333 90.667 -57.333 120 -102c56.667 -84.667 85.334 -205 86.001 -361v-8c0 -340.667 -128.667 -511 -386 -511s-386 170.333 -386 511z
M359.999 1306v-10.9971c0 -124.667 10 -207 30 -247c28 -32 54.333 -50.667 79 -56c32.667 0 57 7.33301 73 22c16 14 28 36.333 36 67c12 49.333 18.333 120.666 19 213.999v9c0 104.667 -4.16699 169.167 -12.5 193.5s-16.833 43.166 -25.5 56.499
c-16 24.667 -38.667 37 -68 37s-51.5 -4.66699 -66.5 -14s-26.5 -21.333 -34.5 -36c-9.33301 -14.667 -16 -35.334 -20 -62.001c-6.66699 -43.333 -10 -101 -10 -173zM1170 511.003v9c2 246.667 70 400.667 204 462c50 22.667 110.167 34 180.5 34
s130.833 -11.333 181.5 -34c50.667 -24 90.667 -58 120 -102c56 -84 84.667 -204 86 -360v-9c0 -340.667 -128.667 -511 -386 -511s-386 170.333 -386 511zM1436 517.003l-0.000976562 -5.99902c0 -124.667 10 -207 30 -247c28 -32 54.333 -50.667 79 -56
c32.667 0 57 7.33301 73 22c16 14 28 36.333 36 67c12 49.333 18.333 120.666 19 213.999v5c0 109.333 -4.16699 175.5 -12.5 198.5s-16.666 41.167 -24.999 54.5s-19.333 23 -33 29s-29.5 9 -47.5 9s-33.667 -3 -47 -9s-24.333 -15.5 -33 -28.5s-15.667 -26.833 -21 -41.5
c-5.33301 -16 -9.33301 -36 -12 -60c-4 -36 -6 -86.333 -6 -151zM633.998 0.00390625l577 1835h180l-578 -1835h-179z" />
    <glyph glyph-name="ampersand" unicode="&#x26;" horiz-adv-x="1194" 
d="M969 342c42 -47.333 95.334 -73.9971 160.001 -79.9971v-285c-20 -4 -40 -6 -60 -6c-78 0 -169.333 50 -274 150c-89.333 -100.667 -198.5 -151 -327.5 -151s-228.167 39.5 -297.5 118.5s-104 179.167 -104 300.5c0 175.333 76 347.666 228 516.999
c-106.667 236.667 -160 412.5 -160 527.5s32.5 210.5 97.5 286.5s155.333 114 271 114s210 -34.667 283 -104s109.5 -160.333 109.5 -273s-24.5 -214.834 -73.5 -306.501s-117.833 -183.167 -206.5 -274.5l187 -312c27.333 71.333 41 174.666 41 309.999h276
c0 -122 -11.333 -221.167 -34 -297.5s-61.334 -154.5 -116.001 -234.5zM507.001 1105c32.667 47.333 59.667 100.999 81 160.999c20.667 58.667 31 111.334 31 158.001c0 105.333 -32.333 158.333 -97 159c-57.333 0 -86 -50.833 -86 -152.5s23.667 -210.167 71 -325.5z
M606.001 313.002c-83.333 134.667 -144 239.669 -182 315.002c-12.667 -12.667 -23.5 -39.834 -32.5 -81.501s-13.5 -87.834 -13.5 -138.501s7 -94.5 21 -131.5s35.667 -55.5 65 -55.5c46.667 0 94 30.667 142 92z" />
    <glyph glyph-name="quotesingle" unicode="'" horiz-adv-x="356" 
d="M101 1201l-70 598h304l-71 -598h-163z" />
    <glyph glyph-name="parenleft" unicode="(" horiz-adv-x="696" 
d="M637 158l-0.000976562 -222.005h-5c-65.333 0 -123.333 12 -174 36c-52 24 -94.5 53 -127.5 87s-61.333 81.167 -85 141.5s-41.167 114 -52.5 161s-20 108.833 -26 185.5c-7.33301 94 -11 176 -11 246v158c0 250 12.333 426.667 37 530c34 142 79.667 243 137 303
c33.333 34.667 76.166 63.834 128.499 87.501s111.833 35.5 178.5 35.5v-222h-4c-50 0.666992 -89 -25.666 -117 -78.999c-29.333 -55.333 -47.666 -111.333 -54.999 -168s-12.666 -103.167 -15.999 -139.5s-5 -75.5 -5 -117.5v-59v-48c0 -29.333 0.5 -59.666 1.5 -90.999
s1.5 -52 1.5 -62s-0.5 -30.667 -1.5 -62s-1.5 -61.666 -1.5 -90.999v-48v-58c0 -42 1.66699 -81.167 5 -117.5s7.5 -74.5 12.5 -114.5s12.5 -75.667 22.5 -107c10.667 -31.333 22.667 -59.666 36 -84.999c28 -53.333 67 -80 117 -80h4z" />
    <glyph glyph-name="parenright" unicode=")" horiz-adv-x="696" 
d="M304 921l3.00391 152.998c-0.666992 216 -14.334 364.667 -41.001 446c-24.667 74 -53.334 122.333 -86.001 145c-20 13.333 -42 20 -66 20h-4v222c66.667 0 126.167 -12.167 178.5 -36.5s95.166 -53.666 128.499 -87.999s61.833 -81.833 85.5 -142.5
s41.167 -114.667 52.5 -162c11.333 -46.667 20 -108.667 26 -186c7.33301 -94 11 -178 11 -252v-145c0 -250 -12.333 -427 -37 -531c-34 -142.667 -80 -244 -138 -304c-34 -34.667 -77 -64 -129 -88c-50.667 -24 -108.334 -36 -173.001 -36h-5v222h4
c50.667 0 89.667 26.667 117 80c30 58 48.333 114.667 55 170c8 54.667 13.333 100.334 16 137.001c4 44.667 5.66699 119 5 223z" />
    <glyph glyph-name="asterisk" unicode="*" horiz-adv-x="913" 
d="M158 974l162 231l-244 94l74 197l223 -118l-27 264h250l-25 -265l223 120l74 -199l-246 -94l165 -230l-198 -116l-118 235l-117 -235z" />
    <glyph glyph-name="plus" unicode="+" horiz-adv-x="762" 
d="M70 583v223h195v194h222v-194h195v-223h-195v-194h-222v194h-195z" />
    <glyph glyph-name="comma" unicode="," horiz-adv-x="469" 
d="M153 -244l-40 166.002h15h36c6 1.33301 12 4.66602 18 9.99902c8 7.33301 12 29.666 12 66.999h-110v318h323c0 -164.667 -0.333008 -254 -1 -268c-5.33301 -120.667 -27.333 -203 -66 -247c-30 -34 -74.333 -50.667 -133 -50c-16.667 0 -34.667 1.33301 -54 4z" />
    <glyph glyph-name="hyphen" unicode="-" horiz-adv-x="429" 
d="M4 453v223h417v-223h-417z" />
    <glyph glyph-name="period" unicode="." horiz-adv-x="522" 
d="M99 0v317h325v-317h-325z" />
    <glyph glyph-name="slash" unicode="/" horiz-adv-x="895" 
d="M91 0l577 1835h180l-578 -1835h-179z" />
    <glyph glyph-name="zero" unicode="0" horiz-adv-x="1137" 
d="M84 528l0.000976562 740.998c0 162 38 295 114 399c80.667 110.667 204.334 166 371.001 166c166 0 289.333 -55.333 370 -166c76 -104.667 114 -237.667 114 -399v-741c-0.666992 -157.333 -40.334 -288.666 -119.001 -393.999
c-38.667 -52 -89.334 -93.167 -152.001 -123.5s-134 -45.5 -214 -45.5s-151.5 15 -214.5 45s-113.833 71 -152.5 123c-78 104.667 -117 236.334 -117 395.001zM704.001 527.998l-0.000976562 741c0 172.667 -45 259 -135 259c-82 0 -126.333 -65.333 -133 -196
c-1.33301 -18 -1.66602 -39 -0.999023 -63v-741c0.666992 -122 25.667 -201.667 75 -239c17.333 -12.667 38.5 -19 63.5 -19s47.167 8.83301 66.5 26.5s33.333 41.167 42 70.5c14.667 49.333 22 103 22 161z" />
    <glyph glyph-name="one" unicode="1" horiz-adv-x="676" 
d="M225 0l0.00195312 1337h-182v265c18.667 11.333 43.667 24.5 75 39.5s55.666 27.167 72.999 36.5s36.666 24.666 57.999 45.999s39.333 47 54 77h266v-1801h-344z" />
    <glyph glyph-name="two" unicode="2" horiz-adv-x="1067" 
d="M874 880c-71.333 -111.333 -151.669 -219 -241.002 -323s-147.666 -174.333 -174.999 -211h560v-346h-958v309l438 627c86.667 126 140 225 160 297c9.33301 36 14 67.833 14 95.5s-2.5 52.167 -7.5 73.5s-12.5 42 -22.5 62c-22.667 44.667 -56.667 67 -102 67
c-43.333 0 -75.333 -21.333 -96 -64c-20 -41.333 -31 -81.5 -33 -120.5l-5 -95c-1.33301 -24.333 -1.66602 -44 -0.999023 -59s1 -24.833 1 -29.5h-345v113c0 288 98.333 465.333 295 532c54 18.667 115.333 27.667 184 27c152 0 269.667 -44.5 353 -133.5
s125 -210.833 125 -365.5s-48 -306.667 -144 -456z" />
    <glyph glyph-name="three" unicode="3" horiz-adv-x="1094" 
d="M555 271c89.333 -0.666992 133.998 70.334 133.998 213.001v46c0.666992 84 -19.666 148.667 -60.999 194c-39.333 44 -98 65.667 -176 65h-10v350h21c114 0 183.667 31.667 209 95c10.667 27.333 16.167 58 16.5 92s-1.16699 61.167 -4.5 81.5s-9.33301 40.5 -18 60.5
c-18 42 -55 63 -111 63c-33.333 0 -57 -7.5 -71 -22.5s-24.5 -28.833 -31.5 -41.5s-12.333 -26.5 -16 -41.5s-7 -30.5 -10 -46.5s-4.66699 -32 -5 -48s-0.833008 -31.667 -1.5 -47s-0.833984 -28.333 -0.500977 -39s0.5 -18 0.5 -22h-349v114
c0 155.333 42.167 277.333 126.5 366s203.333 133 357 133s272.834 -44.667 357.501 -134s127 -211 127 -365c0 -75.333 -15.5 -147.5 -46.5 -216.5s-76.167 -122.167 -135.5 -159.5c63.333 -46.667 109.5 -108.167 138.5 -184.5s43.5 -157.333 43.5 -243
s-8.83301 -161.834 -26.5 -228.501s-45.167 -126 -82.5 -178c-76.667 -108 -201.667 -162 -375 -162c-267.333 0 -423 125.333 -467 376c-9.33301 53.333 -14.666 113.333 -15.999 180v61h348c0 -85.333 3 -144.333 9 -177c17.333 -89.333 59.333 -134 126 -134z" />
    <glyph glyph-name="four" unicode="4" horiz-adv-x="1107" 
d="M62 437v282l440 1082h409v-1084h168v-280h-168v-437h-345v437h-504zM370 717h196v540z" />
    <glyph glyph-name="five" unicode="5" horiz-adv-x="1115" 
d="M553 260c104.667 0 157 101.002 157 303.002c0 17.333 -0.333008 35.666 -1 54.999v27c0 76.667 -4.66699 127.667 -14 153c-10 25.333 -19.667 45.666 -29 60.999c-20 32 -48.5 48 -85.5 48s-68 -14.167 -93 -42.5s-44.833 -60.833 -59.5 -97.5h-295v1034h857v-342h-533
v-325c64 39.333 125.167 59 183.5 59s112.333 -10.333 162 -31s89.667 -48 120 -82s55.5 -75.333 75.5 -124c34.667 -84.667 51.667 -190 51 -316c0.666992 -204 -29 -358 -89 -462c-82 -141.333 -212.333 -212.333 -391 -213c-210 -0.666992 -349 83 -417 251
c-38.667 94 -57.667 212.333 -57 355h346c-0.666992 -22 -1 -42.333 -1 -61c0 -72 3.33301 -119.333 10 -142c9.33301 -28 18 -49.333 26 -64c16 -29.333 41.667 -44 77 -44z" />
    <glyph glyph-name="six" unicode="6" horiz-adv-x="1112" 
d="M87 550v638c0 220.667 49 389.334 147 506.001c35.333 42 82 76 140 102s124 39 198 39s140 -13.333 198 -40c58.667 -27.333 106.667 -64.333 144 -111c76 -96 113.667 -219.333 113 -370v-32h-339c0 90.667 -8.66699 154 -26 190c-19.333 38.667 -49.333 58 -90 58
c-90.667 0 -136 -112.333 -136 -337v-15v-103c61.333 41.333 127.166 62 197.499 62s130 -9.83301 179 -29.5s88.833 -45.834 119.5 -78.501s55.334 -73 74.001 -121c33.333 -85.333 50.333 -191.333 51 -318c0 -213.333 -53.333 -376.666 -160 -489.999
c-80.667 -85.333 -189 -128.333 -325 -129c-190 0 -328 84.667 -414 254c-47.333 93.333 -71 201.666 -71 324.999zM438 762l-0.00585938 -233.001c0 -122 24.667 -201.667 74 -239c17.333 -12.667 35 -19 53 -19s32.833 1.83301 44.5 5.5s21.834 9.83398 30.501 18.501
s16.334 17 23.001 25s12.334 19.5 17.001 34.5s8.83398 27.167 12.501 36.5s6.33398 23.333 8.00098 42s3.16699 32 4.5 40s2.33301 21.667 3 41v34v32c0 82.667 -4.66699 136 -14 160c-8.66699 22.667 -17.667 42 -27 58c-18.667 32 -52.667 48 -102 48
s-91.666 -28 -126.999 -84z" />
    <glyph glyph-name="seven" unicode="7" horiz-adv-x="827" 
d="M155 0l312 1496h-438v303h775v-177l-310 -1622h-339z" />
    <glyph glyph-name="eight" unicode="8" horiz-adv-x="1088" 
d="M657 1367c0 129.333 -38.001 194 -114.001 194s-114 -64.667 -114 -194c0 -84 3.83301 -139.833 11.5 -167.5s15.5 -50.834 23.5 -69.501c16.667 -37.333 43.334 -56 80.001 -56c45.333 0 76 29 92 87c14 50.667 21 119.334 21 206.001zM213.999 952
c-88 90.667 -131.998 216 -131.998 376s39.167 284.667 117.5 374s193.166 134 344.499 134s265.666 -44.833 342.999 -134.5s116 -215 116 -376s-43.667 -285.5 -131 -373.5c85.333 -69.333 135.333 -170 150 -302c4 -36 6 -86.667 6 -152s-8.5 -131 -25.5 -197
s-43.833 -124.333 -80.5 -175c-75.333 -104 -201.333 -156.333 -378 -157c-322.667 0 -484 186.333 -484 559c0 95.333 10.333 177.5 31 246.5s61.667 128.167 123 177.5zM544.001 251c20 0 37.834 3.33008 53.501 9.99707s28.334 14.5 38.001 23.5s18.167 21.667 25.5 38
s12.666 30.833 15.999 43.5s5.66602 29.334 6.99902 50.001c2.66699 28.667 4 59.334 4 92.001c0 197.333 -48.167 296 -144.5 296s-144.5 -98.667 -144.5 -296c0 -64 2.83301 -107 8.5 -129s12.167 -41 19.5 -57s16 -28.667 26 -38s22.667 -17.166 38 -23.499
s33 -9.5 53 -9.5z" />
    <glyph glyph-name="nine" unicode="9" horiz-adv-x="1135" 
d="M101 489l-0.000976562 29.999h341c0 -78 4.16699 -127.833 12.5 -149.5s16.833 -39.834 25.5 -54.501c17.333 -29.333 46 -44 86 -44c46.667 -0.666992 82 29 106 89c19.333 49.333 29.333 97.166 30 143.499s1.33398 78.833 2.00098 97.5
s0.833984 33.834 0.500977 45.501s-0.5 19.5 -0.5 23.5v45c-60 -33.333 -126.667 -50 -200 -50c-282 0 -423 182.333 -423 547c0 212 53.667 376 161 492c80.667 86.667 188.667 130.334 324 131.001c189.333 0 327 -91.333 413 -274c48 -102 72 -218.333 72 -349v-560
c0 -336.667 -95.333 -550 -286 -640c-58 -27.333 -124.667 -41 -200 -41s-142.333 13 -201 39c-58.667 26.667 -106.667 63.334 -144 110.001c-74.667 94.667 -114.334 217.667 -119.001 369zM701.999 1034l0.00195312 237.001c0 115.333 -21.333 192.666 -64 231.999
c-20 18 -41.667 27 -65 27s-42.333 -4.16699 -57 -12.5s-26.5 -18.333 -35.5 -30s-16.833 -27.5 -23.5 -47.5s-11.5 -37.667 -14.5 -53s-5.16699 -35 -6.5 -59c-2.66699 -33.333 -4 -63.666 -4 -90.999v-55c0 -56.667 5.66699 -100.334 17 -131.001s21.666 -51 30.999 -61
c23.333 -24.667 50 -37 80 -37c59.333 0 106.666 27 141.999 81z" />
    <glyph glyph-name="colon" unicode=":" horiz-adv-x="518" 
d="M99 897v316h321v-316h-321zM99 151v315h321v-315h-321z" />
    <glyph glyph-name="semicolon" unicode=";" horiz-adv-x="510" 
d="M87 897v316h321v-316h-321zM154 -95l-39.998 166.001h15c17.333 0 29.166 0.166992 35.499 0.5s12.5 3.16602 18.5 8.49902c8 7.33301 12 30 12 68h-110v318h323c0 -164.667 -0.333008 -254 -1 -268c-4.66699 -120 -26.334 -202 -65.001 -246
c-30 -34 -74.667 -51 -134 -51c-16.667 0 -34.667 1.33301 -54 4z" />
    <glyph glyph-name="less" unicode="&#x3c;" horiz-adv-x="865" 
d="M74 525v274l676 473v-293l-444 -315l444 -319v-292z" />
    <glyph glyph-name="equal" unicode="=" horiz-adv-x="762" 
d="M70 583v223h612v-223h-612zM70 258v222h612v-222h-612z" />
    <glyph glyph-name="greater" unicode="&#x3e;" horiz-adv-x="865" 
d="M115 53v292l444 319l-444 315v293l676 -473v-274z" />
    <glyph glyph-name="question" unicode="?" horiz-adv-x="974" 
d="M609 1402c0 92.667 -42.002 138.996 -126.002 138.996c-37.333 0 -65.5 -15.167 -84.5 -45.5s-28.5 -67.166 -28.5 -110.499s6.33301 -85.666 19 -126.999l-314 -60c-19.333 74 -29 144 -29 210c0 128 36.333 231.167 109 309.5s182.334 117.5 329.001 117.5
s260.334 -39.167 341.001 -117.5s121 -186.166 121 -323.499s-31.167 -261.333 -93.5 -372s-148.833 -198 -259.5 -262v-280h-334v388c89.333 60.667 168.333 136 237 226c75.333 98.667 113 201.334 113 308.001zM258.998 -0.00390625v324h334v-324h-334z" />
    <glyph glyph-name="at" unicode="@" horiz-adv-x="1727" 
d="M759 716c0 -119.333 34.3291 -179.001 102.996 -179.001c22.667 0 43 9.33301 61 28v404c-1.33301 10.667 -5.66602 19.834 -12.999 27.501s-17.5 11.5 -30.5 11.5s-25.667 -2.5 -38 -7.5s-22.666 -12 -30.999 -21s-15.833 -19.5 -22.5 -31.5s-11.667 -25 -15 -39
s-6.16602 -28.5 -8.49902 -43.5s-3.66602 -30 -3.99902 -45s-0.833008 -29.833 -1.5 -44.5c-0.666992 -9.33301 -1 -18 -1 -26v-12c0 -10.667 0.333008 -18 1 -22zM992.996 411.999c-58.667 -78 -117.335 -116.999 -176.002 -116.999c-74 0 -137.667 21 -191 63
c-102.667 80.667 -154 200 -154 358c0 162 32 294.333 96 397c22.667 36.667 53.5 67 92.5 91s85.5 36 139.5 36s95 -21 123 -63v54h287v-589c0 -44 4.66699 -72.5 14 -85.5s24 -19.5 44 -19.5s37.667 9.83301 53 29.5s26 45.167 32 76.5c10 52 15 113 15 183
s-7.66699 139.833 -23 209.5s-41 132.5 -77 188.5c-74 114.667 -205.333 172.334 -394 173.001c-86 0 -162 -16 -228 -48s-118.667 -76.333 -158 -133c-78.667 -113.333 -118 -255 -118 -425c0 -275.333 58 -466.333 174 -573c90 -82.667 221 -124 393 -124
c84.667 0 187.334 19.333 308.001 58l108 -226c-165.333 -37.333 -314.5 -56 -447.5 -56s-254.167 19.667 -363.5 59s-197.666 98.666 -264.999 177.999c-129.333 152.667 -194 380.667 -194 684c-0.666992 246 68.333 445 207 597c66.667 73.333 150 130.166 250 170.499
s211.333 60.5 334 60.5c169.333 0 313 -34.333 431 -103c233.333 -136 350 -377.667 350 -725c-0.666992 -130 -30.334 -243 -89.001 -339c-29.333 -48 -69.5 -86.167 -120.5 -114.5s-109.5 -42.5 -175.5 -42.5c-117.333 0 -209.666 39 -276.999 117z" />
    <glyph glyph-name="A" unicode="A" horiz-adv-x="1117" 
d="M9 0l389 1800h322l388 -1800h-359l-74 385h-235l-70 -385h-361zM465 609h186l-91 668z" />
    <glyph glyph-name="B" unicode="B" horiz-adv-x="1140" 
d="M107 0l-0.000976562 1800h371c216 0 365.333 -44.333 448 -133c69.333 -74.667 104 -185.334 104 -332.001c0 -94 -22.167 -168 -66.5 -222s-113.166 -96.667 -206.499 -128c214 -52 321 -203.333 321 -454c0 -180.667 -43.333 -314.334 -130 -401.001
s-219 -130 -397 -130h-444zM468.999 1092h61.999c66 0 111 24.667 135 74c21.333 44 32 92.167 32 144.5s-2.16699 89.833 -6.5 112.5s-9.16602 41.5 -14.499 56.5s-14.333 27.667 -27 38s-23.834 18 -33.501 23s-24.5 8.83301 -44.5 11.5
c-25.333 2.66699 -59.666 4 -102.999 4v-464zM470.998 257.002h34c93.333 0 154 24.333 182 73c25.333 44 38 116.167 38 216.5s-16.5 176.5 -49.5 228.5s-89.167 78 -168.5 78h-36v-596z" />
    <glyph glyph-name="C" unicode="C" horiz-adv-x="1174" 
d="M84 601l-0.00292969 595.997c0 425.333 174 638 522 638c210.667 0 355.334 -79.667 434.001 -239c46.667 -95.333 70.334 -215.666 71.001 -360.999v-155h-358v166c0.666992 113.333 -11 193.333 -35 240c-37.333 38.667 -74.666 61.334 -111.999 68.001
c-105.333 0 -158 -88.667 -158 -266v-777c0 -176.667 52.667 -265 158 -265c64 0 105.667 34.667 125 104c16 56.667 24 125 24 205v185h356v-152c-4.66699 -228 -57.667 -394 -159 -498c-82 -83.333 -197.333 -125 -346 -125
c-221.333 0.666992 -372.333 88.334 -453 263.001c-46 100 -69 224.333 -69 373z" />
    <glyph glyph-name="D" unicode="D" horiz-adv-x="1164" 
d="M485 255c101.333 -0.666992 163.333 7.66797 186 25.001c23.333 17.333 36.666 39.333 39.999 66s5 53.667 5 81v969c0 59.333 -17.667 98.666 -53 117.999s-94.666 29.333 -177.999 30v-1289zM107 0.00195312v1800h376c120 0 218.833 -10.833 296.5 -32.5
s138.667 -57.334 183 -107.001s75 -109.167 92 -178.5s25.5 -157.666 25.5 -264.999v-590c0 -200.667 -24.667 -341.667 -74 -423c-44 -73.333 -104.667 -124.666 -182 -153.999c-88 -33.333 -203 -50 -345 -50h-372z" />
    <glyph glyph-name="E" unicode="E" horiz-adv-x="881" 
d="M107 0v1800h751v-250h-387v-490h274v-256h-274v-554h387v-250h-751z" />
    <glyph glyph-name="F" unicode="F" horiz-adv-x="856" 
d="M107 0v1800h751v-250h-387v-490h274v-256h-274v-804h-364z" />
    <glyph glyph-name="G" unicode="G" horiz-adv-x="1238" 
d="M84 563l0.000976562 634c0 425.333 177 638 531 638c216 0 363.667 -79.667 443 -239c48 -96 72 -216.333 72 -361v-106h-348v126c0 109.333 -14 187 -42 233c-26.667 44 -68.334 66 -125.001 66c-111.333 0 -167 -88.667 -167 -266v-777
c0 -176.667 55.5 -265 166.5 -265s166.5 91.667 166.5 275v144h-206v261h570v-926h-250l-46 126c-30.667 -48 -74.334 -86.833 -131.001 -116.5s-116.167 -44.5 -178.5 -44.5s-120 11.833 -173 35.5s-96.667 55 -131 94s-63.166 84.833 -86.499 137.5
c-43.333 98 -65 208.333 -65 331z" />
    <glyph glyph-name="H" unicode="H" horiz-adv-x="1205" 
d="M107 0v1800h364v-738h261v738h366v-1800h-366v803h-261v-803h-364z" />
    <glyph glyph-name="I" unicode="I" horiz-adv-x="578" 
d="M107 0v1800h364v-1800h-364z" />
    <glyph glyph-name="J" unicode="J" horiz-adv-x="691" 
d="M0 -34l-0.000976562 256h12c81.333 0 136 13.333 164 40c29.333 28 44 85.667 44 173v1365h364v-1368c0 -201.333 -38.667 -332 -116 -392c-63.333 -49.333 -159.666 -74 -288.999 -74h-179z" />
    <glyph glyph-name="K" unicode="K" horiz-adv-x="1149" 
d="M107 0v1800h364v-683l282 683h407l-367 -737l394 -1063h-378l-272 823l-66 -170v-653h-364z" />
    <glyph glyph-name="L" unicode="L" horiz-adv-x="838" 
d="M107 0v1800h364v-1550h358v-250h-722z" />
    <glyph glyph-name="M" unicode="M" horiz-adv-x="1470" 
d="M1087 1266l-210 -1266h-272l-221 1274l-8 -1274h-269v1800h436l192 -1200l207 1200h421v-1800h-268z" />
    <glyph glyph-name="N" unicode="N" horiz-adv-x="1173" 
d="M107 0v1801h262l395 -942v942h302v-1801h-252l-394 999v-999h-313z" />
    <glyph glyph-name="O" unicode="O" horiz-adv-x="1221" 
d="M773 1288c0 177.333 -54.167 266 -162.5 266s-162.5 -88.667 -162.5 -266v-778c0 -176.667 54.167 -265 162.5 -265s162.5 88.333 162.5 265v778zM84 592l0.000976562 605.001c0 425.333 175.5 638 526.5 638s526.5 -212.667 526.5 -638v-596
c0 -324.667 -106.333 -525.667 -319 -603c-60.667 -22 -129.834 -33 -207.501 -33s-146.834 10.833 -207.501 32.5s-110.667 51.167 -150 88.5s-71.666 82.666 -96.999 135.999c-48 100 -72 223.333 -72 370z" />
    <glyph glyph-name="P" unicode="P" horiz-adv-x="1022" 
d="M107 0v1800h435c156.667 0 270.667 -43.667 342 -131s107 -213.666 107 -378.999c0 -232 -65.667 -383.333 -197 -454c-78.667 -42 -185.667 -64 -321 -66v-770h-366zM474 1027c60.667 0 101 9.33301 121 28l21.5 20.5c5.66699 5.66699 10.5 15.5 14.5 29.5
s7 25.167 9 33.5s3.5 22.333 4.5 42s1.5 35.167 1.5 46.5v70c0 82.667 -3.33301 132 -10 148s-14.167 30.667 -22.5 44s-18.5 23 -30.5 29c-30.667 15.333 -67 23 -109 23v-514z" />
    <glyph glyph-name="Q" unicode="Q" horiz-adv-x="1228" 
d="M84 592l-0.000976562 605c0 238.667 56.667 411 170 517c86.667 80.667 206.667 121 360 121c224 0 376.667 -86.333 458 -259c48 -101.333 72 -227.666 72 -378.999v-596c0 -246.667 -71 -429.667 -213 -549c20 -43.333 78.667 -65 176 -65v-221
c-181.333 0 -314.666 67.333 -399.999 202c-28.667 -3.33301 -61.667 -5 -99 -5c-260 0 -424.333 125.333 -493 376c-20.667 75.333 -31 159.666 -31 252.999zM779.999 1288c0 177.333 -55.333 266 -166 266c-66.667 0 -112 -30.333 -136 -91c-20 -52 -30 -110.333 -30 -175
v-777c0 -176.667 55.333 -265 166 -265s166 88.333 166 265v777z" />
    <glyph glyph-name="R" unicode="R" horiz-adv-x="1122" 
d="M107 0v1800h396c283.333 0 461.333 -84 534 -252c26.667 -61.333 40 -135.333 40 -222c0 -128 -20.667 -228 -62 -300c-38.667 -67.333 -99.667 -119.333 -183 -156l282 -870h-377l-206 829h-60v-829h-364zM471 1051l104.001 -0.00292969c28 0 52 9.33301 72 28
s34.5 42.334 43.5 71.001s15.333 55 19 79s5.5 46.667 5.5 68s-1.5 43.333 -4.5 66s-8.33301 47.834 -16 75.501s-20.334 50.334 -38.001 68.001s-39.167 26.5 -64.5 26.5h-121v-482z" />
    <glyph glyph-name="S" unicode="S" horiz-adv-x="1053" 
d="M636 1278l3.00098 72.998c0 138 -38.333 207 -115 207c-40 0 -70 -15.667 -90 -47s-30 -67 -30 -107s5.83301 -76.333 17.5 -109s29.334 -63.167 53.001 -91.5s45.5 -51.833 65.5 -70.5s46.667 -41.5 80 -68.5l99 -84c32.667 -29 66.667 -63.333 102 -103
s68.666 -84.5 99.999 -134.5c62.667 -100 94 -214.833 94 -344.5s-45 -234.667 -135 -315s-199.333 -120.5 -328 -120.5c-83.333 0 -157.333 15.333 -222 46c-64 30.667 -116 72.334 -156 125.001c-78.667 104.667 -121.667 231.667 -129 381l369 71c0 -128 12 -218 36 -270
c22.667 -49.333 57 -74 103 -74c72 0 108 46 108 138c0 126 -71 251.333 -213 376l-113 96c-114 96 -190.333 180.667 -229 254c-40 76.667 -60 162.334 -60 257.001c0 146 46.333 261.5 139 346.5s215.667 127.5 369 127.5c127.333 0 235.666 -45.333 324.999 -136
s134 -200 134 -328l-1 -13v-30z" />
    <glyph glyph-name="T" unicode="T" horiz-adv-x="915" 
d="M278 0v1528h-264v272h887v-272h-259v-1528h-364z" />
    <glyph glyph-name="U" unicode="U" 
d="M99 669l-0.00683594 1131h364v-1120c0 -188.667 5 -295.5 15 -320.5s20.833 -47.167 32.5 -66.5s26.834 -32 45.501 -38s41.334 -9 68.001 -9s49.334 3 68.001 9s33.834 18.5 45.501 37.5s20.834 36.833 27.501 53.5c6.66699 16 11.334 44.667 14.001 86
c4 61.333 6 117.666 6 168.999v1199h364v-1131c0 -190 -20.667 -334.333 -62 -433c-36.667 -88 -89.667 -153.667 -159 -197c-79.333 -49.333 -180.666 -74 -303.999 -74c-232.667 0.666992 -386.667 91 -462 271c-42 100 -63 244.333 -63 433z" />
    <glyph glyph-name="V" unicode="V" horiz-adv-x="1044" 
d="M343 0l-331 1800h345l159 -1091l176 1091h340l-356 -1800h-333z" />
    <glyph glyph-name="W" unicode="W" horiz-adv-x="1464" 
d="M270 0l-249 1800h310l112 -1192l154 1192h267l151 -1185l117 1185h311l-252 -1800h-311l-151 1178l-148 -1178h-311z" />
    <glyph glyph-name="X" unicode="X" horiz-adv-x="1077" 
d="M23 0l291 931l-293 869h346l169 -538l182 538h338l-291 -863l287 -937h-343l-172 595l-170 -595h-344z" />
    <glyph glyph-name="Y" unicode="Y" horiz-adv-x="1027" 
d="M510 1009l185 791h333l-339 -1205v-595h-352v595l-338 1205h343z" />
    <glyph glyph-name="Z" unicode="Z" horiz-adv-x="998" 
d="M80 0v228l475 1321h-420v250h776v-229l-477 -1320h477v-250h-831z" />
    <glyph glyph-name="bracketleft" unicode="[" horiz-adv-x="779" 
d="M156 -64v1971h547v-158h-259v-1655h259v-158h-547z" />
    <glyph glyph-name="backslash" unicode="\" horiz-adv-x="629" 
d="M265 0l-197 1843h288l198 -1843h-289z" />
    <glyph glyph-name="bracketright" unicode="]" horiz-adv-x="728" 
d="M76 -64v128h256v1664h-256v128h512v-1920h-512z" />
    <glyph glyph-name="asciicircum" unicode="^" horiz-adv-x="962" 
d="M65 907l271 676h277l271 -676h-290l-120 418l-119 -418h-290z" />
    <glyph glyph-name="underscore" unicode="_" horiz-adv-x="829" 
d="M6 0v223h806v-223h-806z" />
    <glyph glyph-name="grave" unicode="`" horiz-adv-x="640" 
d="M353 1393l-277 442h346l136 -442h-205z" />
    <glyph glyph-name="a" unicode="a" horiz-adv-x="976" 
d="M620 0l-32.998 135c-19.333 -60.667 -51 -103.167 -95 -127.5s-94.333 -36.5 -151 -36.5s-103 9.33301 -139 28c-36 18 -64 43 -84 75c-40 62 -60 134.333 -60 217c0 131.333 36.667 236 110 314c48 51.333 97.333 90.666 148 117.999
c72.667 38.667 151 75.334 235 110.001v110c0 46 -5.66699 80.333 -17 103s-28.5 34 -51.5 34s-40.333 -3.83301 -52 -11.5s-19.834 -19.167 -24.501 -34.5c-7.33301 -24 -11 -54.333 -11 -91v-74h-327c0 150 37.667 265.167 113 345.5s184.666 120.5 327.999 120.5
c100 0 187.667 -36.333 263 -109s113 -159 113 -259v-620c0 -107.333 14.333 -223 43 -347h-308zM386.002 322c0 -64.667 22.667 -97 68 -97c25.333 0 49 12.333 71 37c6 6.66699 15 17.667 27 33v321c-110.667 -89.333 -166 -187.333 -166 -294z" />
    <glyph glyph-name="b" unicode="b" horiz-adv-x="999" 
d="M583 319v674.998c0 57.333 -18.667 86 -56 86c-11.333 0 -24.333 -5.66699 -39 -17c-16 -12.667 -34.667 -33 -56 -61v-696l13 -18c1.33301 -1.33301 4 -4.66602 8 -9.99902l9 -12c10 -11.333 16.5 -18 19.5 -20s6.5 -4.66699 10.5 -8s8 -5.66602 12 -6.99902
c16 -4 26.667 -6 32 -6c10.667 0 20 5.33301 28 16c12 14.667 18.333 40.667 19 78zM432 1217c60.667 78.667 131.167 118.001 211.5 118.001s146.5 -31.667 198.5 -95s78 -136.333 78 -219v-771c0 -74.667 -25 -139.834 -75 -195.501s-112 -83.5 -186 -83.5
c-44.667 0 -87 11.333 -127 34s-73.333 53.667 -100 93v-98h-337v1800h337v-583z" />
    <glyph glyph-name="c" unicode="c" horiz-adv-x="928" 
d="M78 334l-0.00195312 559.998c0 138.667 33 246.834 99 324.501s166.833 116.5 302.5 116.5s236.334 -38.667 302.001 -116s98.5 -185.666 98.5 -324.999v-114h-331v149c0 52 -4.5 90.167 -13.5 114.5s-27.833 36.5 -56.5 36.5c-42.667 0 -64 -33 -64 -99v-646
c0 -73.333 21.333 -110 64 -110c31.333 0 51 14.667 59 44c6.66699 26 10.334 66.333 11.001 121v139h331v-195c0 -72 -18.667 -136.167 -56 -192.5s-86.333 -98.833 -147 -127.5s-126.667 -43 -198 -43c-110 0 -204.333 33.5 -283 100.5s-118 154.5 -118 262.5z" />
    <glyph glyph-name="d" unicode="d" horiz-adv-x="999" 
d="M567 297l-0.000976562 708c-38 50 -69.667 75 -95 75c-37.333 0 -56 -28.667 -56 -86v-675c0 -62.667 18.667 -94 56 -94c28.667 0 60.334 24 95.001 72zM156.999 1240c52 63.333 118.167 94.999 198.5 94.999s150.833 -39.333 211.5 -118v583h337v-1800h-337v98
c-26.667 -39.333 -60 -70.333 -100 -93s-82.333 -34 -127 -34c-74 0 -136 27.833 -186 83.5s-75 120.834 -75 195.501v771c0 82.667 26 155.667 78 219z" />
    <glyph glyph-name="e" unicode="e" horiz-adv-x="940" 
d="M78 339l-0.000976562 554.998c0 138.667 33 246.834 99 324.501s166.833 116.5 302.5 116.5s236.334 -38.667 302.001 -116s98.5 -185.666 98.5 -324.999v-270h-465v-289c0 -73.333 21.333 -110 64 -110c46.667 0 70 39.333 70 118v143h331v-147
c0 -108.667 -39.333 -197.167 -118 -265.5s-173 -102.5 -283 -102.5s-204.333 34.333 -283 103s-118 157 -118 265zM414.999 800.998h131v180c0 66 -21.833 99 -65.5 99s-65.5 -33 -65.5 -99v-180z" />
    <glyph glyph-name="f" unicode="f" horiz-adv-x="647" 
d="M141 0v1080h-76v225h76v2c2 138 19 235.667 51 293c32.667 60 76 99.333 130 118c32 10.667 65.333 16.334 100 17.001c68 0 131.333 -3.66699 190 -11l32 -3v-252c-46.667 4 -80 6 -100 6c-44 0 -66 -36.333 -66 -109v-61h163v-225h-163v-1080h-337z" />
    <glyph glyph-name="g" unicode="g" horiz-adv-x="965" 
d="M459 378c-12 0 -48.001 5 -108.001 15c-15.333 -30 -23 -48 -23 -54c0 -28.667 41.333 -51 124 -67c36.667 -6.66699 77.167 -13.667 121.5 -21s88.833 -16.833 133.5 -28.5s85.334 -25.834 122.001 -42.501s66.5 -40 89.5 -70s34.5 -68.833 34.5 -116.5
s-8.16699 -92.334 -24.5 -134.001s-38 -75 -65 -100s-60.5 -45.167 -100.5 -60.5c-69.333 -26.667 -156 -40 -260 -40c-320.667 0 -481 78.333 -481 235c0 46 12.667 91.833 38 137.5s58.333 83.167 99 112.5c-78 40 -117 74.667 -117 104c0 38 44.333 113.333 133 226
c-68 124 -102 248.667 -102 374c0 131.333 30.333 243 91 335c30.667 46.667 72.167 83.667 124.5 111s112.833 41 181.5 41c102.667 0 180 -27.667 232 -83c48.667 55.333 130.334 83 245.001 83h42l-28 -241c-66 0 -113.667 -14.667 -143 -44
c28 -50 42 -115.167 42 -195.5s-8.83301 -147.166 -26.5 -200.499s-43 -100.666 -76 -141.999s-75.333 -74 -127 -98s-108.834 -36 -171.501 -36zM461.999 632c54.667 0 82 78.332 82 234.999s-25.667 235 -77 235c-27.333 0 -46.333 -13.333 -57 -40
c-15.333 -36.667 -23.333 -75.167 -24 -115.5s-1 -72.166 -1 -95.499c0 -146 25.667 -219 77 -219zM630.999 -37.001c0 71.333 -91 110 -273 116h-24c-30 -47.333 -45 -89 -45 -125c0 -39.333 74 -59 222 -59c47.333 0 79 6.16699 95 18.5s24.333 28.833 25 49.5z" />
    <glyph glyph-name="h" unicode="h" horiz-adv-x="1005" 
d="M431 1005v-1005h-337v1800h337v-588c32.667 36.667 71.5 66.334 116.5 89.001s91 34 138 34s88.5 -14.667 124.5 -44c72 -58 108 -138 108 -240v-1051h-337v963c0 2.66699 0.166992 8.5 0.5 17.5s0.333008 16.333 0 22s-0.666016 13 -0.999023 22s-1.5 16.167 -3.5 21.5
s-4.66699 11 -8 17c-6 11.333 -19.833 17 -41.5 17s-53.834 -25 -96.501 -75z" />
    <glyph glyph-name="i" unicode="i" horiz-adv-x="529" 
d="M96 0v1305h337v-1305h-337zM96 1419v315h337v-315h-337z" />
    <glyph glyph-name="j" unicode="j" horiz-adv-x="572" 
d="M-21 -284l0.000976562 244c37.333 -10.667 66.666 -16 87.999 -16c50.667 0 76 37 76 111v1250h335v-1279c0 -104.667 -27.5 -187 -82.5 -247s-134.167 -90 -237.5 -90c-50 0 -109.667 9 -179 27zM143.001 1419v315h335v-315h-335z" />
    <glyph glyph-name="k" unicode="k" horiz-adv-x="981" 
d="M99 0v1800h337v-948l206 453h361l-321 -551l320 -754h-349l-172 582l-45 -76v-506h-337z" />
    <glyph glyph-name="l" unicode="l" horiz-adv-x="529" 
d="M96 0v1800h337v-1800h-337z" />
    <glyph glyph-name="m" unicode="m" horiz-adv-x="1473" 
d="M94 0l-0.00390625 1305h337v-93c31.333 36.667 68.666 66.334 111.999 89.001s87.333 34 132 34s85.334 -14 122.001 -42s64.334 -63 83.001 -105c32.667 44 72.834 79.5 120.501 106.5s96.334 40.5 146.001 40.5s92.834 -14.667 129.501 -44
c73.333 -58.667 110 -138.667 110 -240v-1051h-337v984c0 45.333 -5.33301 72.666 -16 81.999s-21.667 14 -33 14c-24 0 -54.667 -24.667 -92 -74v-1006h-337v986c0 62.667 -15.333 94 -46 94c-25.333 0 -57 -25 -95 -75v-1005h-336z" />
    <glyph glyph-name="n" unicode="n" horiz-adv-x="1005" 
d="M94 0v1305h337v-92c32 36.667 70.5 66 115.5 88s91.167 33 138.5 33s89 -14.667 125 -44c72 -57.333 108 -136.666 108 -237.999v-1052h-337v993c0 58 -18.667 87 -56 87c-8.66699 0 -16.167 -1.66699 -22.5 -5l-14.5 -7.5c-3.33301 -1.66699 -7.33301 -4.5 -12 -8.5
c-13.333 -11.333 -22 -19.666 -26 -24.999c-4.66699 -6 -11 -13.333 -19 -22v-1012h-337z" />
    <glyph glyph-name="o" unicode="o" horiz-adv-x="973" 
d="M78 339l0.00195312 555c0 139.333 32.833 247.5 98.5 324.5s168.167 115.5 307.5 115.5s242.666 -38.5 309.999 -115.5s101 -185.167 101 -324.5v-555c0 -108.667 -40.333 -197.167 -121 -265.5s-177.334 -102.5 -290.001 -102.5c-72.667 0 -139.667 14.833 -201 44.5
s-110.833 73 -148.5 130s-56.5 121.5 -56.5 193.5zM561.002 335v645.999c0 66 -25.667 99 -77 99c-46 0 -69 -33 -69 -99v-646c0 -53.333 10 -86.666 30 -99.999c10 -6.66699 23 -10 39 -10c51.333 0 77 36.667 77 110z" />
    <glyph glyph-name="p" unicode="p" horiz-adv-x="999" 
d="M583 319v675c0 57.333 -18.667 86 -56 86c-25.333 0 -57 -25 -95 -75v-708c34.667 -48 66.334 -72 95.001 -72c15.333 0 27.666 5.33301 36.999 16c12 14.667 18.333 40.667 19 78zM432 1217c60.667 78.667 131.167 118.001 211.5 118.001s146.5 -31.667 198.5 -95
s78 -136.333 78 -219v-771c0 -74.667 -25 -139.834 -75 -195.501s-112 -83.5 -186 -83.5c-44.667 0 -87 11.333 -127 34s-73.333 53.667 -100 93v-469h-337v1676h337v-88z" />
    <glyph glyph-name="q" unicode="q" horiz-adv-x="979" 
d="M463 1080c-30.667 0 -46.002 -28.002 -46.002 -84.002v-687c0 -56 15.333 -84 46 -84c16.667 0.666992 31.334 8.33398 44.001 23.001c15.333 18 29 35.667 41 53v708c-39.333 42.667 -67.666 66.334 -84.999 71.001zM547.998 88.998
c-58 -78.667 -125.332 -118.001 -201.999 -118.001s-139.834 28.667 -189.501 86s-74.5 123.333 -74.5 198v801c0 74.667 24.833 139.834 74.5 195.501s111.167 83.5 184.5 83.5c40.667 0 79.167 -11.333 115.5 -34s66.833 -53.667 91.5 -93v97h337v-1676h-337v460z" />
    <glyph glyph-name="r" unicode="r" horiz-adv-x="714" 
d="M569 1040c-93.333 0 -139.999 -54.667 -139.999 -164v-876h-335v1305h335v-106c51.333 83.333 111.333 125 180 125c19.333 0 49.666 -3.33301 90.999 -10v-284c-62 6.66699 -105.667 10 -131 10z" />
    <glyph glyph-name="s" unicode="s" horiz-adv-x="867" 
d="M38 315l258.001 92.002c23.333 -70.667 42.333 -115 57 -133c29.333 -37.333 58.666 -56 87.999 -56c42 0 63 24.667 63 74s-28.667 102 -86 158c-30 29.333 -68 63.666 -114 102.999l-55 47c-71.333 62 -127.333 123 -168 183s-61 122.5 -61 187.5
s11.833 120.333 35.5 166s55.5 82.5 95.5 110.5c82.667 58 179.667 87 291 87c97.333 0 183.333 -38 258 -114c68.667 -70 116.667 -153.667 144 -251l-242 -83c-29.333 73.333 -52.666 120 -69.999 140c-34 39.333 -65 59 -93 59s-48.5 -8.33301 -61.5 -25
s-19.5 -37.667 -19.5 -63c0 -44 60.667 -116.667 182 -218l62 -55c114.667 -102.667 186.667 -195.667 216 -279c13.333 -36.667 19.666 -73.334 18.999 -110.001c0 -105.333 -37.167 -192.333 -111.5 -261s-163.333 -103 -267 -103s-192.5 31.667 -266.5 95
s-125.333 146.333 -154 249z" />
    <glyph glyph-name="t" unicode="t" horiz-adv-x="668" 
d="M117 448l0.00390625 632h-96v225h96v429h337v-429h162v-225h-162v-713c0 -36 6.66699 -62.833 20 -80.5s38.166 -26.5 74.499 -26.5s67.833 2 94.5 6v-261c-44 -13.333 -100.333 -20 -169 -20s-118.834 4.66699 -150.501 14s-58.334 21.833 -80.001 37.5
s-40.334 35.5 -56.001 59.5s-28.167 48.667 -37.5 74c-8 24.667 -14.667 53.667 -20 87c-8 55.333 -12.333 119 -13 191z" />
    <glyph glyph-name="u" unicode="u" horiz-adv-x="1006" 
d="M87 253l0.000976562 1052h337v-970c0 -73.333 15.167 -110 45.5 -110s65.5 24.667 105.5 74v1006h337v-1305h-337v113c-34 -41.333 -73.667 -75.333 -119 -102s-91.333 -40 -138 -40c-68.667 0 -124.334 29.167 -167.001 87.5s-64 123.166 -64 194.499z" />
    <glyph glyph-name="v" unicode="v" horiz-adv-x="892" 
d="M282 0l-271 1305h316l129 -881l109 881h316l-258 -1305h-341z" />
    <glyph glyph-name="w" unicode="w" horiz-adv-x="1273" 
d="M218 0l-191 1305h281l104 -805l108 805h254l98 -821l114 821h260l-193 -1305h-290l-123 771l-132 -771h-290z" />
    <glyph glyph-name="x" unicode="x" horiz-adv-x="922" 
d="M461 896l95 409h333l-239 -617l238 -688h-332l-96 410l-94 -410h-332l240 688l-241 617h333z" />
    <glyph glyph-name="y" unicode="y" horiz-adv-x="872" 
d="M228.5 -30.5c27.667 30.333 41.499 84.334 41.499 162.001s-17.667 200 -53 367s-76.333 338.5 -123 514.5s-72 273.333 -76 292h307l121 -728l106 728h309l-285 -1340c-36 -160 -143.333 -250 -322 -270c-36 -4 -77.333 -6 -124 -6h-43v233
c66.667 1.33301 113.834 17.166 141.501 47.499z" />
    <glyph glyph-name="z" unicode="z" horiz-adv-x="813" 
d="M57 0v228l359 834h-303v243h651v-223l-362 -838h362v-244h-707z" />
    <glyph glyph-name="braceleft" unicode="{" horiz-adv-x="762" 
d="M682 158l0.00195312 -221.992c-153.333 0 -268 34.333 -344 103c-68 61.333 -110.333 157.666 -127 288.999c-7.33301 57.333 -11 108.166 -11 152.499s0.166992 76.666 0.5 96.999s0.666016 35.666 0.999023 45.999s-0.166992 23.833 -1.5 40.5s-3.5 29.5 -6.5 38.5
s-7.66699 19.167 -14 30.5s-14.166 19.666 -23.499 24.999c-21.333 13.333 -50 20 -86 20v287c44.667 0 76 17 94 51c19.333 36 30.333 70.667 33 104s4.16699 57.666 4.5 72.999s0.166016 35.5 -0.500977 60.5s-1 40.167 -1 45.5c0 106 7.66699 191.333 23 256
s42.833 116.167 82.5 154.5s88.5 64.166 146.5 77.499s134.667 20 230 20v-222c-66.667 0 -117.334 -12.333 -152.001 -37c-23.333 -16.667 -37 -61.667 -41 -135c-1.33301 -23.333 -2 -58.5 -2 -105.5s-2.33301 -90.833 -7 -131.5c-4 -40 -12 -83 -24 -129
c-25.333 -100 -74 -171 -146 -213c68 -39.333 114 -96 138 -170c20.667 -65.333 32.167 -121.833 34.5 -169.5s4 -85.5 5 -113.5s2 -49.5 3 -64.5s2.5 -34.5 4.5 -58.5s5 -42.833 9 -56.5s9 -29.334 15 -47.001s13.667 -31.167 23 -40.5
c9.33301 -10.667 20.333 -20.667 33 -30c23.333 -17.333 59 -26 107 -26z" />
    <glyph glyph-name="bar" unicode="|" horiz-adv-x="429" 
d="M134 -130v2102h222v-2102h-222z" />
    <glyph glyph-name="braceright" unicode="}" horiz-adv-x="762" 
d="M70 -64l0.000976562 222c68 0 116.667 21 146 63c23.333 33.333 37 75.5 41 126.5s6.33301 90.333 7 118s1.5 52.834 2.5 75.501s2.83301 47 5.5 73s7.83398 55.833 15.501 89.5s17.5 62.5 29.5 86.5c29.333 58.667 71 102.667 125 132
c-70.667 44.667 -118.667 123.667 -144 237c-21.333 95.333 -32.333 171.666 -33 228.999v103c0 74.667 -8.33301 121.667 -25 141c-18 20.667 -31.833 32.5 -41.5 35.5s-20.834 6.16699 -33.501 9.5c-20 5.33301 -51.667 8 -95 8v222c145.333 0.666992 254 -17 326 -53
s119 -108.667 141 -218c10.667 -53.333 16 -100.833 16 -142.5s-0.333008 -76.5 -1 -104.5c-0.666992 -18.667 -1 -35 -1 -49c0.666992 -6.66699 1 -13 1 -19c0 -17.333 1 -40.5 3 -69.5s5.66699 -52.833 11 -71.5s12.666 -37.667 21.999 -57c18 -38.667 49.333 -58 94 -58
v-287c-54.667 0 -90.667 -15 -108 -45c-15.333 -27.333 -23 -54 -23 -80l2 -158c0 -54.667 -3.66699 -110.667 -11 -168s-21.5 -111.833 -42.5 -163.5s-49.167 -93.5 -84.5 -125.5c-76 -68 -191 -102 -345 -102z" />
    <glyph glyph-name="asciitilde" unicode="~" horiz-adv-x="1028" 
d="M139 842l-0.00488281 6.99902c0.666992 115.333 34.334 200 101.001 254c36 29.333 74.833 44 116.5 44s81.334 -7.16699 119.001 -21.5s72.834 -28.833 105.501 -43.5s58.334 -22 77.001 -22c24.667 0 37 23 37 69h181v-7c0 -116 -33.333 -201.333 -100 -256
c-36 -29.333 -75.167 -44 -117.5 -44s-83.166 7.33301 -122.499 22s-75.5 29.334 -108.5 44.001s-57.167 22 -72.5 22c-22.667 0 -34 -22.667 -34 -68h-182z" />
    <glyph glyph-name="uni00A0" unicode="&#xa0;" horiz-adv-x="336" 
 />
    <glyph glyph-name="exclamdown" unicode="&#xa1;" horiz-adv-x="524" 
d="M334 842l104 -1338h-343l123 1338h116zM438 1305v-318h-323v318h323z" />
    <glyph glyph-name="cent" unicode="&#xa2;" horiz-adv-x="965" 
d="M559 421l-2.00195 105.003h332v-127c0 -100 -33.833 -183.5 -101.5 -250.5s-151.167 -105.833 -250.5 -116.5v-295h-90v295c-101.333 8.66699 -186.666 46.667 -255.999 114s-104 151.666 -104 252.999v445c0 131.333 29.5 235 88.5 311s149.5 118 271.5 126v287h90v-287
c119.333 -9.33301 207.833 -51.833 265.5 -127.5s86.5 -178.834 86.5 -309.501v-56h-332l1 74v10c0 45.333 -4 80 -12 104c-9.33301 25.333 -28.666 37.666 -57.999 36.999c-42.667 0 -64 -33 -64 -99v-508c0 -73.333 21.333 -110 64 -110c27.333 0 46 10 56 30
s15 51.667 15 95z" />
    <glyph glyph-name="sterling" unicode="&#xa3;" horiz-adv-x="1137" 
d="M84 0l-0.000976562 185.999l121 59v480h-121v259h121v222c-0.666992 159.333 15.666 283 48.999 371c30.667 83.333 74.334 145 131.001 185c66.667 48 152 72 256 72c220.667 0 348.334 -104 383.001 -312c10.667 -63.333 15.667 -135.666 15 -216.999h-327
c0 164.667 -23.667 247 -71 247s-71 -116 -71 -348v-220h245v-259h-245v-441h459v-284h-945z" />
    <glyph glyph-name="currency" unicode="&#xa4;" horiz-adv-x="1054" 
d="M120 579l86 86c-42 64.667 -63 141.667 -63 231s21 166.333 63 231l-86 86l90 90l86 -86c63.333 42 140.333 63 231 63s167.667 -21 231 -63l86 86l90 -90l-87 -87c42.667 -64.667 64 -141.167 64 -229.5s-21.333 -165.5 -64 -231.5l87 -86l-90 -90l-86 86
c-63.333 -42 -140.333 -63 -231 -63s-167.667 21 -231 63l-86 -86zM383.5 1048c-32.333 -41.333 -48.5039 -91.5 -48.5039 -150.5s17.333 -109.667 52 -152s82.334 -63.5 143.001 -63.5s107.334 21 140.001 63s49 92.5 49 151.5s-16.167 109.333 -48.5 151
s-80.166 62.5 -143.499 62.5s-111.166 -20.667 -143.499 -62z" />
    <glyph glyph-name="yen" unicode="&#xa5;" horiz-adv-x="1095" 
d="M397 0v259h-195v199h195v102h-195v196h146l-146.5 535l-150.5 552h295l194 -901l193 901h294l-299 -1087h150v-196h-194v-102h194v-199h-194v-259h-287z" />
    <glyph glyph-name="brokenbar" unicode="&#xa6;" horiz-adv-x="441" 
d="M98 -15v665h234v-665h-234zM98 900v665h234v-665h-234z" />
    <glyph glyph-name="section" unicode="&#xa7;" horiz-adv-x="1028" 
d="M592.5 254.5c20.333 20.333 30.5049 47.4971 30.5049 81.4971s-6 64.333 -18 91s-28 49.667 -48 69s-42.833 37.5 -68.5 54.5s-52.834 33.167 -81.501 48.5l-86.5 46.5c-29 15.667 -56.333 33.334 -82 53.001s-48.5 40.834 -68.5 63.501c-44 50 -66 110.667 -66 182
c0 148 58 252.333 174 313c-116 74 -174 156.333 -174 247c0 118 39.333 207.667 118 269c75.333 58.667 168.666 88 279.999 88s201.5 -33.667 270.5 -101s116.167 -155.333 141.5 -264l-220 -73c-50 130.667 -112 196 -186 196c-36 0 -64.167 -10.167 -84.5 -30.5
s-30.5 -45.333 -30.5 -75s7 -54 21 -73s28.833 -33.167 44.5 -42.5s37.167 -20.833 64.5 -34.5s55 -29 83 -46s59.667 -38.833 95 -65.5s69.666 -58 102.999 -94c70.667 -74.667 106 -158.334 106 -251.001c0 -130 -49.667 -226.667 -149 -290
c99.333 -86 149 -182.667 149 -290s-37.5 -191.666 -112.5 -252.999s-169 -92 -282 -92s-203.333 33.5 -271 100.5s-115.5 155.5 -143.5 265.5l221 73c30.667 -89.333 70.667 -148.666 120 -177.999c21.333 -12.667 46.666 -19 75.999 -19s54.166 10.167 74.499 30.5z
M541.005 794.997c54.667 29.333 82 63.832 82 103.499s-35.333 89.834 -106 150.501l-43 35c-23.333 -14.667 -42.666 -34 -57.999 -58s-23 -47.333 -23 -70s5.66699 -42.5 17 -59.5s22.666 -29.833 33.999 -38.5s28.833 -20.167 52.5 -34.5s38.5 -23.833 44.5 -28.5z" />
    <glyph glyph-name="dieresis" unicode="&#xa8;" horiz-adv-x="927" 
d="M116 1492v308h303v-308h-303zM569 1492v308h304v-308h-304z" />
    <glyph glyph-name="copyright" unicode="&#xa9;" horiz-adv-x="1619" 
d="M803 398c62 0 93.002 62.666 93.002 187.999v28h210c0 -119.333 -24.667 -215 -74 -287s-125.666 -108 -228.999 -108c-98 0 -170 26 -216 78c-32 36 -52.833 71 -62.5 105s-16.334 61.167 -20.001 81.5s-6.5 45.833 -8.5 76.5c-2.66699 41.333 -4 86.5 -4 135.5
s0.166992 83.5 0.5 103.5s1.5 46.333 3.5 79s4.83301 59 8.5 79s9.16699 43.5 16.5 70.5s16.166 48.833 26.499 65.5s23.666 34.167 39.999 52.5s34.833 32.5 55.5 42.5c48 23.333 101.667 35 161 35s109 -9.83301 149 -29.5s71 -47.5 93 -83.5
c41.333 -67.333 62 -153.666 62 -258.999h-214c0 68.667 -4 113.334 -12 134.001c-17.333 42 -40.666 63 -69.999 63c-44.667 0 -76.667 -22.667 -96 -68s-29 -122 -29 -230s4.83301 -186.833 14.5 -236.5s22.167 -81.334 37.5 -95.001s36.666 -20.5 63.999 -20.5z
M533.502 241.999c79.667 -52.667 162.167 -78.9961 247.5 -78.9961s160.333 15.5 225 46.5s119.167 72.167 163.5 123.5s79.333 110.666 105 177.999s38.5 136.666 38.5 207.999s-12.833 140.666 -38.5 207.999s-60.667 126.666 -105 177.999s-98.833 92.5 -163.5 123.5
s-139.667 46.5 -225 46.5s-167.833 -26.333 -247.5 -79s-141.167 -121.167 -184.5 -205.5s-65 -174.833 -65 -271.5s21.667 -187.167 65 -271.5s104.833 -152.833 184.5 -205.5zM799.002 -14.9971c-98.667 0 -192.5 19.8311 -281.5 59.498s-165.167 92.834 -228.5 159.501
s-113.5 145.167 -150.5 235.5s-55.5 184.666 -55.5 282.999s18.5 192.833 55.5 283.5s87.167 169.334 150.5 236.001s139.5 119.834 228.5 159.501s182.833 59.5 281.5 59.5c132 0 253.167 -33.667 363.5 -101s196.833 -157.5 259.5 -270.5s94 -235 94 -366
s-31.333 -253 -94 -366s-149.167 -203.333 -259.5 -271s-231.5 -101.5 -363.5 -101.5z" />
    <glyph glyph-name="ordfeminine" unicode="&#xaa;" horiz-adv-x="906" 
d="M554 0v84.9971c-21.333 -29.333 -49.166 -52.666 -83.499 -69.999s-74.833 -26 -121.5 -26s-90.667 20.667 -132 62s-62 85.666 -62 132.999s8.33301 86.666 25 117.999s34 56.333 52 75c18.667 18.667 48.667 38 90 58c64 30.667 135.333 57.334 214 80.001v86
c0 83.333 -21 125 -63 125c-51.333 0 -77 -50.667 -77 -152h-208c1.33301 92.667 27.166 170.334 77.499 233.001s120.833 94 211.5 94c106 0.666992 181 -32.333 225 -99c41.333 -62 63.333 -142.667 66 -242c1.33301 -41.333 2 -80.333 2 -117
c0 -51.333 -1.33301 -98.333 -4 -141c-2.66699 -45.333 -4 -86.666 -4 -123.999c0 -75.333 5.33301 -134.666 16 -177.999h-224zM380 243.997c0 -47.333 19.333 -71.001 58 -71.001c20 0 39 6.33301 57 19s31.667 28.334 41 47.001v164l-38.5 -22.5
c-6.33301 -3.66699 -19 -12 -38 -25s-32.833 -24.167 -41.5 -33.5c-25.333 -27.333 -38 -53.333 -38 -78z" />
    <glyph glyph-name="guillemotleft" unicode="&#xab;" horiz-adv-x="1054" 
d="M527 64l-448 512v128l448 512v-320l-256 -255l256 -257v-320zM975 64l-448 512v128l448 512v-320l-256 -255l256 -257v-320z" />
    <glyph glyph-name="logicalnot" unicode="&#xac;" horiz-adv-x="829" 
d="M136 453v223h547v-417h-158v194h-389z" />
    <glyph glyph-name="uni00AD" unicode="&#xad;" horiz-adv-x="804" 
d="M142 433v255h541v-255h-541z" />
    <glyph glyph-name="registered" unicode="&#xae;" horiz-adv-x="1619" 
d="M1101 269c66 52 117.833 117.834 155.5 197.501s56.5 159.5 56.5 239.5s-12.833 153.667 -38.5 221s-60.667 126.666 -105 177.999s-98.833 92.5 -163.5 123.5s-137 46.5 -217 46.5s-157.667 -21.667 -233 -65h235c191.333 0 287 -97.333 287 -292
c0 -106.667 -42 -185.334 -126 -236.001c11.333 -59.333 27.333 -115.166 48 -167.499l60.5 -148.5zM799 -14.999c-98.667 0 -192.5 19.8311 -281.5 59.498s-165.167 92.834 -228.5 159.501s-113.5 145.167 -150.5 235.5s-55.5 184.666 -55.5 282.999
s18.5 192.833 55.5 283.5s87.167 169.334 150.5 236.001s139.5 119.834 228.5 159.501s182.833 59.5 281.5 59.5c132 0 253.167 -33.667 363.5 -101s196.833 -157.5 259.5 -270.5s94 -235 94 -366s-31.333 -253 -94 -366s-149.167 -203.333 -259.5 -271
s-231.5 -101.5 -363.5 -101.5zM534 250.999v946c-76.667 -50 -137.5 -117.833 -182.5 -203.5s-67.5 -177 -67.5 -274s21.667 -187.667 65 -272s104.833 -152.833 184.5 -205.5s169.5 -79 269.5 -79s191.667 29.333 275 88h-171l-129 390h-58v-390h-186zM720 765.999
c61.333 0 104.667 11.168 130 33.501s38 63.166 38 122.499c0 93.333 -37 140 -111 140h-57v-296z" />
    <glyph glyph-name="macron" unicode="&#xaf;" horiz-adv-x="429" 
d="M-36 1457v193h507v-193h-507z" />
    <glyph glyph-name="degree" unicode="&#xb0;" horiz-adv-x="1095" 
d="M835 1164.5c-72.667 -73 -170.833 -109.5 -294.5 -109.5s-221.667 36.667 -294 110s-108.5 171.5 -108.5 294.5s36.333 220.667 109 293s170.5 108.5 293.5 108.5s221 -36.333 294 -109s109.5 -170.5 109.5 -293.5s-36.333 -221 -109 -294zM408.001 1314
c32 -39.333 76.167 -59.002 132.5 -59.002s100.333 19.5 132 58.5s47.5 87.333 47.5 145s-15.667 105.667 -47 144s-75.5 57.5 -132.5 57.5s-101.333 -19.167 -133 -57.5s-47.5 -86.166 -47.5 -143.499s16 -105.666 48 -144.999z" />
    <glyph glyph-name="plusminus" unicode="&#xb1;" horiz-adv-x="895" 
d="M137 0v223h610v-223h-610zM330 389v194h-193v223h193v194h224v-194h193v-223h-193v-194h-224z" />
    <glyph glyph-name="uni00B2" unicode="&#xb2;" horiz-adv-x="696" 
d="M293 1263v-32h-223c0 88 23.667 157.833 71 209.5s114.333 77.5 201 77.5s154.167 -24.167 202.5 -72.5s72.5 -115.166 72.5 -200.499c0 -58.667 -29 -130.334 -87 -215.001c-44.667 -65.333 -90.5 -126.5 -137.5 -183.5l-85.5 -104.5h310v-159h-547v148
c1.33301 1.33301 23.5 28.166 66.5 80.499l114 143.5c33 43.333 65.167 93.833 96.5 151.5s47 103.834 47 138.501v30c0 56.667 -16.833 85 -50.5 85s-50.5 -32.333 -50.5 -97z" />
    <glyph glyph-name="uni00B3" unicode="&#xb3;" horiz-adv-x="829" 
d="M358 1328v-32.0029h-222c0 88 23.5 157.833 70.5 209.5s114 77.5 201 77.5s154.667 -24.167 203 -72.5s72.5 -117.5 72.5 -207.5s-44 -152.667 -132 -188c88 -36 132 -98.667 132 -188s-24.167 -158.166 -72.5 -206.499s-116 -72.5 -203 -72.5s-154 25.667 -201 77
s-70.5 121.333 -70.5 210h222v-33c0 -64 17 -96 51 -96c24.667 0 39.667 13.333 45 40c4 19.333 6 36 6 50v25c0 46 -9.5 76.833 -28.5 92.5s-52.833 23.5 -101.5 23.5v158c49.333 0 83.333 7.83301 102 23.5s28 46.334 28 92.001s-4 76.334 -12 92.001s-21 23.5 -39 23.5
c-34 0 -51 -32.667 -51 -98z" />
    <glyph glyph-name="acute" unicode="&#xb4;" horiz-adv-x="638" 
d="M113 1393l136 442h345l-277 -442h-204z" />
    <glyph glyph-name="paragraph" unicode="&#xb6;" horiz-adv-x="1020" 
d="M394 0l0.000976562 887.001c-108 2.66699 -196.833 34.667 -266.5 96s-104.5 144.666 -104.5 249.999c0.666992 178 87.667 288.333 261 331c49.333 12 104.666 18.333 165.999 19h493v-1583h-209v887h-113v-887h-227z" />
    <glyph glyph-name="periodcentered" unicode="&#xb7;" horiz-adv-x="520" 
d="M99 679v315h323v-315h-323z" />
    <glyph glyph-name="cedilla" unicode="&#xb8;" horiz-adv-x="585" 
d="M190 -401c109.333 0 163.667 14.333 163 43c0 14 -4.16699 25.167 -12.5 33.5l-20.5 20c-5.33301 5 -12.666 10 -21.999 15l-23 12.5c-6 3.33301 -14.5 7.16602 -25.5 11.499s-18.667 7.5 -23 9.5s-11.5 4.66699 -21.5 8s-15.667 5.33301 -17 6v242h171v-129
c147.333 -69.333 221 -147 221 -233c0 -78.667 -44.667 -132.667 -134 -162c-74.667 -25.333 -179.334 -37.666 -314.001 -36.999v161z" />
    <glyph glyph-name="uni00B9" unicode="&#xb9;" horiz-adv-x="562" 
d="M198 648l-0.000976562 583h-129v153c116.667 58.667 205.334 125 266.001 199h86v-935h-223z" />
    <glyph glyph-name="ordmasculine" unicode="&#xba;" horiz-adv-x="965" 
d="M114 430l-0.000976562 322c0 219.333 63.333 356.666 190 411.999c49.333 21.333 107.833 32 175.5 32s125.834 -11.667 174.501 -35c49.333 -23.333 88 -55.666 116 -96.999c54.667 -80 82 -184 82 -312v-322c0 -129.333 -27.333 -234 -82 -314
c-60 -87.333 -155.667 -131 -287 -131c-140 0 -237.667 42 -293 126c-50.667 76.667 -76 183 -76 319zM593.999 471v238.999c0 4.66699 0.166992 15.667 0.5 33s0.333008 30 0 38l-1.5 36.5c-0.666992 16.333 -2.16699 29 -4.5 38l-8.5 33.5
c-3.33301 13.333 -8 23.666 -14 30.999c-5.33301 6.66699 -12 14 -20 22c-14.667 14.667 -34.5 22 -59.5 22s-44.833 -3.33301 -59.5 -10s-26.167 -17.167 -34.5 -31.5s-15 -27.666 -20 -39.999s-8.5 -29.833 -10.5 -52.5c-2.66699 -30.667 -4 -56.334 -4 -77.001v-282
c0 -75.333 3.33301 -127 10 -155c16.667 -66 53.334 -99.333 110.001 -100c30.667 0 51.5 5.5 62.5 16.5s19.5 20.167 25.5 27.5s10.667 17.833 14 31.5s6.16602 24.834 8.49902 33.501s3.83301 21.334 4.5 38.001l1.5 37c0.333008 8 0.333008 20.667 0 38
s-0.5 28.333 -0.5 33z" />
    <glyph glyph-name="guillemotright" unicode="&#xbb;" horiz-adv-x="1054" 
d="M527 64v320l256 257l-256 255v320l448 -512v-128zM79 64v320l256 257l-256 255v320l448 -512v-128z" />
    <glyph glyph-name="onequarter" unicode="&#xbc;" horiz-adv-x="1695" 
d="M198 648l-0.000976562 583h-129v153c116.667 58.667 205.334 125 266.001 199h86v-935h-223zM423.999 0l577 1835h180l-578 -1835h-179zM935.999 244v148l351 593h195v-583h130v-158h-130v-259h-222v259h-324zM1167 402h93v184z" />
    <glyph glyph-name="onehalf" unicode="&#xbd;" horiz-adv-x="1694" 
d="M198 648l-0.000976562 583h-129v153c116.667 58.667 205.334 125 266.001 199h86v-935h-223zM423.999 0l577 1835h180l-578 -1835h-179zM1291 665v-32h-223c0 88 23.667 157.833 71 209.5s114.333 77.5 201 77.5s154.167 -24.167 202.5 -72.5
s72.5 -115.166 72.5 -200.499c0 -58.667 -29 -130.334 -87 -215.001c-44.667 -65.333 -90.5 -126.5 -137.5 -183.5l-85.5 -104.5h310v-159h-547v148c1.33301 1.33301 23.5 28.166 66.5 80.499l114 143.5c33 43.333 65.167 93.833 96.5 151.5s47 103.834 47 138.501v30
c0 56.667 -16.833 85 -50.5 85s-50.5 -32.333 -50.5 -97z" />
    <glyph glyph-name="threequarters" unicode="&#xbe;" horiz-adv-x="1895" 
d="M358 1328v-32.0029h-222c0 88 23.5 157.833 70.5 209.5s114 77.5 201 77.5s154.667 -24.167 203 -72.5s72.5 -117.5 72.5 -207.5s-44 -152.667 -132 -188c88 -36 132 -98.667 132 -188s-24.167 -158.166 -72.5 -206.499s-116 -72.5 -203 -72.5s-154 25.667 -201 77
s-70.5 121.333 -70.5 210h222v-33c0 -64 17 -96 51 -96c24.667 0 39.667 13.333 45 40c4 19.333 6 36 6 50v25c0 46 -9.5 76.833 -28.5 92.5s-52.833 23.5 -101.5 23.5v158c49.333 0 83.333 7.83301 102 23.5s28 46.334 28 92.001s-4 76.334 -12 92.001s-21 23.5 -39 23.5
c-34 0 -51 -32.667 -51 -98zM1069 243.997v148l351 593h195v-583h130v-158h-130v-259h-222v259h-324zM1300 401.997h93v184zM587 -0.00292969l577 1835h180l-578 -1835h-179z" />
    <glyph glyph-name="questiondown" unicode="&#xbf;" horiz-adv-x="1182" 
d="M475 -97c0 -92.667 42.002 -138.996 126.002 -138.996c37.333 0 65.5 15.167 84.5 45.5s28.5 67.166 28.5 110.499s-6.33301 85.666 -19 126.999l314 60c19.333 -74 29 -144 29 -210c0 -128 -36.333 -231.167 -109 -309.5s-182.334 -117.5 -329.001 -117.5
s-260.334 39.167 -341.001 117.5s-121 186.166 -121 323.499s31.167 261.333 93.5 372s148.833 198 259.5 262v280h334v-388c-89.333 -60.667 -168.333 -136 -237 -226c-75.333 -98.667 -113 -201.334 -113 -308.001zM825.002 1305v-324h-334v324h334z" />
    <glyph glyph-name="Agrave" unicode="&#xc0;" horiz-adv-x="1135" 
d="M9 0l389 1800h322l388 -1800h-359l-74 385h-235l-70 -385h-361zM465 609h186l-91 668zM465 1937l-277 442h346l136 -442h-205z" />
    <glyph glyph-name="Aacute" unicode="&#xc1;" horiz-adv-x="1135" 
d="M9 0l389 1800h322l388 -1800h-359l-74 385h-235l-70 -385h-361zM465 609h186l-91 668zM465 1937l136 442h345l-277 -442h-204z" />
    <glyph glyph-name="Acircumflex" unicode="&#xc2;" horiz-adv-x="1135" 
d="M9 0l389 1800h322l388 -1800h-359l-74 385h-235l-70 -385h-361zM465 609h186l-91 668zM219 1937l201 406h290l206 -406h-275l-75 202l-73 -202h-274z" />
    <glyph glyph-name="Atilde" unicode="&#xc3;" horiz-adv-x="1135" 
d="M9 0l389 1800h322l388 -1800h-359l-74 385h-235l-70 -385h-361zM465 609h186l-91 668zM396 1948h-166.995c0.666992 112 17.667 191.333 51 238c29.333 40.667 71.166 61 125.499 61s115.666 -9.66699 183.999 -29s109.166 -29 122.499 -29
c13.333 -0.666992 22.666 1.66602 27.999 7c6.66699 6 10 19 10 39h155c0 -198.667 -52 -298 -156 -298c-33.333 0 -84.5 12.167 -153.5 36.5s-113.833 36.5 -134.5 36.5s-34.334 -1.5 -41.001 -4.5s-11.5 -5.83301 -14.5 -8.5s-5.33301 -8 -7 -16s-2.5 -13 -2.5 -15v-18z
" />
    <glyph glyph-name="Adieresis" unicode="&#xc4;" horiz-adv-x="1135" 
d="M9 0l389 1800h322l388 -1800h-359l-74 385h-235l-70 -385h-361zM465 609h186l-91 668zM189 1937v308h303v-308h-303zM642 1937v308h304v-308h-304z" />
    <glyph glyph-name="Aring" unicode="&#xc5;" horiz-adv-x="1135" 
d="M9 0l389 1800h322l388 -1800h-359l-74 385h-235l-70 -385h-361zM465 609h186l-91 668zM527 2007c13.333 -24.667 33.333 -37.001 60 -37.001s46.5 12.333 59.5 37s19.5 51.334 19.5 80.001s-6.5 55.667 -19.5 81s-32.667 38 -59 38s-46.333 -12.333 -60 -37
s-20.5 -51.667 -20.5 -81s6.66699 -56.333 20 -81zM335 2088c0 72.667 23.833 130.667 71.5 174s108.167 65 181.5 65s133.833 -21.667 181.5 -65s71.5 -101.333 71.5 -174s-23.833 -130.667 -71.5 -174s-108.167 -65 -181.5 -65s-133.833 21.667 -181.5 65
s-71.5 101.333 -71.5 174z" />
    <glyph glyph-name="AE" unicode="&#xc6;" horiz-adv-x="1609" 
d="M44 0l773 1800h761v-250h-387v-490h274v-256h-274v-554h387v-250h-724v385h-284l-142 -385h-384zM643 609h211v574z" />
    <glyph glyph-name="Ccedilla" unicode="&#xc7;" horiz-adv-x="1174" 
d="M84 601l-0.00292969 595.997c0 425.333 174 638 522 638c210.667 0 355.334 -79.667 434.001 -239c46.667 -95.333 70.334 -215.666 71.001 -360.999v-155h-358v166c0.666992 113.333 -11 193.333 -35 240c-37.333 38.667 -74.666 61.334 -111.999 68.001
c-105.333 0 -158 -88.667 -158 -266v-777c0 -176.667 52.667 -265 158 -265c64 0 105.667 34.667 125 104c16 56.667 24 125 24 205v185h356v-152c-4.66699 -228 -57.667 -394 -159 -498c-82 -83.333 -197.333 -125 -346 -125
c-221.333 0.666992 -372.333 88.334 -453 263.001c-46 100 -69 224.333 -69 373zM513.997 -417.003c109.333 0 163.667 14.333 163 43c0 14 -4.16699 25.167 -12.5 33.5l-20.5 20c-5.33301 5 -12.666 10 -21.999 15l-23 12.5c-6 3.33301 -14.5 7.16602 -25.5 11.499
s-18.667 7.5 -23 9.5s-11.5 4.66699 -21.5 8s-15.667 5.33301 -17 6v242h171v-129c147.333 -69.333 221 -147 221 -233c0 -78.667 -44.667 -132.667 -134 -162c-74.667 -25.333 -179.334 -37.666 -314.001 -36.999v161z" />
    <glyph glyph-name="Egrave" unicode="&#xc8;" horiz-adv-x="889" 
d="M107 0v1800h751v-250h-387v-490h274v-256h-274v-554h387v-250h-751zM380 1937l-277 442h346l136 -442h-205z" />
    <glyph glyph-name="Eacute" unicode="&#xc9;" horiz-adv-x="889" 
d="M107 0v1800h751v-250h-387v-490h274v-256h-274v-554h387v-250h-751zM381 1937l136 442h345l-277 -442h-204z" />
    <glyph glyph-name="Ecircumflex" unicode="&#xca;" horiz-adv-x="889" 
d="M107 0v1800h751v-250h-387v-490h274v-256h-274v-554h387v-250h-751zM134 1937l201 406h290l206 -406h-275l-75 202l-73 -202h-274z" />
    <glyph glyph-name="Edieresis" unicode="&#xcb;" horiz-adv-x="889" 
d="M107 0v1800h751v-250h-387v-490h274v-256h-274v-554h387v-250h-751zM104 1937v308h303v-308h-303zM557 1937v308h304v-308h-304z" />
    <glyph glyph-name="Igrave" unicode="&#xcc;" horiz-adv-x="578" 
d="M107 0v1800h364v-1800h-364zM187 1937l-277 442h346l136 -442h-205z" />
    <glyph glyph-name="Iacute" unicode="&#xcd;" horiz-adv-x="578" 
d="M107 0v1800h364v-1800h-364zM187 1937l136 442h345l-277 -442h-204z" />
    <glyph glyph-name="Icircumflex" unicode="&#xce;" horiz-adv-x="578" 
d="M107 0v1800h364v-1800h-364zM-59 1937l201 406h290l206 -406h-275l-75 202l-73 -202h-274z" />
    <glyph glyph-name="Idieresis" unicode="&#xcf;" horiz-adv-x="578" 
d="M107 0v1800h364v-1800h-364zM-90 1937v308h303v-308h-303zM363 1937v308h304v-308h-304z" />
    <glyph glyph-name="Eth" unicode="&#xd0;" horiz-adv-x="1156" 
d="M97 0v828.999h-92v183h92v788h376c120 0 218.833 -10.833 296.5 -32.5s138.667 -57.334 183 -107.001s75 -109.167 92 -178.5s25.5 -157.666 25.5 -264.999v-590c0 -200.667 -24.667 -341.667 -74 -423c-44 -73.333 -104.667 -124.666 -182 -153.999
c-88 -33.333 -203 -50 -345 -50h-372zM461 254.999l15.001 0.000976562c96.667 0.666992 157.667 9.66699 183 27c23.333 16.667 37 38.167 41 64.5s6 53.166 6 80.499v969c0 60 -17.833 99.5 -53.5 118.5s-95.834 28.833 -180.501 29.5h-11v-532h124v-183h-124v-574z" />
    <glyph glyph-name="Ntilde" unicode="&#xd1;" horiz-adv-x="1173" 
d="M107 0v1801h262l395 -942v942h302v-1801h-252l-394 999v-999h-313zM416 1948h-166.995c0.666992 112 17.667 191.333 51 238c29.333 40.667 71.166 61 125.499 61s115.666 -9.66699 183.999 -29s109.166 -29 122.499 -29c13.333 -0.666992 22.666 1.66602 27.999 7
c6.66699 6 10 19 10 39h155c0 -198.667 -52 -298 -156 -298c-33.333 0 -84.5 12.167 -153.5 36.5s-113.833 36.5 -134.5 36.5s-34.334 -1.5 -41.001 -4.5s-11.5 -5.83301 -14.5 -8.5s-5.33301 -8 -7 -16s-2.5 -13 -2.5 -15v-18z" />
    <glyph glyph-name="Ograve" unicode="&#xd2;" horiz-adv-x="1221" 
d="M773 1288c0 177.333 -54.167 266 -162.5 266s-162.5 -88.667 -162.5 -266v-778c0 -176.667 54.167 -265 162.5 -265s162.5 88.333 162.5 265v778zM84 592l0.000976562 605.001c0 425.333 175.5 638 526.5 638s526.5 -212.667 526.5 -638v-596
c0 -324.667 -106.333 -525.667 -319 -603c-60.667 -22 -129.834 -33 -207.501 -33s-146.834 10.833 -207.501 32.5s-110.667 51.167 -150 88.5s-71.666 82.666 -96.999 135.999c-48 100 -72 223.333 -72 370zM508.001 1937l-277 442h346l136 -442h-205z" />
    <glyph glyph-name="Oacute" unicode="&#xd3;" horiz-adv-x="1221" 
d="M773 1288c0 177.333 -54.167 266 -162.5 266s-162.5 -88.667 -162.5 -266v-778c0 -176.667 54.167 -265 162.5 -265s162.5 88.333 162.5 265v778zM84 592l0.000976562 605.001c0 425.333 175.5 638 526.5 638s526.5 -212.667 526.5 -638v-596
c0 -324.667 -106.333 -525.667 -319 -603c-60.667 -22 -129.834 -33 -207.501 -33s-146.834 10.833 -207.501 32.5s-110.667 51.167 -150 88.5s-71.666 82.666 -96.999 135.999c-48 100 -72 223.333 -72 370zM509.001 1937l136 442h345l-277 -442h-204z" />
    <glyph glyph-name="Ocircumflex" unicode="&#xd4;" horiz-adv-x="1221" 
d="M773 1288c0 177.333 -54.167 266 -162.5 266s-162.5 -88.667 -162.5 -266v-778c0 -176.667 54.167 -265 162.5 -265s162.5 88.333 162.5 265v778zM84 592l0.000976562 605.001c0 425.333 175.5 638 526.5 638s526.5 -212.667 526.5 -638v-596
c0 -324.667 -106.333 -525.667 -319 -603c-60.667 -22 -129.834 -33 -207.501 -33s-146.834 10.833 -207.501 32.5s-110.667 51.167 -150 88.5s-71.666 82.666 -96.999 135.999c-48 100 -72 223.333 -72 370zM262.001 1937l201 406h290l206 -406h-275l-75 202l-73 -202h-274
z" />
    <glyph glyph-name="Otilde" unicode="&#xd5;" horiz-adv-x="1221" 
d="M773 1288c0 177.333 -54.167 266 -162.5 266s-162.5 -88.667 -162.5 -266v-778c0 -176.667 54.167 -265 162.5 -265s162.5 88.333 162.5 265v778zM84 592l0.000976562 605.001c0 425.333 175.5 638 526.5 638s526.5 -212.667 526.5 -638v-596
c0 -324.667 -106.333 -525.667 -319 -603c-60.667 -22 -129.834 -33 -207.501 -33s-146.834 10.833 -207.501 32.5s-110.667 51.167 -150 88.5s-71.666 82.666 -96.999 135.999c-48 100 -72 223.333 -72 370zM440.001 1948l-166.995 0.000976562
c0.666992 112 17.667 191.333 51 238c29.333 40.667 71.166 61 125.499 61s115.666 -9.66699 183.999 -29s109.166 -29 122.499 -29c13.333 -0.666992 22.666 1.66602 27.999 6.99902c6.66699 6 10 19 10 39h155c0 -198.667 -52 -298 -156 -298
c-33.333 0 -84.5 12.167 -153.5 36.5s-113.833 36.5 -134.5 36.5s-34.334 -1.5 -41.001 -4.5s-11.5 -5.83301 -14.5 -8.5s-5.33301 -8 -7 -16s-2.5 -13 -2.5 -15v-18z" />
    <glyph glyph-name="Odieresis" unicode="&#xd6;" horiz-adv-x="1221" 
d="M773 1288c0 177.333 -54.167 266 -162.5 266s-162.5 -88.667 -162.5 -266v-778c0 -176.667 54.167 -265 162.5 -265s162.5 88.333 162.5 265v778zM84 592l0.000976562 605.001c0 425.333 175.5 638 526.5 638s526.5 -212.667 526.5 -638v-596
c0 -324.667 -106.333 -525.667 -319 -603c-60.667 -22 -129.834 -33 -207.501 -33s-146.834 10.833 -207.501 32.5s-110.667 51.167 -150 88.5s-71.666 82.666 -96.999 135.999c-48 100 -72 223.333 -72 370zM232.001 1937v308h303v-308h-303zM685.001 1937v308h304v-308
h-304z" />
    <glyph glyph-name="multiply" unicode="&#xd7;" horiz-adv-x="829" 
d="M65 468l194 194l-194 194l150 151l194 -195l195 195l149 -151l-194 -194l194 -194l-149 -150l-195 195l-194 -195z" />
    <glyph glyph-name="Oslash" unicode="&#xd8;" horiz-adv-x="1221" 
d="M258 -250l76.001 277c-166.667 92.667 -250 281 -250 565v605c0 425.333 175.333 638 526 638c79.333 0 150 -11.333 212 -34l73 266l97 -20l-80 -290c150 -98 225 -284.667 225 -560v-596c0 -324.667 -106.333 -525.667 -319 -603
c-60.667 -22 -127.334 -33 -200.001 -33s-137 8.33301 -193 25l-71 -260zM610.001 1554c-108 0 -162 -88.667 -162 -266v-787c0 -176.667 54.167 -265 162.5 -265s162.5 88.333 162.5 265l-1 787c0 177.333 -54 266 -162 266z" />
    <glyph glyph-name="Ugrave" unicode="&#xd9;" 
d="M99 669l-0.00683594 1131h364v-1120c0 -188.667 5 -295.5 15 -320.5s20.833 -47.167 32.5 -66.5s26.834 -32 45.501 -38s41.334 -9 68.001 -9s49.334 3 68.001 9s33.834 18.5 45.501 37.5s20.834 36.833 27.501 53.5c6.66699 16 11.334 44.667 14.001 86
c4 61.333 6 117.666 6 168.999v1199h364v-1131c0 -190 -20.667 -334.333 -62 -433c-36.667 -88 -89.667 -153.667 -159 -197c-79.333 -49.333 -180.666 -74 -303.999 -74c-232.667 0.666992 -386.667 91 -462 271c-42 100 -63 244.333 -63 433zM520.993 1937l-277 442h346
l136 -442h-205z" />
    <glyph glyph-name="Uacute" unicode="&#xda;" 
d="M99 669l-0.00683594 1131h364v-1120c0 -188.667 5 -295.5 15 -320.5s20.833 -47.167 32.5 -66.5s26.834 -32 45.501 -38s41.334 -9 68.001 -9s49.334 3 68.001 9s33.834 18.5 45.501 37.5s20.834 36.833 27.501 53.5c6.66699 16 11.334 44.667 14.001 86
c4 61.333 6 117.666 6 168.999v1199h364v-1131c0 -190 -20.667 -334.333 -62 -433c-36.667 -88 -89.667 -153.667 -159 -197c-79.333 -49.333 -180.666 -74 -303.999 -74c-232.667 0.666992 -386.667 91 -462 271c-42 100 -63 244.333 -63 433zM521.993 1937l136 442h345
l-277 -442h-204z" />
    <glyph glyph-name="Ucircumflex" unicode="&#xdb;" 
d="M99 669l-0.00683594 1131h364v-1120c0 -188.667 5 -295.5 15 -320.5s20.833 -47.167 32.5 -66.5s26.834 -32 45.501 -38s41.334 -9 68.001 -9s49.334 3 68.001 9s33.834 18.5 45.501 37.5s20.834 36.833 27.501 53.5c6.66699 16 11.334 44.667 14.001 86
c4 61.333 6 117.666 6 168.999v1199h364v-1131c0 -190 -20.667 -334.333 -62 -433c-36.667 -88 -89.667 -153.667 -159 -197c-79.333 -49.333 -180.666 -74 -303.999 -74c-232.667 0.666992 -386.667 91 -462 271c-42 100 -63 244.333 -63 433zM274.993 1937l201 406h290
l206 -406h-275l-75 202l-73 -202h-274z" />
    <glyph glyph-name="Udieresis" unicode="&#xdc;" 
d="M99 669l-0.00683594 1131h364v-1120c0 -188.667 5 -295.5 15 -320.5s20.833 -47.167 32.5 -66.5s26.834 -32 45.501 -38s41.334 -9 68.001 -9s49.334 3 68.001 9s33.834 18.5 45.501 37.5s20.834 36.833 27.501 53.5c6.66699 16 11.334 44.667 14.001 86
c4 61.333 6 117.666 6 168.999v1199h364v-1131c0 -190 -20.667 -334.333 -62 -433c-36.667 -88 -89.667 -153.667 -159 -197c-79.333 -49.333 -180.666 -74 -303.999 -74c-232.667 0.666992 -386.667 91 -462 271c-42 100 -63 244.333 -63 433zM245.993 1937v308h303v-308
h-303zM698.993 1937v308h304v-308h-304z" />
    <glyph glyph-name="Yacute" unicode="&#xdd;" horiz-adv-x="1035" 
d="M510 1009l185 791h333l-339 -1205v-595h-352v595l-338 1205h343zM415 1937l136 442h345l-277 -442h-204z" />
    <glyph glyph-name="Thorn" unicode="&#xde;" horiz-adv-x="1020" 
d="M97 0v1800h383v-236h52c156.667 0 270.667 -43.667 342 -131s107 -213.666 107 -378.999c-0.666992 -230 -65 -380.667 -193 -452c-76.667 -42.667 -181 -65.334 -313 -68.001v-534h-378zM481 791c54 0.666992 94.3359 13.666 121.003 38.999
c19.333 17.333 30.333 58 33 122c0.666992 20 1 42.667 1 68v41c0 75.333 -2.16699 120 -6.5 134s-8.83301 27.667 -13.5 41s-10.834 23.333 -18.501 30s-16.834 13.334 -27.501 20.001c-18.667 12 -48.334 18.333 -89.001 19v-514z" />
    <glyph glyph-name="germandbls" unicode="&#xdf;" horiz-adv-x="1193" 
d="M99 0l0.000976562 1358c0 166 53.333 293.333 160 382c75.333 62.667 175.666 94 300.999 94c152 0 266.833 -42.333 344.5 -127s116.5 -204 116.5 -358c0 -183.333 -85 -307.333 -255 -372c140.667 -38.667 241.667 -120.334 303 -245.001c35.333 -72 53 -151 53 -237
c0 -179.333 -48.667 -312.5 -146 -399.5s-246.666 -130.5 -447.999 -130.5v250c98.667 -0.666992 163.667 25.666 195 78.999c28.667 48.667 43 122.334 43 221.001c0 198.667 -79 298.667 -237 300v253c29.333 0 55 8.66699 77 26s38.667 40.666 50 69.999
c22 56 33 106.167 33 150.5s-0.333008 74.333 -1 90s-2 33.5 -4 53.5s-5.5 36.667 -10.5 50s-11.5 26.333 -19.5 39c-15.333 25.333 -35.833 38 -61.5 38s-45.334 -3 -59.001 -9s-24.667 -15 -33 -27s-15 -24.167 -20 -36.5s-8.5 -28.5 -10.5 -48.5
c-3.33301 -32.667 -5 -66.334 -5 -101.001v-1363h-366z" />
    <glyph glyph-name="agrave" unicode="&#xe0;" horiz-adv-x="976" 
d="M620 0l-32.998 135c-19.333 -60.667 -51 -103.167 -95 -127.5s-94.333 -36.5 -151 -36.5s-103 9.33301 -139 28c-36 18 -64 43 -84 75c-40 62 -60 134.333 -60 217c0 131.333 36.667 236 110 314c48 51.333 97.333 90.666 148 117.999
c72.667 38.667 151 75.334 235 110.001v110c0 46 -5.66699 80.333 -17 103s-28.5 34 -51.5 34s-40.333 -3.83301 -52 -11.5s-19.834 -19.167 -24.501 -34.5c-7.33301 -24 -11 -54.333 -11 -91v-74h-327c0 150 37.667 265.167 113 345.5s184.666 120.5 327.999 120.5
c100 0 187.667 -36.333 263 -109s113 -159 113 -259v-620c0 -107.333 14.333 -223 43 -347h-308zM386.002 322c0 -64.667 22.667 -97 68 -97c25.333 0 49 12.333 71 37c6 6.66699 15 17.667 27 33v321c-110.667 -89.333 -166 -187.333 -166 -294zM391.002 1437l-277 442h346
l136 -442h-205z" />
    <glyph glyph-name="aacute" unicode="&#xe1;" horiz-adv-x="976" 
d="M620 0l-32.998 135c-19.333 -60.667 -51 -103.167 -95 -127.5s-94.333 -36.5 -151 -36.5s-103 9.33301 -139 28c-36 18 -64 43 -84 75c-40 62 -60 134.333 -60 217c0 131.333 36.667 236 110 314c48 51.333 97.333 90.666 148 117.999
c72.667 38.667 151 75.334 235 110.001v110c0 46 -5.66699 80.333 -17 103s-28.5 34 -51.5 34s-40.333 -3.83301 -52 -11.5s-19.834 -19.167 -24.501 -34.5c-7.33301 -24 -11 -54.333 -11 -91v-74h-327c0 150 37.667 265.167 113 345.5s184.666 120.5 327.999 120.5
c100 0 187.667 -36.333 263 -109s113 -159 113 -259v-620c0 -107.333 14.333 -223 43 -347h-308zM386.002 322c0 -64.667 22.667 -97 68 -97c25.333 0 49 12.333 71 37c6 6.66699 15 17.667 27 33v321c-110.667 -89.333 -166 -187.333 -166 -294zM391.002 1437l136 442h345
l-277 -442h-204z" />
    <glyph glyph-name="acircumflex" unicode="&#xe2;" horiz-adv-x="976" 
d="M620 0l-32.998 135c-19.333 -60.667 -51 -103.167 -95 -127.5s-94.333 -36.5 -151 -36.5s-103 9.33301 -139 28c-36 18 -64 43 -84 75c-40 62 -60 134.333 -60 217c0 131.333 36.667 236 110 314c48 51.333 97.333 90.666 148 117.999
c72.667 38.667 151 75.334 235 110.001v110c0 46 -5.66699 80.333 -17 103s-28.5 34 -51.5 34s-40.333 -3.83301 -52 -11.5s-19.834 -19.167 -24.501 -34.5c-7.33301 -24 -11 -54.333 -11 -91v-74h-327c0 150 37.667 265.167 113 345.5s184.666 120.5 327.999 120.5
c100 0 187.667 -36.333 263 -109s113 -159 113 -259v-620c0 -107.333 14.333 -223 43 -347h-308zM386.002 322c0 -64.667 22.667 -97 68 -97c25.333 0 49 12.333 71 37c6 6.66699 15 17.667 27 33v321c-110.667 -89.333 -166 -187.333 -166 -294zM145.002 1437l201 406h290
l206 -406h-275l-75 202l-73 -202h-274z" />
    <glyph glyph-name="atilde" unicode="&#xe3;" horiz-adv-x="976" 
d="M620 0l-32.998 135c-19.333 -60.667 -51 -103.167 -95 -127.5s-94.333 -36.5 -151 -36.5s-103 9.33301 -139 28c-36 18 -64 43 -84 75c-40 62 -60 134.333 -60 217c0 131.333 36.667 236 110 314c48 51.333 97.333 90.666 148 117.999
c72.667 38.667 151 75.334 235 110.001v110c0 46 -5.66699 80.333 -17 103s-28.5 34 -51.5 34s-40.333 -3.83301 -52 -11.5s-19.834 -19.167 -24.501 -34.5c-7.33301 -24 -11 -54.333 -11 -91v-74h-327c0 150 37.667 265.167 113 345.5s184.666 120.5 327.999 120.5
c100 0 187.667 -36.333 263 -109s113 -159 113 -259v-620c0 -107.333 14.333 -223 43 -347h-308zM386.002 322c0 -64.667 22.667 -97 68 -97c25.333 0 49 12.333 71 37c6 6.66699 15 17.667 27 33v321c-110.667 -89.333 -166 -187.333 -166 -294zM322.002 1448
l-166.995 0.000976562c0.666992 112 17.667 191.333 51 238c29.333 40.667 71.166 61 125.499 61s115.666 -9.66699 183.999 -29s109.166 -29 122.499 -29c13.333 -0.666992 22.666 1.66602 27.999 6.99902c6.66699 6 10 19 10 39h155c0 -198.667 -52 -298 -156 -298
c-33.333 0 -84.5 12.167 -153.5 36.5s-113.833 36.5 -134.5 36.5s-34.334 -1.5 -41.001 -4.5s-11.5 -5.83301 -14.5 -8.5s-5.33301 -8 -7 -16s-2.5 -13 -2.5 -15v-18z" />
    <glyph glyph-name="adieresis" unicode="&#xe4;" horiz-adv-x="976" 
d="M620 0l-32.998 135c-19.333 -60.667 -51 -103.167 -95 -127.5s-94.333 -36.5 -151 -36.5s-103 9.33301 -139 28c-36 18 -64 43 -84 75c-40 62 -60 134.333 -60 217c0 131.333 36.667 236 110 314c48 51.333 97.333 90.666 148 117.999
c72.667 38.667 151 75.334 235 110.001v110c0 46 -5.66699 80.333 -17 103s-28.5 34 -51.5 34s-40.333 -3.83301 -52 -11.5s-19.834 -19.167 -24.501 -34.5c-7.33301 -24 -11 -54.333 -11 -91v-74h-327c0 150 37.667 265.167 113 345.5s184.666 120.5 327.999 120.5
c100 0 187.667 -36.333 263 -109s113 -159 113 -259v-620c0 -107.333 14.333 -223 43 -347h-308zM386.002 322c0 -64.667 22.667 -97 68 -97c25.333 0 49 12.333 71 37c6 6.66699 15 17.667 27 33v321c-110.667 -89.333 -166 -187.333 -166 -294zM114.002 1437v308h303v-308
h-303zM567.002 1437v308h304v-308h-304z" />
    <glyph glyph-name="aring" unicode="&#xe5;" horiz-adv-x="976" 
d="M620 0l-32.998 135c-19.333 -60.667 -51 -103.167 -95 -127.5s-94.333 -36.5 -151 -36.5s-103 9.33301 -139 28c-36 18 -64 43 -84 75c-40 62 -60 134.333 -60 217c0 131.333 36.667 236 110 314c48 51.333 97.333 90.666 148 117.999
c72.667 38.667 151 75.334 235 110.001v110c0 46 -5.66699 80.333 -17 103s-28.5 34 -51.5 34s-40.333 -3.83301 -52 -11.5s-19.834 -19.167 -24.501 -34.5c-7.33301 -24 -11 -54.333 -11 -91v-74h-327c0 150 37.667 265.167 113 345.5s184.666 120.5 327.999 120.5
c100 0 187.667 -36.333 263 -109s113 -159 113 -259v-620c0 -107.333 14.333 -223 43 -347h-308zM386.002 322c0 -64.667 22.667 -97 68 -97c25.333 0 49 12.333 71 37c6 6.66699 15 17.667 27 33v321c-110.667 -89.333 -166 -187.333 -166 -294zM432.002 1595
c13.333 -24.667 33.333 -37.001 60 -37.001s46.5 12.333 59.5 37s19.5 51.334 19.5 80.001s-6.5 55.667 -19.5 81s-32.667 38 -59 38s-46.333 -12.333 -60 -37s-20.5 -51.667 -20.5 -81s6.66699 -56.333 20 -81zM240.002 1676c0 72.667 23.833 130.667 71.5 174
s108.167 65 181.5 65s133.833 -21.667 181.5 -65s71.5 -101.333 71.5 -174s-23.833 -130.667 -71.5 -174s-108.167 -65 -181.5 -65s-133.833 21.667 -181.5 65s-71.5 101.333 -71.5 174z" />
    <glyph glyph-name="ae" unicode="&#xe6;" horiz-adv-x="1427" 
d="M397 950l3 -81.002h-327c0 145.333 36.333 259.5 109 342.5s174 124.5 304 124.5l28 -1c36.667 -1.33301 74 -11.5 112 -30.5s68.667 -42.833 92 -71.5c30 30.667 68.5 55.334 115.5 74.001s96.5 28 148.5 28s102.833 -10.5 152.5 -31.5s91.167 -47.833 124.5 -80.5
c72.667 -71.333 109 -146.333 109 -225c0 -50 -12 -94.833 -36 -134.5s-50 -70.334 -78 -92.001s-67.667 -41.5 -119 -59.5s-88.833 -29.333 -112.5 -34l-74.5 -14c-26 -4.66699 -40.667 -7.16699 -44 -7.5s-6.66602 -0.833008 -9.99902 -1.5v-309
c0 -73.333 21.333 -110 64 -110c46.667 0 70 49.333 70 148l-3 102h334v-147c0 -109.333 -34.333 -196.5 -103 -261.5s-158 -100.5 -268 -106.5c-61.333 0 -120.333 16.5 -177 49.5s-92.667 74.5 -108 124.5c-29.333 -53.333 -74 -95.666 -134 -126.999
s-119.333 -47 -178 -47s-112.334 11.333 -161.001 34s-88.667 58.834 -120 108.501s-47 103 -47 160s4.5 103.833 13.5 140.5s20.333 68.5 34 95.5s33.167 51.667 58.5 74s49.833 40.833 73.5 55.5s54.834 29 93.501 43c59.333 22 132.666 43.333 219.999 64v135
c0 126 -29 189 -87 189c-48 0 -72 -40 -72 -120zM581 420.998l-5.99902 164.999c-90 -30.667 -148.667 -68 -176 -112c-22 -34.667 -33 -71.667 -33 -111s8 -72.166 24 -98.499s41.667 -39.5 77 -39.5s63.166 19 83.499 57s30.5 84.333 30.5 139zM894.001 963.997
l0.000976562 -159.999c5.33301 1.33301 12.5 3 21.5 5s25 7.5 48 16.5s43.167 19.167 60.5 30.5s33.166 27 47.499 47s21.5 43.5 21.5 70.5s-9.5 51.167 -28.5 72.5s-44.167 32 -75.5 32s-55 -12.833 -71 -38.5s-24 -50.834 -24 -75.501z" />
    <glyph glyph-name="ccedilla" unicode="&#xe7;" horiz-adv-x="928" 
d="M78 334l-0.00195312 559.998c0 138.667 33 246.834 99 324.501s166.833 116.5 302.5 116.5s236.334 -38.667 302.001 -116s98.5 -185.666 98.5 -324.999v-114h-331v149c0 52 -4.5 90.167 -13.5 114.5s-27.833 36.5 -56.5 36.5c-42.667 0 -64 -33 -64 -99v-646
c0 -73.333 21.333 -110 64 -110c31.333 0 51 14.667 59 44c6.66699 26 10.334 66.333 11.001 121v139h331v-195c0 -72 -18.667 -136.167 -56 -192.5s-86.333 -98.833 -147 -127.5s-126.667 -43 -198 -43c-110 0 -204.333 33.5 -283 100.5s-118 154.5 -118 262.5z
M395.998 -411.002c109.333 0 163.667 14.333 163 43c0 14 -4.16699 25.167 -12.5 33.5l-20.5 20c-5.33301 5 -12.666 10 -21.999 15l-23 12.5c-6 3.33301 -14.5 7.16602 -25.5 11.499s-18.667 7.5 -23 9.5s-11.5 4.66699 -21.5 8s-15.667 5.33301 -17 6v242h171v-129
c147.333 -69.333 221 -147 221 -233c0 -78.667 -44.667 -132.667 -134 -162c-74.667 -25.333 -179.334 -37.666 -314.001 -36.999v161z" />
    <glyph glyph-name="egrave" unicode="&#xe8;" horiz-adv-x="940" 
d="M78 339l-0.000976562 554.998c0 138.667 33 246.834 99 324.501s166.833 116.5 302.5 116.5s236.334 -38.667 302.001 -116s98.5 -185.666 98.5 -324.999v-270h-465v-289c0 -73.333 21.333 -110 64 -110c46.667 0 70 39.333 70 118v143h331v-147
c0 -108.667 -39.333 -197.167 -118 -265.5s-173 -102.5 -283 -102.5s-204.333 34.333 -283 103s-118 157 -118 265zM414.999 800.998h131v180c0 66 -21.833 99 -65.5 99s-65.5 -33 -65.5 -99v-180zM376.999 1437l-277 442h346l136 -442h-205z" />
    <glyph glyph-name="eacute" unicode="&#xe9;" horiz-adv-x="940" 
d="M78 339l-0.000976562 554.998c0 138.667 33 246.834 99 324.501s166.833 116.5 302.5 116.5s236.334 -38.667 302.001 -116s98.5 -185.666 98.5 -324.999v-270h-465v-289c0 -73.333 21.333 -110 64 -110c46.667 0 70 39.333 70 118v143h331v-147
c0 -108.667 -39.333 -197.167 -118 -265.5s-173 -102.5 -283 -102.5s-204.333 34.333 -283 103s-118 157 -118 265zM414.999 800.998h131v180c0 66 -21.833 99 -65.5 99s-65.5 -33 -65.5 -99v-180zM376.999 1437l136 442h345l-277 -442h-204z" />
    <glyph glyph-name="ecircumflex" unicode="&#xea;" horiz-adv-x="940" 
d="M78 339l-0.000976562 554.998c0 138.667 33 246.834 99 324.501s166.833 116.5 302.5 116.5s236.334 -38.667 302.001 -116s98.5 -185.666 98.5 -324.999v-270h-465v-289c0 -73.333 21.333 -110 64 -110c46.667 0 70 39.333 70 118v143h331v-147
c0 -108.667 -39.333 -197.167 -118 -265.5s-173 -102.5 -283 -102.5s-204.333 34.333 -283 103s-118 157 -118 265zM414.999 800.998h131v180c0 66 -21.833 99 -65.5 99s-65.5 -33 -65.5 -99v-180zM130.999 1437l201 406h290l206 -406h-275l-75 202l-73 -202h-274z" />
    <glyph glyph-name="edieresis" unicode="&#xeb;" horiz-adv-x="940" 
d="M78 339l-0.000976562 554.998c0 138.667 33 246.834 99 324.501s166.833 116.5 302.5 116.5s236.334 -38.667 302.001 -116s98.5 -185.666 98.5 -324.999v-270h-465v-289c0 -73.333 21.333 -110 64 -110c46.667 0 70 39.333 70 118v143h331v-147
c0 -108.667 -39.333 -197.167 -118 -265.5s-173 -102.5 -283 -102.5s-204.333 34.333 -283 103s-118 157 -118 265zM414.999 800.998h131v180c0 66 -21.833 99 -65.5 99s-65.5 -33 -65.5 -99v-180zM99.999 1437v308h303v-308h-303zM552.999 1437v308h304v-308h-304z" />
    <glyph glyph-name="igrave" unicode="&#xec;" horiz-adv-x="532" 
d="M124 0v1305h337v-1305h-337zM190 1436l-277 442h346l136 -442h-205z" />
    <glyph glyph-name="iacute" unicode="&#xed;" horiz-adv-x="532" 
d="M124 0v1305h337v-1305h-337zM191 1436l136 442h345l-277 -442h-204z" />
    <glyph glyph-name="icircumflex" unicode="&#xee;" horiz-adv-x="532" 
d="M124 0v1305h337v-1305h-337zM-56 1436l201 406h290l206 -406h-275l-75 202l-73 -202h-274z" />
    <glyph glyph-name="idieresis" unicode="&#xef;" horiz-adv-x="532" 
d="M124 0v1305h337v-1305h-337zM-86 1436v308h303v-308h-303zM367 1436v308h304v-308h-304z" />
    <glyph glyph-name="eth" unicode="&#xf0;" horiz-adv-x="988" 
d="M87 341l-0.00195312 551c0 94.667 29.333 170.667 88 228s124 86 196 86s132.667 -19.333 182 -58c0 96 -4 166.667 -12 212l-154 -78l-66 140l155 79c-46.667 46 -133.334 69 -260.001 69l48 265c234 0 401 -62.333 501 -187l143 73l66 -140l-134 -68
c32.667 -88.667 49 -197 49 -325v-847c0 -72 -19.167 -136.667 -57.5 -194s-88.166 -101 -149.499 -131s-127.666 -45 -198.999 -45c-109.333 0 -202.666 34.5 -279.999 103.5s-116 157.833 -116 266.5zM551.998 340v533.999c0 21.333 -6.33301 38 -19 50s-28 18 -46 18
s-33.333 -6.33301 -46 -19s-19 -31 -19 -55v-528c0 -49.333 9.33301 -80.666 28 -93.999c9.33301 -6.66699 20.333 -10 33 -10c46 0 69 34.667 69 104z" />
    <glyph glyph-name="ntilde" unicode="&#xf1;" horiz-adv-x="1005" 
d="M94 0v1305h337v-92c32 36.667 70.5 66 115.5 88s91.167 33 138.5 33s89 -14.667 125 -44c72 -57.333 108 -136.666 108 -237.999v-1052h-337v993c0 58 -18.667 87 -56 87c-8.66699 0 -16.167 -1.66699 -22.5 -5l-14.5 -7.5c-3.33301 -1.66699 -7.33301 -4.5 -12 -8.5
c-13.333 -11.333 -22 -19.666 -26 -24.999c-4.66699 -6 -11 -13.333 -19 -22v-1012h-337zM335 1447l-166.995 0.000976562c0.666992 112 17.667 191.333 51 238c29.333 40.667 71.166 61 125.499 61s115.666 -9.66699 183.999 -29s109.166 -29 122.499 -29
c13.333 -0.666992 22.666 1.66602 27.999 6.99902c6.66699 6 10 19 10 39h155c0 -198.667 -52 -298 -156 -298c-33.333 0 -84.5 12.167 -153.5 36.5s-113.833 36.5 -134.5 36.5s-34.334 -1.5 -41.001 -4.5s-11.5 -5.83301 -14.5 -8.5s-5.33301 -8 -7 -16s-2.5 -13 -2.5 -15
v-18z" />
    <glyph glyph-name="ograve" unicode="&#xf2;" horiz-adv-x="973" 
d="M78 339l0.00195312 555c0 139.333 32.833 247.5 98.5 324.5s168.167 115.5 307.5 115.5s242.666 -38.5 309.999 -115.5s101 -185.167 101 -324.5v-555c0 -108.667 -40.333 -197.167 -121 -265.5s-177.334 -102.5 -290.001 -102.5c-72.667 0 -139.667 14.833 -201 44.5
s-110.833 73 -148.5 130s-56.5 121.5 -56.5 193.5zM561.002 335v645.999c0 66 -25.667 99 -77 99c-46 0 -69 -33 -69 -99v-646c0 -53.333 10 -86.666 30 -99.999c10 -6.66699 23 -10 39 -10c51.333 0 77 36.667 77 110zM384.002 1436l-277 442h346l136 -442h-205z" />
    <glyph glyph-name="oacute" unicode="&#xf3;" horiz-adv-x="973" 
d="M78 339l0.00195312 555c0 139.333 32.833 247.5 98.5 324.5s168.167 115.5 307.5 115.5s242.666 -38.5 309.999 -115.5s101 -185.167 101 -324.5v-555c0 -108.667 -40.333 -197.167 -121 -265.5s-177.334 -102.5 -290.001 -102.5c-72.667 0 -139.667 14.833 -201 44.5
s-110.833 73 -148.5 130s-56.5 121.5 -56.5 193.5zM561.002 335v645.999c0 66 -25.667 99 -77 99c-46 0 -69 -33 -69 -99v-646c0 -53.333 10 -86.666 30 -99.999c10 -6.66699 23 -10 39 -10c51.333 0 77 36.667 77 110zM385.002 1436l136 442h345l-277 -442h-204z" />
    <glyph glyph-name="ocircumflex" unicode="&#xf4;" horiz-adv-x="973" 
d="M78 339l0.00195312 555c0 139.333 32.833 247.5 98.5 324.5s168.167 115.5 307.5 115.5s242.666 -38.5 309.999 -115.5s101 -185.167 101 -324.5v-555c0 -108.667 -40.333 -197.167 -121 -265.5s-177.334 -102.5 -290.001 -102.5c-72.667 0 -139.667 14.833 -201 44.5
s-110.833 73 -148.5 130s-56.5 121.5 -56.5 193.5zM561.002 335v645.999c0 66 -25.667 99 -77 99c-46 0 -69 -33 -69 -99v-646c0 -53.333 10 -86.666 30 -99.999c10 -6.66699 23 -10 39 -10c51.333 0 77 36.667 77 110zM138.002 1436l201 406h290l206 -406h-275l-75 202
l-73 -202h-274z" />
    <glyph glyph-name="otilde" unicode="&#xf5;" horiz-adv-x="973" 
d="M78 339l0.00195312 555c0 139.333 32.833 247.5 98.5 324.5s168.167 115.5 307.5 115.5s242.666 -38.5 309.999 -115.5s101 -185.167 101 -324.5v-555c0 -108.667 -40.333 -197.167 -121 -265.5s-177.334 -102.5 -290.001 -102.5c-72.667 0 -139.667 14.833 -201 44.5
s-110.833 73 -148.5 130s-56.5 121.5 -56.5 193.5zM561.002 335v645.999c0 66 -25.667 99 -77 99c-46 0 -69 -33 -69 -99v-646c0 -53.333 10 -86.666 30 -99.999c10 -6.66699 23 -10 39 -10c51.333 0 77 36.667 77 110zM302.002 1444l-166.995 0.000976562
c0.666992 112 17.667 191.333 51 238c29.333 40.667 71.166 61 125.499 61s115.666 -9.66699 183.999 -29s109.166 -29 122.499 -29c13.333 -0.666992 22.666 1.66602 27.999 6.99902c6.66699 6 10 19 10 39h155c0 -198.667 -52 -298 -156 -298
c-33.333 0 -84.5 12.167 -153.5 36.5s-113.833 36.5 -134.5 36.5s-34.334 -1.5 -41.001 -4.5s-11.5 -5.83301 -14.5 -8.5s-5.33301 -8 -7 -16s-2.5 -13 -2.5 -15v-18z" />
    <glyph glyph-name="odieresis" unicode="&#xf6;" horiz-adv-x="973" 
d="M78 339l0.00195312 555c0 139.333 32.833 247.5 98.5 324.5s168.167 115.5 307.5 115.5s242.666 -38.5 309.999 -115.5s101 -185.167 101 -324.5v-555c0 -108.667 -40.333 -197.167 -121 -265.5s-177.334 -102.5 -290.001 -102.5c-72.667 0 -139.667 14.833 -201 44.5
s-110.833 73 -148.5 130s-56.5 121.5 -56.5 193.5zM561.002 335v645.999c0 66 -25.667 99 -77 99c-46 0 -69 -33 -69 -99v-646c0 -53.333 10 -86.666 30 -99.999c10 -6.66699 23 -10 39 -10c51.333 0 77 36.667 77 110zM108.002 1436v308h303v-308h-303zM561.002 1436v308
h304v-308h-304z" />
    <glyph glyph-name="divide" unicode="&#xf7;" horiz-adv-x="696" 
d="M6 583v223h676v-223h-676zM200 890v287h287v-287h-287zM200 236v287h287v-287h-287z" />
    <glyph glyph-name="oslash" unicode="&#xf8;" horiz-adv-x="983" 
d="M208 -233l73.002 254c-60.667 31.333 -108.834 74.5 -144.501 129.5s-53.5 117.833 -53.5 188.5v555c0 139.333 32.833 247.5 98.5 324.5s168.167 115.5 307.5 115.5c60.667 0 115 -7.66699 163 -23l73 253l77 -20l-77 -266c116.667 -68.667 175 -196.667 175 -384v-555
c0 -108.667 -40.333 -197 -121 -265s-177.334 -102 -290.001 -102c-46 0 -91 6.66699 -135 20l-70 -245zM566.002 346v617.999c0 66 -25.667 99 -77 99c-46 0 -69 -33 -69 -99v-618c0 -53.333 10 -86.666 30 -99.999c10 -6.66699 23 -10 39 -10c51.333 0 77 36.667 77 110z
" />
    <glyph glyph-name="ugrave" unicode="&#xf9;" horiz-adv-x="1006" 
d="M87 253l0.000976562 1052h337v-970c0 -73.333 15.167 -110 45.5 -110s65.5 24.667 105.5 74v1006h337v-1305h-337v113c-34 -41.333 -73.667 -75.333 -119 -102s-91.333 -40 -138 -40c-68.667 0 -124.334 29.167 -167.001 87.5s-64 123.166 -64 194.499zM397.001 1436
l-277 442h346l136 -442h-205z" />
    <glyph glyph-name="uacute" unicode="&#xfa;" horiz-adv-x="1006" 
d="M87 253l0.000976562 1052h337v-970c0 -73.333 15.167 -110 45.5 -110s65.5 24.667 105.5 74v1006h337v-1305h-337v113c-34 -41.333 -73.667 -75.333 -119 -102s-91.333 -40 -138 -40c-68.667 0 -124.334 29.167 -167.001 87.5s-64 123.166 -64 194.499zM397.001 1436
l136 442h345l-277 -442h-204z" />
    <glyph glyph-name="ucircumflex" unicode="&#xfb;" horiz-adv-x="1006" 
d="M87 253l0.000976562 1052h337v-970c0 -73.333 15.167 -110 45.5 -110s65.5 24.667 105.5 74v1006h337v-1305h-337v113c-34 -41.333 -73.667 -75.333 -119 -102s-91.333 -40 -138 -40c-68.667 0 -124.334 29.167 -167.001 87.5s-64 123.166 -64 194.499zM151.001 1436
l201 406h290l206 -406h-275l-75 202l-73 -202h-274z" />
    <glyph glyph-name="udieresis" unicode="&#xfc;" horiz-adv-x="1006" 
d="M87 253l0.000976562 1052h337v-970c0 -73.333 15.167 -110 45.5 -110s65.5 24.667 105.5 74v1006h337v-1305h-337v113c-34 -41.333 -73.667 -75.333 -119 -102s-91.333 -40 -138 -40c-68.667 0 -124.334 29.167 -167.001 87.5s-64 123.166 -64 194.499zM121.001 1436v308
h303v-308h-303zM574.001 1436v308h304v-308h-304z" />
    <glyph glyph-name="yacute" unicode="&#xfd;" horiz-adv-x="872" 
d="M228.5 -30.5c27.667 30.333 41.499 84.334 41.499 162.001s-17.667 200 -53 367s-76.333 338.5 -123 514.5s-72 273.333 -76 292h307l121 -728l106 728h309l-285 -1340c-36 -160 -143.333 -250 -322 -270c-36 -4 -77.333 -6 -124 -6h-43v233
c66.667 1.33301 113.834 17.166 141.501 47.499zM315.999 1393l136 442h345l-277 -442h-204z" />
    <glyph glyph-name="thorn" unicode="&#xfe;" horiz-adv-x="988" 
d="M521 216c30.667 0 46 31.3311 46 93.998v687c0 57.333 -15.333 86 -46 86c-10 0 -18.5 -2.83301 -25.5 -8.5s-11.833 -9.5 -14.5 -11.5s-5.83398 -5.16699 -9.50098 -9.5l-8.5 -10c-2 -2.33301 -4.66699 -6.16602 -8 -11.499s-5.66602 -8.66602 -6.99902 -9.99902
c-8 -10 -12 -15.667 -12 -17v-708c34.667 -54 63 -81 85 -81zM436 1217c58 78.667 125.332 118.001 201.999 118.001s139.834 -28.667 189.501 -86s74.5 -123.333 74.5 -198v-801c0 -74.667 -24.833 -139.834 -74.5 -195.501s-111.167 -83.5 -184.5 -83.5
c-40.667 0 -79.167 11.333 -115.5 34s-66.833 53.667 -91.5 93v-469h-337v2171h337v-583z" />
    <glyph glyph-name="ydieresis" unicode="&#xff;" horiz-adv-x="872" 
d="M228.5 -30.5c27.667 30.333 41.499 84.334 41.499 162.001s-17.667 200 -53 367s-76.333 338.5 -123 514.5s-72 273.333 -76 292h307l121 -728l106 728h309l-285 -1340c-36 -160 -143.333 -250 -322 -270c-36 -4 -77.333 -6 -124 -6h-43v233
c66.667 1.33301 113.834 17.166 141.501 47.499zM51.999 1492v308h303v-308h-303zM504.999 1492v308h304v-308h-304z" />
    <glyph glyph-name="Amacron" unicode="&#x100;" horiz-adv-x="1135" 
d="M9 0l389 1800h322l388 -1800h-359l-74 385h-235l-70 -385h-361zM465 609h186l-91 668zM314 1937v193h507v-193h-507z" />
    <glyph glyph-name="amacron" unicode="&#x101;" horiz-adv-x="976" 
d="M620 0l-32.998 135c-19.333 -60.667 -51 -103.167 -95 -127.5s-94.333 -36.5 -151 -36.5s-103 9.33301 -139 28c-36 18 -64 43 -84 75c-40 62 -60 134.333 -60 217c0 131.333 36.667 236 110 314c48 51.333 97.333 90.666 148 117.999
c72.667 38.667 151 75.334 235 110.001v110c0 46 -5.66699 80.333 -17 103s-28.5 34 -51.5 34s-40.333 -3.83301 -52 -11.5s-19.834 -19.167 -24.501 -34.5c-7.33301 -24 -11 -54.333 -11 -91v-74h-327c0 150 37.667 265.167 113 345.5s184.666 120.5 327.999 120.5
c100 0 187.667 -36.333 263 -109s113 -159 113 -259v-620c0 -107.333 14.333 -223 43 -347h-308zM386.002 322c0 -64.667 22.667 -97 68 -97c25.333 0 49 12.333 71 37c6 6.66699 15 17.667 27 33v321c-110.667 -89.333 -166 -187.333 -166 -294zM240.002 1437v193h507v-193
h-507z" />
    <glyph glyph-name="Abreve" unicode="&#x102;" horiz-adv-x="1135" 
d="M9 0l389 1800h322l388 -1800h-359l-74 385h-235l-70 -385h-361zM465 609h186l-91 668zM315 2185h172.001c0 -43.333 8.66699 -75.333 26 -96s35.666 -31 54.999 -31c19.333 0.666992 35.333 8.33398 48 23c22 26 33 60.667 33 104h172c0 -73.333 -23.667 -133 -71 -179
s-108 -69 -182 -69s-134.667 23 -182 69s-71 105.667 -71 179z" />
    <glyph glyph-name="abreve" unicode="&#x103;" horiz-adv-x="976" 
d="M620 0l-32.998 135c-19.333 -60.667 -51 -103.167 -95 -127.5s-94.333 -36.5 -151 -36.5s-103 9.33301 -139 28c-36 18 -64 43 -84 75c-40 62 -60 134.333 -60 217c0 131.333 36.667 236 110 314c48 51.333 97.333 90.666 148 117.999
c72.667 38.667 151 75.334 235 110.001v110c0 46 -5.66699 80.333 -17 103s-28.5 34 -51.5 34s-40.333 -3.83301 -52 -11.5s-19.834 -19.167 -24.501 -34.5c-7.33301 -24 -11 -54.333 -11 -91v-74h-327c0 150 37.667 265.167 113 345.5s184.666 120.5 327.999 120.5
c100 0 187.667 -36.333 263 -109s113 -159 113 -259v-620c0 -107.333 14.333 -223 43 -347h-308zM386.002 322c0 -64.667 22.667 -97 68 -97c25.333 0 49 12.333 71 37c6 6.66699 15 17.667 27 33v321c-110.667 -89.333 -166 -187.333 -166 -294zM240.002 1685
l172.001 -0.000976562c0 -43.333 8.66699 -75.333 26 -96s35.666 -31 54.999 -31c19.333 0.666992 35.333 8.33398 48 23.001c22 26 33 60.667 33 104h172c0 -73.333 -23.667 -133 -71 -179s-108 -69 -182 -69s-134.667 23 -182 69s-71 105.667 -71 179z" />
    <glyph glyph-name="Aogonek" unicode="&#x104;" horiz-adv-x="1135" 
d="M9 0l389 1800h322l388 -1800h-359l-74 385h-235l-70 -385h-361zM465 609h186l-91 668zM1046 -356l-21 -159.999c-14 -1.33301 -28.667 -2 -44 -2c-29.333 0 -61.333 2 -96 6c-53.333 5.33301 -93.5 13.333 -120.5 24s-50.833 23.667 -71.5 39
c-44.667 33.333 -67 80.666 -67 141.999s14.667 120.833 44 178.5s65 106.5 107 146.5h148c-4.66699 -13.333 -12.334 -34 -23.001 -62l-25 -66c-16 -43.333 -24 -80.333 -24 -111s2.66699 -53.167 8 -67.5s13.833 -25.5 25.5 -33.5s22.834 -14.667 33.501 -20
c9.33301 -4.66699 23.333 -8 42 -10c24 -2.66699 52 -4 84 -4z" />
    <glyph glyph-name="aogonek" unicode="&#x105;" horiz-adv-x="976" 
d="M620 0l-32.998 135c-19.333 -60.667 -51 -103.167 -95 -127.5s-94.333 -36.5 -151 -36.5s-103 9.33301 -139 28c-36 18 -64 43 -84 75c-40 62 -60 134.333 -60 217c0 131.333 36.667 236 110 314c48 51.333 97.333 90.666 148 117.999
c72.667 38.667 151 75.334 235 110.001v110c0 46 -5.66699 80.333 -17 103s-28.5 34 -51.5 34s-40.333 -3.83301 -52 -11.5s-19.834 -19.167 -24.501 -34.5c-7.33301 -24 -11 -54.333 -11 -91v-74h-327c0 150 37.667 265.167 113 345.5s184.666 120.5 327.999 120.5
c100 0 187.667 -36.333 263 -109s113 -159 113 -259v-620c0 -107.333 14.333 -223 43 -347h-308zM386.002 322c0 -64.667 22.667 -97 68 -97c25.333 0 49 12.333 71 37c6 6.66699 15 17.667 27 33v321c-110.667 -89.333 -166 -187.333 -166 -294zM902.002 -365l-21 -159.999
c-14 -1.33301 -28.667 -2 -44 -2c-29.333 0 -61.333 2 -96 6c-53.333 5.33301 -93.5 13.333 -120.5 24s-50.833 23.667 -71.5 39c-44.667 33.333 -67 80.666 -67 141.999s14.667 120.833 44 178.5s65 106.5 107 146.5h148c-4.66699 -13.333 -12.334 -34 -23.001 -62l-25 -66
c-16 -43.333 -24 -80.333 -24 -111s2.66699 -53.167 8 -67.5s13.833 -25.5 25.5 -33.5s22.834 -14.667 33.501 -20c9.33301 -4.66699 23.333 -8 42 -10c24 -2.66699 52 -4 84 -4z" />
    <glyph glyph-name="Cacute" unicode="&#x106;" horiz-adv-x="1174" 
d="M84 601l-0.00292969 595.997c0 425.333 174 638 522 638c210.667 0 355.334 -79.667 434.001 -239c46.667 -95.333 70.334 -215.666 71.001 -360.999v-155h-358v166c0.666992 113.333 -11 193.333 -35 240c-37.333 38.667 -74.666 61.334 -111.999 68.001
c-105.333 0 -158 -88.667 -158 -266v-777c0 -176.667 52.667 -265 158 -265c64 0 105.667 34.667 125 104c16 56.667 24 125 24 205v185h356v-152c-4.66699 -228 -57.667 -394 -159 -498c-82 -83.333 -197.333 -125 -346 -125
c-221.333 0.666992 -372.333 88.334 -453 263.001c-46 100 -69 224.333 -69 373zM494.997 1937l136 442h345l-277 -442h-204z" />
    <glyph glyph-name="cacute" unicode="&#x107;" horiz-adv-x="928" 
d="M78 334l-0.00195312 559.998c0 138.667 33 246.834 99 324.501s166.833 116.5 302.5 116.5s236.334 -38.667 302.001 -116s98.5 -185.666 98.5 -324.999v-114h-331v149c0 52 -4.5 90.167 -13.5 114.5s-27.833 36.5 -56.5 36.5c-42.667 0 -64 -33 -64 -99v-646
c0 -73.333 21.333 -110 64 -110c31.333 0 51 14.667 59 44c6.66699 26 10.334 66.333 11.001 121v139h331v-195c0 -72 -18.667 -136.167 -56 -192.5s-86.333 -98.833 -147 -127.5s-126.667 -43 -198 -43c-110 0 -204.333 33.5 -283 100.5s-118 154.5 -118 262.5z
M376.998 1437l136 442h345l-277 -442h-204z" />
    <glyph glyph-name="Ccircumflex" unicode="&#x108;" horiz-adv-x="1174" 
d="M84 601l-0.00292969 595.997c0 425.333 174 638 522 638c210.667 0 355.334 -79.667 434.001 -239c46.667 -95.333 70.334 -215.666 71.001 -360.999v-155h-358v166c0.666992 113.333 -11 193.333 -35 240c-37.333 38.667 -74.666 61.334 -111.999 68.001
c-105.333 0 -158 -88.667 -158 -266v-777c0 -176.667 52.667 -265 158 -265c64 0 105.667 34.667 125 104c16 56.667 24 125 24 205v185h356v-152c-4.66699 -228 -57.667 -394 -159 -498c-82 -83.333 -197.333 -125 -346 -125
c-221.333 0.666992 -372.333 88.334 -453 263.001c-46 100 -69 224.333 -69 373zM248.997 1937l201 406h290l206 -406h-275l-75 202l-73 -202h-274z" />
    <glyph glyph-name="ccircumflex" unicode="&#x109;" horiz-adv-x="928" 
d="M78 334l-0.00195312 559.998c0 138.667 33 246.834 99 324.501s166.833 116.5 302.5 116.5s236.334 -38.667 302.001 -116s98.5 -185.666 98.5 -324.999v-114h-331v149c0 52 -4.5 90.167 -13.5 114.5s-27.833 36.5 -56.5 36.5c-42.667 0 -64 -33 -64 -99v-646
c0 -73.333 21.333 -110 64 -110c31.333 0 51 14.667 59 44c6.66699 26 10.334 66.333 11.001 121v139h331v-195c0 -72 -18.667 -136.167 -56 -192.5s-86.333 -98.833 -147 -127.5s-126.667 -43 -198 -43c-110 0 -204.333 33.5 -283 100.5s-118 154.5 -118 262.5z
M130.998 1437l201 406h290l206 -406h-275l-75 202l-73 -202h-274z" />
    <glyph glyph-name="Cdotaccent" unicode="&#x10a;" horiz-adv-x="1174" 
d="M84 601l-0.00292969 595.997c0 425.333 174 638 522 638c210.667 0 355.334 -79.667 434.001 -239c46.667 -95.333 70.334 -215.666 71.001 -360.999v-155h-358v166c0.666992 113.333 -11 193.333 -35 240c-37.333 38.667 -74.666 61.334 -111.999 68.001
c-105.333 0 -158 -88.667 -158 -266v-777c0 -176.667 52.667 -265 158 -265c64 0 105.667 34.667 125 104c16 56.667 24 125 24 205v185h356v-152c-4.66699 -228 -57.667 -394 -159 -498c-82 -83.333 -197.333 -125 -346 -125
c-221.333 0.666992 -372.333 88.334 -453 263.001c-46 100 -69 224.333 -69 373zM435.997 1937v318h323v-318h-323z" />
    <glyph glyph-name="cdotaccent" unicode="&#x10b;" horiz-adv-x="928" 
d="M78 334l-0.00195312 559.998c0 138.667 33 246.834 99 324.501s166.833 116.5 302.5 116.5s236.334 -38.667 302.001 -116s98.5 -185.666 98.5 -324.999v-114h-331v149c0 52 -4.5 90.167 -13.5 114.5s-27.833 36.5 -56.5 36.5c-42.667 0 -64 -33 -64 -99v-646
c0 -73.333 21.333 -110 64 -110c31.333 0 51 14.667 59 44c6.66699 26 10.334 66.333 11.001 121v139h331v-195c0 -72 -18.667 -136.167 -56 -192.5s-86.333 -98.833 -147 -127.5s-126.667 -43 -198 -43c-110 0 -204.333 33.5 -283 100.5s-118 154.5 -118 262.5z
M317.998 1437v318h323v-318h-323z" />
    <glyph glyph-name="Ccaron" unicode="&#x10c;" horiz-adv-x="1174" 
d="M84 601l-0.00292969 595.997c0 425.333 174 638 522 638c210.667 0 355.334 -79.667 434.001 -239c46.667 -95.333 70.334 -215.666 71.001 -360.999v-155h-358v166c0.666992 113.333 -11 193.333 -35 240c-37.333 38.667 -74.666 61.334 -111.999 68.001
c-105.333 0 -158 -88.667 -158 -266v-777c0 -176.667 52.667 -265 158 -265c64 0 105.667 34.667 125 104c16 56.667 24 125 24 205v185h356v-152c-4.66699 -228 -57.667 -394 -159 -498c-82 -83.333 -197.333 -125 -346 -125
c-221.333 0.666992 -372.333 88.334 -453 263.001c-46 100 -69 224.333 -69 373zM449.997 1937l-201 406h274l73 -201l75 201h275l-206 -406h-290z" />
    <glyph glyph-name="ccaron" unicode="&#x10d;" horiz-adv-x="928" 
d="M78 334l-0.00195312 559.998c0 138.667 33 246.834 99 324.501s166.833 116.5 302.5 116.5s236.334 -38.667 302.001 -116s98.5 -185.666 98.5 -324.999v-114h-331v149c0 52 -4.5 90.167 -13.5 114.5s-27.833 36.5 -56.5 36.5c-42.667 0 -64 -33 -64 -99v-646
c0 -73.333 21.333 -110 64 -110c31.333 0 51 14.667 59 44c6.66699 26 10.334 66.333 11.001 121v139h331v-195c0 -72 -18.667 -136.167 -56 -192.5s-86.333 -98.833 -147 -127.5s-126.667 -43 -198 -43c-110 0 -204.333 33.5 -283 100.5s-118 154.5 -118 262.5z
M330.998 1437l-201 406h274l73 -201l75 201h275l-206 -406h-290z" />
    <glyph glyph-name="Dcaron" unicode="&#x10e;" horiz-adv-x="1164" 
d="M485 255c101.333 -0.666992 163.333 7.66797 186 25.001c23.333 17.333 36.666 39.333 39.999 66s5 53.667 5 81v969c0 59.333 -17.667 98.666 -53 117.999s-94.666 29.333 -177.999 30v-1289zM107 0.00195312v1800h376c120 0 218.833 -10.833 296.5 -32.5
s138.667 -57.334 183 -107.001s75 -109.167 92 -178.5s25.5 -157.666 25.5 -264.999v-590c0 -200.667 -24.667 -341.667 -74 -423c-44 -73.333 -104.667 -124.666 -182 -153.999c-88 -33.333 -203 -50 -345 -50h-372zM446 1937l-201 406h274l73 -201l75 201h275l-206 -406
h-290z" />
    <glyph glyph-name="dcaron" unicode="&#x10f;" horiz-adv-x="999" 
d="M567 297l-0.000976562 708c-38 50 -69.667 75 -95 75c-37.333 0 -56 -28.667 -56 -86v-675c0 -62.667 18.667 -94 56 -94c28.667 0 60.334 24 95.001 72zM156.999 1240c52 63.333 118.167 94.999 198.5 94.999s150.833 -39.333 211.5 -118v583h337v-1800h-337v98
c-26.667 -39.333 -60 -70.333 -100 -93s-82.333 -34 -127 -34c-74 0 -136 27.833 -186 83.5s-75 120.834 -75 195.501v771c0 82.667 26 155.667 78 219zM1126 1239l-40 166.002h15h36c6 1.33301 12 4.66602 18 9.99902c8 7.33301 12 29.666 12 66.999h-110v318h323
c0 -164.667 -0.333008 -254 -1 -268c-5.33301 -120.667 -27.333 -203 -66 -247c-30 -34 -74.333 -50.667 -133 -50c-16.667 0 -34.667 1.33301 -54 4z" />
    <glyph glyph-name="Dcroat" unicode="&#x110;" horiz-adv-x="1156" 
d="M97 0v828.999h-92v183h92v788h376c120 0 218.833 -10.833 296.5 -32.5s138.667 -57.334 183 -107.001s75 -109.167 92 -178.5s25.5 -157.666 25.5 -264.999v-590c0 -200.667 -24.667 -341.667 -74 -423c-44 -73.333 -104.667 -124.666 -182 -153.999
c-88 -33.333 -203 -50 -345 -50h-372zM461 254.999l15.001 0.000976562c96.667 0.666992 157.667 9.66699 183 27c23.333 16.667 37 38.167 41 64.5s6 53.166 6 80.499v969c0 60 -17.833 99.5 -53.5 118.5s-95.834 28.833 -180.501 29.5h-11v-532h124v-183h-124v-574z" />
    <glyph glyph-name="dcroat" unicode="&#x111;" horiz-adv-x="999" 
d="M157 1240c52 63.333 118.167 94.999 198.5 94.999s150.833 -39.333 211.5 -118v287h-283v133h283v163h337v-163h95v-133h-95v-1504h-337v98c-26.667 -39.333 -60 -70.333 -100 -93s-82.333 -34 -127 -34c-74 0 -136 27.833 -186 83.5s-75 120.834 -75 195.501v771
c0 82.667 26 155.667 78 219zM567 296.999l-0.000976562 708c-38 50 -69.667 75 -95 75c-37.333 0 -56 -28.667 -56 -86v-675c0 -62.667 18.667 -94 56 -94c28.667 0 60.334 24 95.001 72z" />
    <glyph glyph-name="Emacron" unicode="&#x112;" horiz-adv-x="889" 
d="M107 0v1800h751v-250h-387v-490h274v-256h-274v-554h387v-250h-751zM229 1937v193h507v-193h-507z" />
    <glyph glyph-name="emacron" unicode="&#x113;" horiz-adv-x="940" 
d="M78 339l-0.000976562 554.998c0 138.667 33 246.834 99 324.501s166.833 116.5 302.5 116.5s236.334 -38.667 302.001 -116s98.5 -185.666 98.5 -324.999v-270h-465v-289c0 -73.333 21.333 -110 64 -110c46.667 0 70 39.333 70 118v143h331v-147
c0 -108.667 -39.333 -197.167 -118 -265.5s-173 -102.5 -283 -102.5s-204.333 34.333 -283 103s-118 157 -118 265zM414.999 800.998h131v180c0 66 -21.833 99 -65.5 99s-65.5 -33 -65.5 -99v-180zM215.999 1457v193h507v-193h-507z" />
    <glyph glyph-name="Eogonek" unicode="&#x118;" horiz-adv-x="889" 
d="M107 0v1800h751v-250h-387v-490h274v-256h-274v-554h387v-250h-751zM752 -356l-21 -159.999c-14 -1.33301 -28.667 -2 -44 -2c-29.333 0 -61.333 2 -96 6c-53.333 5.33301 -93.5 13.333 -120.5 24s-50.833 23.667 -71.5 39c-44.667 33.333 -67 80.666 -67 141.999
s14.667 120.833 44 178.5s65 106.5 107 146.5h148c-4.66699 -13.333 -12.334 -34 -23.001 -62l-25 -66c-16 -43.333 -24 -80.333 -24 -111s2.66699 -53.167 8 -67.5s13.833 -25.5 25.5 -33.5s22.834 -14.667 33.501 -20c9.33301 -4.66699 23.333 -8 42 -10
c24 -2.66699 52 -4 84 -4z" />
    <glyph glyph-name="eogonek" unicode="&#x119;" horiz-adv-x="940" 
d="M78 339l-0.000976562 554.998c0 138.667 33 246.834 99 324.501s166.833 116.5 302.5 116.5s236.334 -38.667 302.001 -116s98.5 -185.666 98.5 -324.999v-270h-465v-289c0 -73.333 21.333 -110 64 -110c46.667 0 70 39.333 70 118v143h331v-147
c0 -108.667 -39.333 -197.167 -118 -265.5s-173 -102.5 -283 -102.5s-204.333 34.333 -283 103s-118 157 -118 265zM414.999 800.998h131v180c0 66 -21.833 99 -65.5 99s-65.5 -33 -65.5 -99v-180zM658.999 -366.002l-21 -159.999c-14 -1.33301 -28.667 -2 -44 -2
c-29.333 0 -61.333 2 -96 6c-53.333 5.33301 -93.5 13.333 -120.5 24s-50.833 23.667 -71.5 39c-44.667 33.333 -67 80.666 -67 141.999s14.667 120.833 44 178.5s65 106.5 107 146.5h148c-4.66699 -13.333 -12.334 -34 -23.001 -62l-25 -66
c-16 -43.333 -24 -80.333 -24 -111s2.66699 -53.167 8 -67.5s13.833 -25.5 25.5 -33.5s22.834 -14.667 33.501 -20c9.33301 -4.66699 23.333 -8 42 -10c24 -2.66699 52 -4 84 -4z" />
    <glyph glyph-name="Ecaron" unicode="&#x11a;" horiz-adv-x="889" 
d="M107 0v1800h751v-250h-387v-490h274v-256h-274v-554h387v-250h-751zM335 1937l-201 406h274l73 -201l75 201h275l-206 -406h-290z" />
    <glyph glyph-name="ecaron" unicode="&#x11b;" horiz-adv-x="940" 
d="M78 339l-0.000976562 554.998c0 138.667 33 246.834 99 324.501s166.833 116.5 302.5 116.5s236.334 -38.667 302.001 -116s98.5 -185.666 98.5 -324.999v-270h-465v-289c0 -73.333 21.333 -110 64 -110c46.667 0 70 39.333 70 118v143h331v-147
c0 -108.667 -39.333 -197.167 -118 -265.5s-173 -102.5 -283 -102.5s-204.333 34.333 -283 103s-118 157 -118 265zM414.999 800.998h131v180c0 66 -21.833 99 -65.5 99s-65.5 -33 -65.5 -99v-180zM330.999 1437l-201 406h274l73 -201l75 201h275l-206 -406h-290z" />
    <glyph glyph-name="Gcircumflex" unicode="&#x11c;" horiz-adv-x="1238" 
d="M84 563l0.000976562 634c0 425.333 177 638 531 638c216 0 363.667 -79.667 443 -239c48 -96 72 -216.333 72 -361v-106h-348v126c0 109.333 -14 187 -42 233c-26.667 44 -68.334 66 -125.001 66c-111.333 0 -167 -88.667 -167 -266v-777
c0 -176.667 55.5 -265 166.5 -265s166.5 91.667 166.5 275v144h-206v261h570v-926h-250l-46 126c-30.667 -48 -74.334 -86.833 -131.001 -116.5s-116.167 -44.5 -178.5 -44.5s-120 11.833 -173 35.5s-96.667 55 -131 94s-63.166 84.833 -86.499 137.5
c-43.333 98 -65 208.333 -65 331zM266.001 1937l201 406h290l206 -406h-275l-75 202l-73 -202h-274z" />
    <glyph glyph-name="gcircumflex" unicode="&#x11d;" horiz-adv-x="965" 
d="M459 378c-12 0 -48.001 5 -108.001 15c-15.333 -30 -23 -48 -23 -54c0 -28.667 41.333 -51 124 -67c36.667 -6.66699 77.167 -13.667 121.5 -21s88.833 -16.833 133.5 -28.5s85.334 -25.834 122.001 -42.501s66.5 -40 89.5 -70s34.5 -68.833 34.5 -116.5
s-8.16699 -92.334 -24.5 -134.001s-38 -75 -65 -100s-60.5 -45.167 -100.5 -60.5c-69.333 -26.667 -156 -40 -260 -40c-320.667 0 -481 78.333 -481 235c0 46 12.667 91.833 38 137.5s58.333 83.167 99 112.5c-78 40 -117 74.667 -117 104c0 38 44.333 113.333 133 226
c-68 124 -102 248.667 -102 374c0 131.333 30.333 243 91 335c30.667 46.667 72.167 83.667 124.5 111s112.833 41 181.5 41c102.667 0 180 -27.667 232 -83c48.667 55.333 130.334 83 245.001 83h42l-28 -241c-66 0 -113.667 -14.667 -143 -44
c28 -50 42 -115.167 42 -195.5s-8.83301 -147.166 -26.5 -200.499s-43 -100.666 -76 -141.999s-75.333 -74 -127 -98s-108.834 -36 -171.501 -36zM461.999 632c54.667 0 82 78.332 82 234.999s-25.667 235 -77 235c-27.333 0 -46.333 -13.333 -57 -40
c-15.333 -36.667 -23.333 -75.167 -24 -115.5s-1 -72.166 -1 -95.499c0 -146 25.667 -219 77 -219zM630.999 -37.001c0 71.333 -91 110 -273 116h-24c-30 -47.333 -45 -89 -45 -125c0 -39.333 74 -59 222 -59c47.333 0 79 6.16699 95 18.5s24.333 28.833 25 49.5z
M156.999 1437l201 406h290l206 -406h-275l-75 202l-73 -202h-274z" />
    <glyph glyph-name="Gbreve" unicode="&#x11e;" horiz-adv-x="1238" 
d="M84 563l0.000976562 634c0 425.333 177 638 531 638c216 0 363.667 -79.667 443 -239c48 -96 72 -216.333 72 -361v-106h-348v126c0 109.333 -14 187 -42 233c-26.667 44 -68.334 66 -125.001 66c-111.333 0 -167 -88.667 -167 -266v-777
c0 -176.667 55.5 -265 166.5 -265s166.5 91.667 166.5 275v144h-206v261h570v-926h-250l-46 126c-30.667 -48 -74.334 -86.833 -131.001 -116.5s-116.167 -44.5 -178.5 -44.5s-120 11.833 -173 35.5s-96.667 55 -131 94s-63.166 84.833 -86.499 137.5
c-43.333 98 -65 208.333 -65 331zM361.001 2185h172.001c0 -43.333 8.66699 -75.333 26 -96s35.666 -31 54.999 -31c19.333 0.666992 35.333 8.33398 48 23c22 26 33 60.667 33 104h172c0 -73.333 -23.667 -133 -71 -179s-108 -69 -182 -69s-134.667 23 -182 69
s-71 105.667 -71 179z" />
    <glyph glyph-name="gbreve" unicode="&#x11f;" horiz-adv-x="965" 
d="M459 378c-12 0 -48.001 5 -108.001 15c-15.333 -30 -23 -48 -23 -54c0 -28.667 41.333 -51 124 -67c36.667 -6.66699 77.167 -13.667 121.5 -21s88.833 -16.833 133.5 -28.5s85.334 -25.834 122.001 -42.501s66.5 -40 89.5 -70s34.5 -68.833 34.5 -116.5
s-8.16699 -92.334 -24.5 -134.001s-38 -75 -65 -100s-60.5 -45.167 -100.5 -60.5c-69.333 -26.667 -156 -40 -260 -40c-320.667 0 -481 78.333 -481 235c0 46 12.667 91.833 38 137.5s58.333 83.167 99 112.5c-78 40 -117 74.667 -117 104c0 38 44.333 113.333 133 226
c-68 124 -102 248.667 -102 374c0 131.333 30.333 243 91 335c30.667 46.667 72.167 83.667 124.5 111s112.833 41 181.5 41c102.667 0 180 -27.667 232 -83c48.667 55.333 130.334 83 245.001 83h42l-28 -241c-66 0 -113.667 -14.667 -143 -44
c28 -50 42 -115.167 42 -195.5s-8.83301 -147.166 -26.5 -200.499s-43 -100.666 -76 -141.999s-75.333 -74 -127 -98s-108.834 -36 -171.501 -36zM461.999 632c54.667 0 82 78.332 82 234.999s-25.667 235 -77 235c-27.333 0 -46.333 -13.333 -57 -40
c-15.333 -36.667 -23.333 -75.167 -24 -115.5s-1 -72.166 -1 -95.499c0 -146 25.667 -219 77 -219zM630.999 -37.001c0 71.333 -91 110 -273 116h-24c-30 -47.333 -45 -89 -45 -125c0 -39.333 74 -59 222 -59c47.333 0 79 6.16699 95 18.5s24.333 28.833 25 49.5z
M252.999 1685l172.001 -0.000976562c0 -43.333 8.66699 -75.333 26 -96s35.666 -31 54.999 -31c19.333 0.666992 35.333 8.33398 48 23.001c22 26 33 60.667 33 104h172c0 -73.333 -23.667 -133 -71 -179s-108 -69 -182 -69s-134.667 23 -182 69s-71 105.667 -71 179z" />
    <glyph glyph-name="Gdotaccent" unicode="&#x120;" horiz-adv-x="1238" 
d="M84 563l0.000976562 634c0 425.333 177 638 531 638c216 0 363.667 -79.667 443 -239c48 -96 72 -216.333 72 -361v-106h-348v126c0 109.333 -14 187 -42 233c-26.667 44 -68.334 66 -125.001 66c-111.333 0 -167 -88.667 -167 -266v-777
c0 -176.667 55.5 -265 166.5 -265s166.5 91.667 166.5 275v144h-206v261h570v-926h-250l-46 126c-30.667 -48 -74.334 -86.833 -131.001 -116.5s-116.167 -44.5 -178.5 -44.5s-120 11.833 -173 35.5s-96.667 55 -131 94s-63.166 84.833 -86.499 137.5
c-43.333 98 -65 208.333 -65 331zM453.001 1937v318h323v-318h-323z" />
    <glyph glyph-name="gdotaccent" unicode="&#x121;" horiz-adv-x="965" 
d="M459 378c-12 0 -48.001 5 -108.001 15c-15.333 -30 -23 -48 -23 -54c0 -28.667 41.333 -51 124 -67c36.667 -6.66699 77.167 -13.667 121.5 -21s88.833 -16.833 133.5 -28.5s85.334 -25.834 122.001 -42.501s66.5 -40 89.5 -70s34.5 -68.833 34.5 -116.5
s-8.16699 -92.334 -24.5 -134.001s-38 -75 -65 -100s-60.5 -45.167 -100.5 -60.5c-69.333 -26.667 -156 -40 -260 -40c-320.667 0 -481 78.333 -481 235c0 46 12.667 91.833 38 137.5s58.333 83.167 99 112.5c-78 40 -117 74.667 -117 104c0 38 44.333 113.333 133 226
c-68 124 -102 248.667 -102 374c0 131.333 30.333 243 91 335c30.667 46.667 72.167 83.667 124.5 111s112.833 41 181.5 41c102.667 0 180 -27.667 232 -83c48.667 55.333 130.334 83 245.001 83h42l-28 -241c-66 0 -113.667 -14.667 -143 -44
c28 -50 42 -115.167 42 -195.5s-8.83301 -147.166 -26.5 -200.499s-43 -100.666 -76 -141.999s-75.333 -74 -127 -98s-108.834 -36 -171.501 -36zM461.999 632c54.667 0 82 78.332 82 234.999s-25.667 235 -77 235c-27.333 0 -46.333 -13.333 -57 -40
c-15.333 -36.667 -23.333 -75.167 -24 -115.5s-1 -72.166 -1 -95.499c0 -146 25.667 -219 77 -219zM630.999 -37.001c0 71.333 -91 110 -273 116h-24c-30 -47.333 -45 -89 -45 -125c0 -39.333 74 -59 222 -59c47.333 0 79 6.16699 95 18.5s24.333 28.833 25 49.5z
M343.999 1437v318h323v-318h-323z" />
    <glyph glyph-name="Gcommaaccent" unicode="&#x122;" horiz-adv-x="1238" 
d="M84 563l0.000976562 634c0 425.333 177 638 531 638c216 0 363.667 -79.667 443 -239c48 -96 72 -216.333 72 -361v-106h-348v126c0 109.333 -14 187 -42 233c-26.667 44 -68.334 66 -125.001 66c-111.333 0 -167 -88.667 -167 -266v-777
c0 -176.667 55.5 -265 166.5 -265s166.5 91.667 166.5 275v144h-206v261h570v-926h-250l-46 126c-30.667 -48 -74.334 -86.833 -131.001 -116.5s-116.167 -44.5 -178.5 -44.5s-120 11.833 -173 35.5s-96.667 55 -131 94s-63.166 84.833 -86.499 137.5
c-43.333 98 -65 208.333 -65 331zM521.001 -698l-39.9971 166.001h15c17.333 0 29.166 0.166992 35.499 0.5s12.5 3.16602 18.5 8.49902c8 7.33301 12 30 12 68h-110v318h323c0 -26 0.166992 -64.833 0.5 -116.5s0.5 -100.5 0.5 -146.5s-3.33301 -87.667 -10 -125
s-17.334 -69 -32.001 -95c-30 -54.667 -86.333 -82 -169 -82c-10.667 0 -25.334 1.33301 -44.001 4z" />
    <glyph glyph-name="gcommaaccent" unicode="&#x123;" horiz-adv-x="965" 
d="M459 378c-12 0 -48.001 5 -108.001 15c-15.333 -30 -23 -48 -23 -54c0 -28.667 41.333 -51 124 -67c36.667 -6.66699 77.167 -13.667 121.5 -21s88.833 -16.833 133.5 -28.5s85.334 -25.834 122.001 -42.501s66.5 -40 89.5 -70s34.5 -68.833 34.5 -116.5
s-8.16699 -92.334 -24.5 -134.001s-38 -75 -65 -100s-60.5 -45.167 -100.5 -60.5c-69.333 -26.667 -156 -40 -260 -40c-320.667 0 -481 78.333 -481 235c0 46 12.667 91.833 38 137.5s58.333 83.167 99 112.5c-78 40 -117 74.667 -117 104c0 38 44.333 113.333 133 226
c-68 124 -102 248.667 -102 374c0 131.333 30.333 243 91 335c30.667 46.667 72.167 83.667 124.5 111s112.833 41 181.5 41c102.667 0 180 -27.667 232 -83c48.667 55.333 130.334 83 245.001 83h42l-28 -241c-66 0 -113.667 -14.667 -143 -44
c28 -50 42 -115.167 42 -195.5s-8.83301 -147.166 -26.5 -200.499s-43 -100.666 -76 -141.999s-75.333 -74 -127 -98s-108.834 -36 -171.501 -36zM461.999 632c54.667 0 82 78.332 82 234.999s-25.667 235 -77 235c-27.333 0 -46.333 -13.333 -57 -40
c-15.333 -36.667 -23.333 -75.167 -24 -115.5s-1 -72.166 -1 -95.499c0 -146 25.667 -219 77 -219zM630.999 -37.001c0 71.333 -91 110 -273 116h-24c-30 -47.333 -45 -89 -45 -125c0 -39.333 74 -59 222 -59c47.333 0 79 6.16699 95 18.5s24.333 28.833 25 49.5z
M573.999 1980l40 -166.001h-15h-35c-6.66699 -1.33301 -13 -4.66602 -19 -9.99902c-8 -7.33301 -12 -29.666 -12 -66.999h110v-318h-323c-2 45.333 -3 88 -3 128c0 123.333 8.66699 217.666 26 282.999c26 100 103 150 231 150z" />
    <glyph glyph-name="Hcircumflex" unicode="&#x124;" horiz-adv-x="1257" 
d="M281 1859l204 441h289l206 -441h-278l-73 171l-73 -171h-275zM165 0v1797h324v-741h280v741h325v-1797h-325v801h-280v-801h-324z" />
    <glyph glyph-name="hcircumflex" unicode="&#x125;" horiz-adv-x="1005" 
d="M431 1005v-1005h-337v1800h337v-588c32.667 36.667 71.5 66.334 116.5 89.001s91 34 138 34s88.5 -14.667 124.5 -44c72 -58 108 -138 108 -240v-1051h-337v963c0 2.66699 0.166992 8.5 0.5 17.5s0.333008 16.333 0 22s-0.666016 13 -0.999023 22s-1.5 16.167 -3.5 21.5
s-4.66699 11 -8 17c-6 11.333 -19.833 17 -41.5 17s-53.834 -25 -96.501 -75zM157 1902l201 406h290l206 -406h-275l-75 202l-73 -202h-274z" />
    <glyph glyph-name="Hbar" unicode="&#x126;" horiz-adv-x="1185" 
d="M97 0v1335h-101v115h101v350h364v-350h261v350h366v-350h100v-115h-100v-1335h-366v803h-261v-803h-364zM461 1062h261v273h-261v-273z" />
    <glyph glyph-name="hbar" unicode="&#x127;" horiz-adv-x="983" 
d="M436 1005v-1005h-337v1460h-99v183h99v157h337v-157h282v-183h-282v-248c32.667 36.667 71.5 66.334 116.5 89.001s90.833 34 137.5 34c48 0 90 -14.667 126 -44c72 -58 107.667 -138 107 -240v-1051h-337v963c0 2.66699 0.166992 8.5 0.5 17.5s0.333008 16.333 0 22
s-0.666016 13 -0.999023 22s-1.5 16.167 -3.5 21.5s-4.66699 11 -8 17c-6 11.333 -19.833 17 -41.5 17s-53.834 -25 -96.501 -75z" />
    <glyph glyph-name="Itilde" unicode="&#x128;" horiz-adv-x="578" 
d="M107 0v1800h364v-1800h-364zM118 1948h-166.995c0.666992 112 17.667 191.333 51 238c29.333 40.667 71.166 61 125.499 61s115.666 -9.66699 183.999 -29s109.166 -29 122.499 -29c13.333 -0.666992 22.666 1.66602 27.999 7c6.66699 6 10 19 10 39h155
c0 -198.667 -52 -298 -156 -298c-33.333 0 -84.5 12.167 -153.5 36.5s-113.833 36.5 -134.5 36.5s-34.334 -1.5 -41.001 -4.5s-11.5 -5.83301 -14.5 -8.5s-5.33301 -8 -7 -16s-2.5 -13 -2.5 -15v-18z" />
    <glyph glyph-name="itilde" unicode="&#x129;" horiz-adv-x="532" 
d="M124 0v1305h337v-1305h-337zM92 1430l-166.995 0.000976562c0.666992 112 17.667 191.333 51 238c29.333 40.667 71.166 61 125.499 61s115.666 -9.66699 183.999 -29s109.166 -29 122.499 -29c13.333 -0.666992 22.666 1.66602 27.999 6.99902c6.66699 6 10 19 10 39
h155c0 -198.667 -52 -298 -156 -298c-33.333 0 -84.5 12.167 -153.5 36.5s-113.833 36.5 -134.5 36.5s-34.334 -1.5 -41.001 -4.5s-11.5 -5.83301 -14.5 -8.5s-5.33301 -8 -7 -16s-2.5 -13 -2.5 -15v-18z" />
    <glyph glyph-name="Imacron" unicode="&#x12a;" horiz-adv-x="578" 
d="M107 0v1800h364v-1800h-364zM36 1937v193h507v-193h-507z" />
    <glyph glyph-name="imacron" unicode="&#x12b;" horiz-adv-x="532" 
d="M124 0v1305h337v-1305h-337zM12 1457v193h507v-193h-507z" />
    <glyph glyph-name="Ibreve" unicode="&#x12c;" horiz-adv-x="578" 
d="M107 0v1800h364v-1800h-364zM36 2185h172.001c0 -43.333 8.66699 -75.333 26 -96s35.666 -31 54.999 -31c19.333 0.666992 35.333 8.33398 48 23c22 26 33 60.667 33 104h172c0 -73.333 -23.667 -133 -71 -179s-108 -69 -182 -69s-134.667 23 -182 69
s-71 105.667 -71 179z" />
    <glyph glyph-name="ibreve" unicode="&#x12d;" horiz-adv-x="532" 
d="M124 0v1305h337v-1305h-337zM39 1684l172.001 -0.000976562c0 -43.333 8.66699 -75.333 26 -96s35.666 -31 54.999 -31c19.333 0.666992 35.333 8.33398 48 23.001c22 26 33 60.667 33 104h172c0 -73.333 -23.667 -133 -71 -179s-108 -69 -182 -69s-134.667 23 -182 69
s-71 105.667 -71 179z" />
    <glyph glyph-name="Iogonek" unicode="&#x12e;" horiz-adv-x="578" 
d="M107 0v1800h364v-1800h-364zM484 -356l-21 -159.999c-14 -1.33301 -28.667 -2 -44 -2c-29.333 0 -61.333 2 -96 6c-53.333 5.33301 -93.5 13.333 -120.5 24s-50.833 23.667 -71.5 39c-44.667 33.333 -67 80.666 -67 141.999s14.667 120.833 44 178.5s65 106.5 107 146.5
h148c-4.66699 -13.333 -12.334 -34 -23.001 -62l-25 -66c-16 -43.333 -24 -80.333 -24 -111s2.66699 -53.167 8 -67.5s13.833 -25.5 25.5 -33.5s22.834 -14.667 33.501 -20c9.33301 -4.66699 23.333 -8 42 -10c24 -2.66699 52 -4 84 -4z" />
    <glyph glyph-name="iogonek" unicode="&#x12f;" horiz-adv-x="529" 
d="M96 0v1305h337v-1305h-337zM96 1419v315h337v-315h-337zM520 -358l-21 -159.999c-14 -1.33301 -28.667 -2 -44 -2c-29.333 0 -61.333 2 -96 6c-53.333 5.33301 -93.5 13.333 -120.5 24s-50.833 23.667 -71.5 39c-44.667 33.333 -67 80.666 -67 141.999
s14.667 120.833 44 178.5s65 106.5 107 146.5h148c-4.66699 -13.333 -12.334 -34 -23.001 -62l-25 -66c-16 -43.333 -24 -80.333 -24 -111s2.66699 -53.167 8 -67.5s13.833 -25.5 25.5 -33.5s22.834 -14.667 33.501 -20c9.33301 -4.66699 23.333 -8 42 -10
c24 -2.66699 52 -4 84 -4z" />
    <glyph glyph-name="Idotaccent" unicode="&#x130;" horiz-adv-x="578" 
d="M107 0v1800h364v-1800h-364zM128 1937v318h323v-318h-323z" />
    <glyph glyph-name="dotlessi" unicode="&#x131;" horiz-adv-x="532" 
d="M124 0v1305h337v-1305h-337z" />
    <glyph glyph-name="IJ" unicode="&#x132;" horiz-adv-x="1269" 
d="M578 -34l-0.000976562 256h12c81.333 0 136 13.333 164 40c29.333 28 44 85.667 44 173v1365h364v-1368c0 -201.333 -38.667 -332 -116 -392c-63.333 -49.333 -159.666 -74 -288.999 -74h-179zM106.999 0v1800h364v-1800h-364z" />
    <glyph glyph-name="ij" unicode="&#x133;" horiz-adv-x="1101" 
d="M508 -284l0.000976562 244c37.333 -10.667 66.666 -16 87.999 -16c50.667 0 76 37 76 111v1250h335v-1279c0 -104.667 -27.5 -187 -82.5 -247s-134.167 -90 -237.5 -90c-50 0 -109.667 9 -179 27zM672.001 1419v315h335v-315h-335zM96.001 0v1305h337v-1305h-337z
M96.001 1419v315h337v-315h-337z" />
    <glyph glyph-name="Jcircumflex" unicode="&#x134;" horiz-adv-x="691" 
d="M0 -34l-0.000976562 256h12c81.333 0 136 13.333 164 40c29.333 28 44 85.667 44 173v1365h364v-1368c0 -201.333 -38.667 -332 -116 -392c-63.333 -49.333 -159.666 -74 -288.999 -74h-179zM42.999 1937l201 406h290l206 -406h-275l-75 202l-73 -202h-274z" />
    <glyph glyph-name="jcircumflex" unicode="&#x135;" horiz-adv-x="641" 
d="M48 -284l0.000976562 244c37.333 -10.667 66.666 -16 87.999 -16c50.667 0 76 37 76 111v1250h335v-1279c0 -104.667 -27.5 -187 -82.5 -247s-134.167 -90 -237.5 -90c-50 0 -109.667 9 -179 27zM31.001 1380l201 406h290l206 -406h-275l-75 202l-73 -202h-274z" />
    <glyph glyph-name="Kcommaaccent" unicode="&#x136;" horiz-adv-x="1187" 
d="M107 0v1800h364v-683l282 683h407l-367 -737l394 -1063h-378l-272 823l-66 -170v-653h-364zM554 -663l-39.9971 166.001h15c17.333 0 29.166 0.166992 35.499 0.5s12.5 3.16602 18.5 8.49902c8 7.33301 12 30 12 68h-110v318h323c0 -26 0.166992 -64.833 0.5 -116.5
s0.5 -100.5 0.5 -146.5s-3.33301 -87.667 -10 -125s-17.334 -69 -32.001 -95c-30 -54.667 -86.333 -82 -169 -82c-10.667 0 -25.334 1.33301 -44.001 4z" />
    <glyph glyph-name="kcommaaccent" unicode="&#x137;" horiz-adv-x="1001" 
d="M99 0v1800h337v-948l206 453h361l-321 -551l320 -754h-349l-172 582l-45 -76v-506h-337z" />
    <glyph glyph-name="kgreenlandic" unicode="&#x138;" horiz-adv-x="1011" 
d="M99 0v1305h337v-423l206 423h331l-271 -561l270 -744h-339l-162 502l-35 -59v-443h-337z" />
    <glyph glyph-name="Lacute" unicode="&#x139;" horiz-adv-x="852" 
d="M107 0v1800h364v-1550h358v-250h-722zM366 1937l136 442h345l-277 -442h-204z" />
    <glyph glyph-name="lacute" unicode="&#x13a;" horiz-adv-x="529" 
d="M96 0v1800h337v-1800h-337zM163 1902l136 442h345l-277 -442h-204z" />
    <glyph glyph-name="Lcommaaccent" unicode="&#x13b;" horiz-adv-x="852" 
d="M107 0v1800h364v-1550h358v-250h-722zM375 -663l-39.9971 166.001h15c17.333 0 29.166 0.166992 35.499 0.5s12.5 3.16602 18.5 8.49902c8 7.33301 12 30 12 68h-110v318h323c0 -26 0.166992 -64.833 0.5 -116.5s0.5 -100.5 0.5 -146.5s-3.33301 -87.667 -10 -125
s-17.334 -69 -32.001 -95c-30 -54.667 -86.333 -82 -169 -82c-10.667 0 -25.334 1.33301 -44.001 4z" />
    <glyph glyph-name="lcommaaccent" unicode="&#x13c;" horiz-adv-x="529" 
d="M96 0v1800h337v-1800h-337zM171 -663l-39.9971 166.001h15c17.333 0 29.166 0.166992 35.499 0.5s12.5 3.16602 18.5 8.49902c8 7.33301 12 30 12 68h-110v318h323c0 -26 0.166992 -64.833 0.5 -116.5s0.5 -100.5 0.5 -146.5s-3.33301 -87.667 -10 -125
s-17.334 -69 -32.001 -95c-30 -54.667 -86.333 -82 -169 -82c-10.667 0 -25.334 1.33301 -44.001 4z" />
    <glyph glyph-name="Lcaron" unicode="&#x13d;" horiz-adv-x="852" 
d="M107 0v1800h364v-1550h358v-250h-722zM731 1274l-40 166.002h15h36c6 1.33301 12 4.66602 18 9.99902c8 7.33301 12 29.666 12 66.999h-110v318h323c0 -164.667 -0.333008 -254 -1 -268c-5.33301 -120.667 -27.333 -203 -66 -247c-30 -34 -74.333 -50.667 -133 -50
c-16.667 0 -34.667 1.33301 -54 4z" />
    <glyph glyph-name="lcaron" unicode="&#x13e;" horiz-adv-x="529" 
d="M96 0v1800h337v-1800h-337zM655 1239l-40 166.002h15h36c6 1.33301 12 4.66602 18 9.99902c8 7.33301 12 29.666 12 66.999h-110v318h323c0 -164.667 -0.333008 -254 -1 -268c-5.33301 -120.667 -27.333 -203 -66 -247c-30 -34 -74.333 -50.667 -133 -50
c-16.667 0 -34.667 1.33301 -54 4z" />
    <glyph glyph-name="Ldot" unicode="&#x13f;" horiz-adv-x="852" 
d="M107 0v1800h364v-1550h358v-250h-722zM627 760v315h323v-315h-323z" />
    <glyph glyph-name="ldot" unicode="&#x140;" horiz-adv-x="529" 
d="M96 0v1800h337v-1800h-337zM600 679v315h323v-315h-323z" />
    <glyph glyph-name="Lslash" unicode="&#x141;" horiz-adv-x="855" 
d="M97 0v887l-82 -31v183l82 31v730h364v-593l257 98v-183l-257 -98v-774h358v-250h-722z" />
    <glyph glyph-name="lslash" unicode="&#x142;" horiz-adv-x="629" 
d="M163 0v924l-181 -68v183l181 68v693h337v-565l186 70v-183l-186 -70v-1052h-337z" />
    <glyph glyph-name="Nacute" unicode="&#x143;" horiz-adv-x="1173" 
d="M107 0v1801h262l395 -942v942h302v-1801h-252l-394 999v-999h-313zM485 1937l136 442h345l-277 -442h-204z" />
    <glyph glyph-name="nacute" unicode="&#x144;" horiz-adv-x="1005" 
d="M94 0v1305h337v-92c32 36.667 70.5 66 115.5 88s91.167 33 138.5 33s89 -14.667 125 -44c72 -57.333 108 -136.666 108 -237.999v-1052h-337v993c0 58 -18.667 87 -56 87c-8.66699 0 -16.167 -1.66699 -22.5 -5l-14.5 -7.5c-3.33301 -1.66699 -7.33301 -4.5 -12 -8.5
c-13.333 -11.333 -22 -19.666 -26 -24.999c-4.66699 -6 -11 -13.333 -19 -22v-1012h-337zM404 1436l136 442h345l-277 -442h-204z" />
    <glyph glyph-name="Ncommaaccent" unicode="&#x145;" horiz-adv-x="1173" 
d="M107 0v1801h262l395 -942v942h302v-1801h-252l-394 999v-999h-313zM493 -663l-39.9971 166.001h15c17.333 0 29.166 0.166992 35.499 0.5s12.5 3.16602 18.5 8.49902c8 7.33301 12 30 12 68h-110v318h323c0 -26 0.166992 -64.833 0.5 -116.5s0.5 -100.5 0.5 -146.5
s-3.33301 -87.667 -10 -125s-17.334 -69 -32.001 -95c-30 -54.667 -86.333 -82 -169 -82c-10.667 0 -25.334 1.33301 -44.001 4z" />
    <glyph glyph-name="ncommaaccent" unicode="&#x146;" horiz-adv-x="1005" 
d="M94 0v1305h337v-92c32 36.667 70.5 66 115.5 88s91.167 33 138.5 33s89 -14.667 125 -44c72 -57.333 108 -136.666 108 -237.999v-1052h-337v993c0 58 -18.667 87 -56 87c-8.66699 0 -16.167 -1.66699 -22.5 -5l-14.5 -7.5c-3.33301 -1.66699 -7.33301 -4.5 -12 -8.5
c-13.333 -11.333 -22 -19.666 -26 -24.999c-4.66699 -6 -11 -13.333 -19 -22v-1012h-337zM413 -663.002l-39.9971 166.001h15c17.333 0 29.166 0.166992 35.499 0.5s12.5 3.16602 18.5 8.49902c8 7.33301 12 30 12 68h-110v318h323c0 -26 0.166992 -64.833 0.5 -116.5
s0.5 -100.5 0.5 -146.5s-3.33301 -87.667 -10 -125s-17.334 -69 -32.001 -95c-30 -54.667 -86.333 -82 -169 -82c-10.667 0 -25.334 1.33301 -44.001 4z" />
    <glyph glyph-name="Ncaron" unicode="&#x147;" horiz-adv-x="1173" 
d="M107 0v1801h262l395 -942v942h302v-1801h-252l-394 999v-999h-313zM439 1937l-201 406h274l73 -201l75 201h275l-206 -406h-290z" />
    <glyph glyph-name="ncaron" unicode="&#x148;" horiz-adv-x="1005" 
d="M94 0v1305h337v-92c32 36.667 70.5 66 115.5 88s91.167 33 138.5 33s89 -14.667 125 -44c72 -57.333 108 -136.666 108 -237.999v-1052h-337v993c0 58 -18.667 87 -56 87c-8.66699 0 -16.167 -1.66699 -22.5 -5l-14.5 -7.5c-3.33301 -1.66699 -7.33301 -4.5 -12 -8.5
c-13.333 -11.333 -22 -19.666 -26 -24.999c-4.66699 -6 -11 -13.333 -19 -22v-1012h-337zM359 1436l-201 406h274l73 -201l75 201h275l-206 -406h-290z" />
    <glyph glyph-name="Omacron" unicode="&#x14c;" horiz-adv-x="1221" 
d="M773 1288c0 177.333 -54.167 266 -162.5 266s-162.5 -88.667 -162.5 -266v-778c0 -176.667 54.167 -265 162.5 -265s162.5 88.333 162.5 265v778zM84 592l0.000976562 605.001c0 425.333 175.5 638 526.5 638s526.5 -212.667 526.5 -638v-596
c0 -324.667 -106.333 -525.667 -319 -603c-60.667 -22 -129.834 -33 -207.501 -33s-146.834 10.833 -207.501 32.5s-110.667 51.167 -150 88.5s-71.666 82.666 -96.999 135.999c-48 100 -72 223.333 -72 370zM357.001 1937v193h507v-193h-507z" />
    <glyph glyph-name="omacron" unicode="&#x14d;" horiz-adv-x="973" 
d="M78 339l0.00195312 555c0 139.333 32.833 247.5 98.5 324.5s168.167 115.5 307.5 115.5s242.666 -38.5 309.999 -115.5s101 -185.167 101 -324.5v-555c0 -108.667 -40.333 -197.167 -121 -265.5s-177.334 -102.5 -290.001 -102.5c-72.667 0 -139.667 14.833 -201 44.5
s-110.833 73 -148.5 130s-56.5 121.5 -56.5 193.5zM561.002 335v645.999c0 66 -25.667 99 -77 99c-46 0 -69 -33 -69 -99v-646c0 -53.333 10 -86.666 30 -99.999c10 -6.66699 23 -10 39 -10c51.333 0 77 36.667 77 110zM233.002 1436v193h507v-193h-507z" />
    <glyph glyph-name="Obreve" unicode="&#x14e;" horiz-adv-x="1221" 
d="M773 1288c0 177.333 -54.167 266 -162.5 266s-162.5 -88.667 -162.5 -266v-778c0 -176.667 54.167 -265 162.5 -265s162.5 88.333 162.5 265v778zM84 592l0.000976562 605.001c0 425.333 175.5 638 526.5 638s526.5 -212.667 526.5 -638v-596
c0 -324.667 -106.333 -525.667 -319 -603c-60.667 -22 -129.834 -33 -207.501 -33s-146.834 10.833 -207.501 32.5s-110.667 51.167 -150 88.5s-71.666 82.666 -96.999 135.999c-48 100 -72 223.333 -72 370zM357.001 2185l172.001 -0.000976562
c0 -43.333 8.66699 -75.333 26 -96s35.666 -31 54.999 -31c19.333 0.666992 35.333 8.33398 48 23.001c22 26 33 60.667 33 104h172c0 -73.333 -23.667 -133 -71 -179s-108 -69 -182 -69s-134.667 23 -182 69s-71 105.667 -71 179z" />
    <glyph glyph-name="obreve" unicode="&#x14f;" horiz-adv-x="973" 
d="M78 339l0.00195312 555c0 139.333 32.833 247.5 98.5 324.5s168.167 115.5 307.5 115.5s242.666 -38.5 309.999 -115.5s101 -185.167 101 -324.5v-555c0 -108.667 -40.333 -197.167 -121 -265.5s-177.334 -102.5 -290.001 -102.5c-72.667 0 -139.667 14.833 -201 44.5
s-110.833 73 -148.5 130s-56.5 121.5 -56.5 193.5zM561.002 335v645.999c0 66 -25.667 99 -77 99c-46 0 -69 -33 -69 -99v-646c0 -53.333 10 -86.666 30 -99.999c10 -6.66699 23 -10 39 -10c51.333 0 77 36.667 77 110zM233.002 1684l172.001 -0.000976562
c0 -43.333 8.66699 -75.333 26 -96s35.666 -31 54.999 -31c19.333 0.666992 35.333 8.33398 48 23.001c22 26 33 60.667 33 104h172c0 -73.333 -23.667 -133 -71 -179s-108 -69 -182 -69s-134.667 23 -182 69s-71 105.667 -71 179z" />
    <glyph glyph-name="Ohungarumlaut" unicode="&#x150;" horiz-adv-x="1221" 
d="M773 1288c0 177.333 -54.167 266 -162.5 266s-162.5 -88.667 -162.5 -266v-778c0 -176.667 54.167 -265 162.5 -265s162.5 88.333 162.5 265v778zM84 592l0.000976562 605.001c0 425.333 175.5 638 526.5 638s526.5 -212.667 526.5 -638v-596
c0 -324.667 -106.333 -525.667 -319 -603c-60.667 -22 -129.834 -33 -207.501 -33s-146.834 10.833 -207.501 32.5s-110.667 51.167 -150 88.5s-71.666 82.666 -96.999 135.999c-48 100 -72 223.333 -72 370zM349.001 1937l137 442h283l-215 -442h-205zM665.001 1937
l137 442h285l-215 -442h-207z" />
    <glyph glyph-name="ohungarumlaut" unicode="&#x151;" horiz-adv-x="973" 
d="M78 339l0.00195312 555c0 139.333 32.833 247.5 98.5 324.5s168.167 115.5 307.5 115.5s242.666 -38.5 309.999 -115.5s101 -185.167 101 -324.5v-555c0 -108.667 -40.333 -197.167 -121 -265.5s-177.334 -102.5 -290.001 -102.5c-72.667 0 -139.667 14.833 -201 44.5
s-110.833 73 -148.5 130s-56.5 121.5 -56.5 193.5zM561.002 335v645.999c0 66 -25.667 99 -77 99c-46 0 -69 -33 -69 -99v-646c0 -53.333 10 -86.666 30 -99.999c10 -6.66699 23 -10 39 -10c51.333 0 77 36.667 77 110zM225.002 1436l137 442h283l-215 -442h-205z
M541.002 1436l137 442h285l-215 -442h-207z" />
    <glyph glyph-name="OE" unicode="&#x152;" horiz-adv-x="1555" 
d="M84 609v571c0 228.667 55.667 395 167 499c86 80 205.667 120 359 120h914v-249h-387v-490h274v-256h-274v-554h387v-250h-914c-350.667 0 -526 203 -526 609zM610 1537c-108 0 -162 -88.667 -162 -266v-753c0 -176.667 54 -265 162 -265h163v1284h-163z" />
    <glyph glyph-name="oe" unicode="&#x153;" horiz-adv-x="1436" 
d="M1037 384l-2.99805 102h334v-147c0 -108.667 -38.333 -197.334 -115 -266.001s-164.167 -103 -262.5 -103s-184.833 29 -259.5 87c-79.333 -58 -169.5 -87 -270.5 -87s-189.167 34.333 -264.5 103s-113 157.334 -113 266.001v555c0 139.333 32.833 247.5 98.5 324.5
s168.167 115.5 307.5 115.5c96 0 176.667 -26.333 242 -79c69.333 52.667 154.666 79 255.999 79c129.333 0 225.166 -38.5 287.499 -115.5s93.5 -185.167 93.5 -324.5v-270h-465v-278c0 -73.333 21.333 -110 64 -110c46.667 0 70 49.333 70 148zM566.002 339v624.999
c0 66 -25.667 99 -77 99c-46 0 -69 -33 -69 -99v-618c0 -53.333 10 -86.666 30 -99.999c10 -6.66699 23 -10 39 -10c50 0 75.667 34.333 77 103zM903.002 800.999h131v163c0 66 -21.833 99 -65.5 99s-65.5 -33 -65.5 -99v-163z" />
    <glyph glyph-name="Racute" unicode="&#x154;" horiz-adv-x="1134" 
d="M107 0v1800h396c283.333 0 461.333 -84 534 -252c26.667 -61.333 40 -135.333 40 -222c0 -128 -20.667 -228 -62 -300c-38.667 -67.333 -99.667 -119.333 -183 -156l282 -870h-377l-206 829h-60v-829h-364zM471 1051l104.001 -0.00292969c28 0 52 9.33301 72 28
s34.5 42.334 43.5 71.001s15.333 55 19 79s5.5 46.667 5.5 68s-1.5 43.333 -4.5 66s-8.33301 47.834 -16 75.501s-20.334 50.334 -38.001 68.001s-39.167 26.5 -64.5 26.5h-121v-482zM509.001 1937l136 442h345l-277 -442h-204z" />
    <glyph glyph-name="racute" unicode="&#x155;" horiz-adv-x="714" 
d="M569 1040c-93.333 0 -139.999 -54.667 -139.999 -164v-876h-335v1305h335v-106c51.333 83.333 111.333 125 180 125c19.333 0 49.666 -3.33301 90.999 -10v-284c-62 6.66699 -105.667 10 -131 10zM295.001 1436l136 442h345l-277 -442h-204z" />
    <glyph glyph-name="Rcommaaccent" unicode="&#x156;" horiz-adv-x="1134" 
d="M107 0v1800h396c283.333 0 461.333 -84 534 -252c26.667 -61.333 40 -135.333 40 -222c0 -128 -20.667 -228 -62 -300c-38.667 -67.333 -99.667 -119.333 -183 -156l282 -870h-377l-206 829h-60v-829h-364zM471 1051l104.001 -0.00292969c28 0 52 9.33301 72 28
s34.5 42.334 43.5 71.001s15.333 55 19 79s5.5 46.667 5.5 68s-1.5 43.333 -4.5 66s-8.33301 47.834 -16 75.501s-20.334 50.334 -38.001 68.001s-39.167 26.5 -64.5 26.5h-121v-482zM517.001 -663.003l-39.9971 166.001h15c17.333 0 29.166 0.166992 35.499 0.5
s12.5 3.16602 18.5 8.49902c8 7.33301 12 30 12 68h-110v318h323c0 -26 0.166992 -64.833 0.5 -116.5s0.5 -100.5 0.5 -146.5s-3.33301 -87.667 -10 -125s-17.334 -69 -32.001 -95c-30 -54.667 -86.333 -82 -169 -82c-10.667 0 -25.334 1.33301 -44.001 4z" />
    <glyph glyph-name="rcommaaccent" unicode="&#x157;" horiz-adv-x="714" 
d="M569 1040c-93.333 0 -139.999 -54.667 -139.999 -164v-876h-335v1305h335v-106c51.333 83.333 111.333 125 180 125c19.333 0 49.666 -3.33301 90.999 -10v-284c-62 6.66699 -105.667 10 -131 10zM244.001 -663l-39.9971 166.001h15c17.333 0 29.166 0.166992 35.499 0.5
s12.5 3.16602 18.5 8.49902c8 7.33301 12 30 12 68h-110v318h323c0 -26 0.166992 -64.833 0.5 -116.5s0.5 -100.5 0.5 -146.5s-3.33301 -87.667 -10 -125s-17.334 -69 -32.001 -95c-30 -54.667 -86.333 -82 -169 -82c-10.667 0 -25.334 1.33301 -44.001 4z" />
    <glyph glyph-name="Rcaron" unicode="&#x158;" horiz-adv-x="1134" 
d="M107 0v1800h396c283.333 0 461.333 -84 534 -252c26.667 -61.333 40 -135.333 40 -222c0 -128 -20.667 -228 -62 -300c-38.667 -67.333 -99.667 -119.333 -183 -156l282 -870h-377l-206 829h-60v-829h-364zM471 1051l104.001 -0.00292969c28 0 52 9.33301 72 28
s34.5 42.334 43.5 71.001s15.333 55 19 79s5.5 46.667 5.5 68s-1.5 43.333 -4.5 66s-8.33301 47.834 -16 75.501s-20.334 50.334 -38.001 68.001s-39.167 26.5 -64.5 26.5h-121v-482zM463.001 1937l-201 406h274l73 -201l75 201h275l-206 -406h-290z" />
    <glyph glyph-name="rcaron" unicode="&#x159;" horiz-adv-x="714" 
d="M569 1040c-93.333 0 -139.999 -54.667 -139.999 -164v-876h-335v1305h335v-106c51.333 83.333 111.333 125 180 125c19.333 0 49.666 -3.33301 90.999 -10v-284c-62 6.66699 -105.667 10 -131 10zM249.001 1436l-201 406h274l73 -201l75 201h275l-206 -406h-290z" />
    <glyph glyph-name="Sacute" unicode="&#x15a;" horiz-adv-x="1073" 
d="M636 1278l3.00098 72.998c0 138 -38.333 207 -115 207c-40 0 -70 -15.667 -90 -47s-30 -67 -30 -107s5.83301 -76.333 17.5 -109s29.334 -63.167 53.001 -91.5s45.5 -51.833 65.5 -70.5s46.667 -41.5 80 -68.5l99 -84c32.667 -29 66.667 -63.333 102 -103
s68.666 -84.5 99.999 -134.5c62.667 -100 94 -214.833 94 -344.5s-45 -234.667 -135 -315s-199.333 -120.5 -328 -120.5c-83.333 0 -157.333 15.333 -222 46c-64 30.667 -116 72.334 -156 125.001c-78.667 104.667 -121.667 231.667 -129 381l369 71c0 -128 12 -218 36 -270
c22.667 -49.333 57 -74 103 -74c72 0 108 46 108 138c0 126 -71 251.333 -213 376l-113 96c-114 96 -190.333 180.667 -229 254c-40 76.667 -60 162.334 -60 257.001c0 146 46.333 261.5 139 346.5s215.667 127.5 369 127.5c127.333 0 235.666 -45.333 324.999 -136
s134 -200 134 -328l-1 -13v-30zM440.001 1939l136 442h345l-277 -442h-204z" />
    <glyph glyph-name="sacute" unicode="&#x15b;" horiz-adv-x="874" 
d="M38 315l258.001 92.002c23.333 -70.667 42.333 -115 57 -133c29.333 -37.333 58.666 -56 87.999 -56c42 0 63 24.667 63 74s-28.667 102 -86 158c-30 29.333 -68 63.666 -114 102.999l-55 47c-71.333 62 -127.333 123 -168 183s-61 122.5 -61 187.5
s11.833 120.333 35.5 166s55.5 82.5 95.5 110.5c82.667 58 179.667 87 291 87c97.333 0 183.333 -38 258 -114c68.667 -70 116.667 -153.667 144 -251l-242 -83c-29.333 73.333 -52.666 120 -69.999 140c-34 39.333 -65 59 -93 59s-48.5 -8.33301 -61.5 -25
s-19.5 -37.667 -19.5 -63c0 -44 60.667 -116.667 182 -218l62 -55c114.667 -102.667 186.667 -195.667 216 -279c13.333 -36.667 19.666 -73.334 18.999 -110.001c0 -105.333 -37.167 -192.333 -111.5 -261s-163.333 -103 -267 -103s-192.5 31.667 -266.5 95
s-125.333 146.333 -154 249zM315.001 1392l136 442h345l-277 -442h-204z" />
    <glyph glyph-name="Scircumflex" unicode="&#x15c;" horiz-adv-x="1073" 
d="M636 1278l3.00098 72.998c0 138 -38.333 207 -115 207c-40 0 -70 -15.667 -90 -47s-30 -67 -30 -107s5.83301 -76.333 17.5 -109s29.334 -63.167 53.001 -91.5s45.5 -51.833 65.5 -70.5s46.667 -41.5 80 -68.5l99 -84c32.667 -29 66.667 -63.333 102 -103
s68.666 -84.5 99.999 -134.5c62.667 -100 94 -214.833 94 -344.5s-45 -234.667 -135 -315s-199.333 -120.5 -328 -120.5c-83.333 0 -157.333 15.333 -222 46c-64 30.667 -116 72.334 -156 125.001c-78.667 104.667 -121.667 231.667 -129 381l369 71c0 -128 12 -218 36 -270
c22.667 -49.333 57 -74 103 -74c72 0 108 46 108 138c0 126 -71 251.333 -213 376l-113 96c-114 96 -190.333 180.667 -229 254c-40 76.667 -60 162.334 -60 257.001c0 146 46.333 261.5 139 346.5s215.667 127.5 369 127.5c127.333 0 235.666 -45.333 324.999 -136
s134 -200 134 -328l-1 -13v-30zM193.001 1939l201 406h290l206 -406h-275l-75 202l-73 -202h-274z" />
    <glyph glyph-name="scircumflex" unicode="&#x15d;" horiz-adv-x="874" 
d="M38 315l258.001 92.002c23.333 -70.667 42.333 -115 57 -133c29.333 -37.333 58.666 -56 87.999 -56c42 0 63 24.667 63 74s-28.667 102 -86 158c-30 29.333 -68 63.666 -114 102.999l-55 47c-71.333 62 -127.333 123 -168 183s-61 122.5 -61 187.5
s11.833 120.333 35.5 166s55.5 82.5 95.5 110.5c82.667 58 179.667 87 291 87c97.333 0 183.333 -38 258 -114c68.667 -70 116.667 -153.667 144 -251l-242 -83c-29.333 73.333 -52.666 120 -69.999 140c-34 39.333 -65 59 -93 59s-48.5 -8.33301 -61.5 -25
s-19.5 -37.667 -19.5 -63c0 -44 60.667 -116.667 182 -218l62 -55c114.667 -102.667 186.667 -195.667 216 -279c13.333 -36.667 19.666 -73.334 18.999 -110.001c0 -105.333 -37.167 -192.333 -111.5 -261s-163.333 -103 -267 -103s-192.5 31.667 -266.5 95
s-125.333 146.333 -154 249zM97.001 1436l201 406h290l206 -406h-275l-75 202l-73 -202h-274z" />
    <glyph glyph-name="Scedilla" unicode="&#x15e;" horiz-adv-x="1073" 
d="M636 1278l3.00098 72.998c0 138 -38.333 207 -115 207c-40 0 -70 -15.667 -90 -47s-30 -67 -30 -107s5.83301 -76.333 17.5 -109s29.334 -63.167 53.001 -91.5s45.5 -51.833 65.5 -70.5s46.667 -41.5 80 -68.5l99 -84c32.667 -29 66.667 -63.333 102 -103
s68.666 -84.5 99.999 -134.5c62.667 -100 94 -214.833 94 -344.5s-45 -234.667 -135 -315s-199.333 -120.5 -328 -120.5c-83.333 0 -157.333 15.333 -222 46c-64 30.667 -116 72.334 -156 125.001c-78.667 104.667 -121.667 231.667 -129 381l369 71c0 -128 12 -218 36 -270
c22.667 -49.333 57 -74 103 -74c72 0 108 46 108 138c0 126 -71 251.333 -213 376l-113 96c-114 96 -190.333 180.667 -229 254c-40 76.667 -60 162.334 -60 257.001c0 146 46.333 261.5 139 346.5s215.667 127.5 369 127.5c127.333 0 235.666 -45.333 324.999 -136
s134 -200 134 -328l-1 -13v-30zM458.001 -419.002c109.333 0 163.667 14.333 163 43c0 14 -4.16699 25.167 -12.5 33.5l-20.5 20c-5.33301 5 -12.666 10 -21.999 15l-23 12.5c-6 3.33301 -14.5 7.16602 -25.5 11.499s-18.667 7.5 -23 9.5s-11.5 4.66699 -21.5 8
s-15.667 5.33301 -17 6v242h171v-129c147.333 -69.333 221 -147 221 -233c0 -78.667 -44.667 -132.667 -134 -162c-74.667 -25.333 -179.334 -37.666 -314.001 -36.999v161z" />
    <glyph glyph-name="scedilla" unicode="&#x15f;" horiz-adv-x="874" 
d="M38 315l258.001 92.002c23.333 -70.667 42.333 -115 57 -133c29.333 -37.333 58.666 -56 87.999 -56c42 0 63 24.667 63 74s-28.667 102 -86 158c-30 29.333 -68 63.666 -114 102.999l-55 47c-71.333 62 -127.333 123 -168 183s-61 122.5 -61 187.5
s11.833 120.333 35.5 166s55.5 82.5 95.5 110.5c82.667 58 179.667 87 291 87c97.333 0 183.333 -38 258 -114c68.667 -70 116.667 -153.667 144 -251l-242 -83c-29.333 73.333 -52.666 120 -69.999 140c-34 39.333 -65 59 -93 59s-48.5 -8.33301 -61.5 -25
s-19.5 -37.667 -19.5 -63c0 -44 60.667 -116.667 182 -218l62 -55c114.667 -102.667 186.667 -195.667 216 -279c13.333 -36.667 19.666 -73.334 18.999 -110.001c0 -105.333 -37.167 -192.333 -111.5 -261s-163.333 -103 -267 -103s-192.5 31.667 -266.5 95
s-125.333 146.333 -154 249zM362.001 -410.998c109.333 0 163.667 14.333 163 43c0 14 -4.16699 25.167 -12.5 33.5l-20.5 20c-5.33301 5 -12.666 10 -21.999 15l-23 12.5c-6 3.33301 -14.5 7.16602 -25.5 11.499s-18.667 7.5 -23 9.5s-11.5 4.66699 -21.5 8
s-15.667 5.33301 -17 6v242h171v-129c147.333 -69.333 221 -147 221 -233c0 -78.667 -44.667 -132.667 -134 -162c-74.667 -25.333 -179.334 -37.666 -314.001 -36.999v161z" />
    <glyph glyph-name="Scaron" unicode="&#x160;" horiz-adv-x="1073" 
d="M636 1278l3.00098 72.998c0 138 -38.333 207 -115 207c-40 0 -70 -15.667 -90 -47s-30 -67 -30 -107s5.83301 -76.333 17.5 -109s29.334 -63.167 53.001 -91.5s45.5 -51.833 65.5 -70.5s46.667 -41.5 80 -68.5l99 -84c32.667 -29 66.667 -63.333 102 -103
s68.666 -84.5 99.999 -134.5c62.667 -100 94 -214.833 94 -344.5s-45 -234.667 -135 -315s-199.333 -120.5 -328 -120.5c-83.333 0 -157.333 15.333 -222 46c-64 30.667 -116 72.334 -156 125.001c-78.667 104.667 -121.667 231.667 -129 381l369 71c0 -128 12 -218 36 -270
c22.667 -49.333 57 -74 103 -74c72 0 108 46 108 138c0 126 -71 251.333 -213 376l-113 96c-114 96 -190.333 180.667 -229 254c-40 76.667 -60 162.334 -60 257.001c0 146 46.333 261.5 139 346.5s215.667 127.5 369 127.5c127.333 0 235.666 -45.333 324.999 -136
s134 -200 134 -328l-1 -13v-30zM395.001 1939l-201 406h274l73 -201l75 201h275l-206 -406h-290z" />
    <glyph glyph-name="scaron" unicode="&#x161;" horiz-adv-x="874" 
d="M38 315l258.001 92.002c23.333 -70.667 42.333 -115 57 -133c29.333 -37.333 58.666 -56 87.999 -56c42 0 63 24.667 63 74s-28.667 102 -86 158c-30 29.333 -68 63.666 -114 102.999l-55 47c-71.333 62 -127.333 123 -168 183s-61 122.5 -61 187.5
s11.833 120.333 35.5 166s55.5 82.5 95.5 110.5c82.667 58 179.667 87 291 87c97.333 0 183.333 -38 258 -114c68.667 -70 116.667 -153.667 144 -251l-242 -83c-29.333 73.333 -52.666 120 -69.999 140c-34 39.333 -65 59 -93 59s-48.5 -8.33301 -61.5 -25
s-19.5 -37.667 -19.5 -63c0 -44 60.667 -116.667 182 -218l62 -55c114.667 -102.667 186.667 -195.667 216 -279c13.333 -36.667 19.666 -73.334 18.999 -110.001c0 -105.333 -37.167 -192.333 -111.5 -261s-163.333 -103 -267 -103s-192.5 31.667 -266.5 95
s-125.333 146.333 -154 249zM280.001 1370l-201 406h274l73 -201l75 201h275l-206 -406h-290z" />
    <glyph glyph-name="Tcaron" unicode="&#x164;" horiz-adv-x="921" 
d="M278 0v1528h-264v272h887v-272h-259v-1528h-364zM313 1937l-201 406h274l73 -201l75 201h275l-206 -406h-290z" />
    <glyph glyph-name="tcaron" unicode="&#x165;" horiz-adv-x="668" 
d="M117 448l0.00390625 632h-96v225h96v429h337v-429h162v-225h-162v-713c0 -36 6.66699 -62.833 20 -80.5s38.166 -26.5 74.499 -26.5s67.833 2 94.5 6v-261c-44 -13.333 -100.333 -20 -169 -20s-118.834 4.66699 -150.501 14s-58.334 21.833 -80.001 37.5
s-40.334 35.5 -56.001 59.5s-28.167 48.667 -37.5 74c-8 24.667 -14.667 53.667 -20 87c-8 55.333 -12.333 119 -13 191zM765.004 1173l-40 166.002h15h36c6 1.33301 12 4.66602 18 9.99902c8 7.33301 12 29.666 12 66.999h-110v318h323c0 -164.667 -0.333008 -254 -1 -268
c-5.33301 -120.667 -27.333 -203 -66 -247c-30 -34 -74.333 -50.667 -133 -50c-16.667 0 -34.667 1.33301 -54 4z" />
    <glyph glyph-name="Utilde" unicode="&#x168;" 
d="M453 1968h-166.995c0.666992 112 17.667 191.333 51 238c29.333 40.667 71.166 61 125.499 61s115.666 -9.66699 183.999 -29s109.166 -29 122.499 -29c13.333 -0.666992 22.666 1.66602 27.999 7c6.66699 6 10 19 10 39h155c0 -198.667 -52 -298 -156 -298
c-33.333 0 -84.5 12.167 -153.5 36.5s-113.833 36.5 -134.5 36.5s-34.334 -1.5 -41.001 -4.5s-11.5 -5.83301 -14.5 -8.5s-5.33301 -8 -7 -16s-2.5 -13 -2.5 -15v-18zM99.0049 669l-0.00683594 1131h364v-1120c0 -188.667 5 -295.5 15 -320.5s20.833 -47.167 32.5 -66.5
s26.834 -32 45.501 -38s41.334 -9 68.001 -9s49.334 3 68.001 9s33.834 18.5 45.501 37.5s20.834 36.833 27.501 53.5c6.66699 16 11.334 44.667 14.001 86c4 61.333 6 117.666 6 168.999v1199h364v-1131c0 -190 -20.667 -334.333 -62 -433
c-36.667 -88 -89.667 -153.667 -159 -197c-79.333 -49.333 -180.666 -74 -303.999 -74c-232.667 0.666992 -386.667 91 -462 271c-42 100 -63 244.333 -63 433z" />
    <glyph glyph-name="utilde" unicode="&#x169;" horiz-adv-x="1006" 
d="M328 1467l-166.995 0.000976562c0.666992 112 17.667 191.333 51 238c29.333 40.667 71.166 61 125.499 61s115.666 -9.66699 183.999 -29s109.166 -29 122.499 -29c13.333 -0.666992 22.666 1.66602 27.999 6.99902c6.66699 6 10 19 10 39h155
c0 -198.667 -52 -298 -156 -298c-33.333 0 -84.5 12.167 -153.5 36.5s-113.833 36.5 -134.5 36.5s-34.334 -1.5 -41.001 -4.5s-11.5 -5.83301 -14.5 -8.5s-5.33301 -8 -7 -16s-2.5 -13 -2.5 -15v-18zM87.0049 253.001l0.000976562 1052h337v-970
c0 -73.333 15.167 -110 45.5 -110s65.5 24.667 105.5 74v1006h337v-1305h-337v113c-34 -41.333 -73.667 -75.333 -119 -102s-91.333 -40 -138 -40c-68.667 0 -124.334 29.167 -167.001 87.5s-64 123.166 -64 194.499z" />
    <glyph glyph-name="Umacron" unicode="&#x16a;" 
d="M99 669l-0.00683594 1131h364v-1120c0 -188.667 5 -295.5 15 -320.5s20.833 -47.167 32.5 -66.5s26.834 -32 45.501 -38s41.334 -9 68.001 -9s49.334 3 68.001 9s33.834 18.5 45.501 37.5s20.834 36.833 27.501 53.5c6.66699 16 11.334 44.667 14.001 86
c4 61.333 6 117.666 6 168.999v1199h364v-1131c0 -190 -20.667 -334.333 -62 -433c-36.667 -88 -89.667 -153.667 -159 -197c-79.333 -49.333 -180.666 -74 -303.999 -74c-232.667 0.666992 -386.667 91 -462 271c-42 100 -63 244.333 -63 433zM369.993 1937v193h507v-193
h-507z" />
    <glyph glyph-name="umacron" unicode="&#x16b;" horiz-adv-x="1006" 
d="M87 253l0.000976562 1052h337v-970c0 -73.333 15.167 -110 45.5 -110s65.5 24.667 105.5 74v1006h337v-1305h-337v113c-34 -41.333 -73.667 -75.333 -119 -102s-91.333 -40 -138 -40c-68.667 0 -124.334 29.167 -167.001 87.5s-64 123.166 -64 194.499zM247.001 1457v193
h507v-193h-507z" />
    <glyph glyph-name="Ubreve" unicode="&#x16c;" 
d="M99 669l-0.00683594 1131h364v-1120c0 -188.667 5 -295.5 15 -320.5s20.833 -47.167 32.5 -66.5s26.834 -32 45.501 -38s41.334 -9 68.001 -9s49.334 3 68.001 9s33.834 18.5 45.501 37.5s20.834 36.833 27.501 53.5c6.66699 16 11.334 44.667 14.001 86
c4 61.333 6 117.666 6 168.999v1199h364v-1131c0 -190 -20.667 -334.333 -62 -433c-36.667 -88 -89.667 -153.667 -159 -197c-79.333 -49.333 -180.666 -74 -303.999 -74c-232.667 0.666992 -386.667 91 -462 271c-42 100 -63 244.333 -63 433zM370.993 2185
l172.001 -0.000976562c0 -43.333 8.66699 -75.333 26 -96s35.666 -31 54.999 -31c19.333 0.666992 35.333 8.33398 48 23.001c22 26 33 60.667 33 104h172c0 -73.333 -23.667 -133 -71 -179s-108 -69 -182 -69s-134.667 23 -182 69s-71 105.667 -71 179z" />
    <glyph glyph-name="ubreve" unicode="&#x16d;" horiz-adv-x="1006" 
d="M87 253l0.000976562 1052h337v-970c0 -73.333 15.167 -110 45.5 -110s65.5 24.667 105.5 74v1006h337v-1305h-337v113c-34 -41.333 -73.667 -75.333 -119 -102s-91.333 -40 -138 -40c-68.667 0 -124.334 29.167 -167.001 87.5s-64 123.166 -64 194.499zM247.001 1684
l172.001 -0.000976562c0 -43.333 8.66699 -75.333 26 -96s35.666 -31 54.999 -31c19.333 0.666992 35.333 8.33398 48 23.001c22 26 33 60.667 33 104h172c0 -73.333 -23.667 -133 -71 -179s-108 -69 -182 -69s-134.667 23 -182 69s-71 105.667 -71 179z" />
    <glyph glyph-name="Uring" unicode="&#x16e;" 
d="M99 669l-0.00683594 1131h364v-1120c0 -188.667 5 -295.5 15 -320.5s20.833 -47.167 32.5 -66.5s26.834 -32 45.501 -38s41.334 -9 68.001 -9s49.334 3 68.001 9s33.834 18.5 45.501 37.5s20.834 36.833 27.501 53.5c6.66699 16 11.334 44.667 14.001 86
c4 61.333 6 117.666 6 168.999v1199h364v-1131c0 -190 -20.667 -334.333 -62 -433c-36.667 -88 -89.667 -153.667 -159 -197c-79.333 -49.333 -180.666 -74 -303.999 -74c-232.667 0.666992 -386.667 91 -462 271c-42 100 -63 244.333 -63 433zM562.993 2095
c13.333 -24.667 33.333 -37.001 60 -37.001s46.5 12.333 59.5 37s19.5 51.334 19.5 80.001s-6.5 55.667 -19.5 81s-32.667 38 -59 38s-46.333 -12.333 -60 -37s-20.5 -51.667 -20.5 -81s6.66699 -56.333 20 -81zM370.993 2176c0 72.667 23.833 130.668 71.5 174.001
s108.167 65 181.5 65s133.833 -21.667 181.5 -65s71.5 -101.333 71.5 -174s-23.833 -130.667 -71.5 -174s-108.167 -65 -181.5 -65s-133.833 21.667 -181.5 65s-71.5 101.333 -71.5 173.999z" />
    <glyph glyph-name="uring" unicode="&#x16f;" horiz-adv-x="1006" 
d="M87 253l0.000976562 1052h337v-970c0 -73.333 15.167 -110 45.5 -110s65.5 24.667 105.5 74v1006h337v-1305h-337v113c-34 -41.333 -73.667 -75.333 -119 -102s-91.333 -40 -138 -40c-68.667 0 -124.334 29.167 -167.001 87.5s-64 123.166 -64 194.499zM439.001 1594
c13.333 -24.667 33.333 -37.001 60 -37.001s46.5 12.333 59.5 37s19.5 51.334 19.5 80.001s-6.5 55.667 -19.5 81s-32.667 38 -59 38s-46.333 -12.333 -60 -37s-20.5 -51.667 -20.5 -81s6.66699 -56.333 20 -81zM247.001 1675c0 72.667 23.833 130.667 71.5 174
s108.167 65 181.5 65s133.833 -21.667 181.5 -65s71.5 -101.333 71.5 -174s-23.833 -130.667 -71.5 -174s-108.167 -65 -181.5 -65s-133.833 21.667 -181.5 65s-71.5 101.333 -71.5 174z" />
    <glyph glyph-name="Uhungarumlaut" unicode="&#x170;" 
d="M99 669l-0.00683594 1131h364v-1120c0 -188.667 5 -295.5 15 -320.5s20.833 -47.167 32.5 -66.5s26.834 -32 45.501 -38s41.334 -9 68.001 -9s49.334 3 68.001 9s33.834 18.5 45.501 37.5s20.834 36.833 27.501 53.5c6.66699 16 11.334 44.667 14.001 86
c4 61.333 6 117.666 6 168.999v1199h364v-1131c0 -190 -20.667 -334.333 -62 -433c-36.667 -88 -89.667 -153.667 -159 -197c-79.333 -49.333 -180.666 -74 -303.999 -74c-232.667 0.666992 -386.667 91 -462 271c-42 100 -63 244.333 -63 433zM362.993 1937l137 442h283
l-215 -442h-205zM678.993 1937l137 442h285l-215 -442h-207z" />
    <glyph glyph-name="uhungarumlaut" unicode="&#x171;" horiz-adv-x="1006" 
d="M87 253l0.000976562 1052h337v-970c0 -73.333 15.167 -110 45.5 -110s65.5 24.667 105.5 74v1006h337v-1305h-337v113c-34 -41.333 -73.667 -75.333 -119 -102s-91.333 -40 -138 -40c-68.667 0 -124.334 29.167 -167.001 87.5s-64 123.166 -64 194.499zM238.001 1436
l137 442h283l-215 -442h-205zM554.001 1436l137 442h285l-215 -442h-207z" />
    <glyph glyph-name="Uogonek" unicode="&#x172;" 
d="M99 669l-0.00683594 1131h364v-1120c0 -188.667 5 -295.5 15 -320.5s20.833 -47.167 32.5 -66.5s26.834 -32 45.501 -38s41.334 -9 68.001 -9s49.334 3 68.001 9s33.834 18.5 45.501 37.5s20.834 36.833 27.501 53.5c6.66699 16 11.334 44.667 14.001 86
c4 61.333 6 117.666 6 168.999v1199h364v-1131c0 -190 -20.667 -334.333 -62 -433c-36.667 -88 -89.667 -153.667 -159 -197c-79.333 -49.333 -180.666 -74 -303.999 -74c-232.667 0.666992 -386.667 91 -462 271c-42 100 -63 244.333 -63 433zM818.993 -390.999
l-21 -159.999c-14 -1.33301 -28.667 -2 -44 -2c-29.333 0 -61.333 2 -96 6c-53.333 5.33301 -93.5 13.333 -120.5 24s-50.833 23.667 -71.5 39c-44.667 33.333 -67 80.666 -67 141.999s14.667 120.833 44 178.5s65 106.5 107 146.5h148
c-4.66699 -13.333 -12.334 -34 -23.001 -62l-25 -66c-16 -43.333 -24 -80.333 -24 -111s2.66699 -53.167 8 -67.5s13.833 -25.5 25.5 -33.5s22.834 -14.667 33.501 -20c9.33301 -4.66699 23.333 -8 42 -10c24 -2.66699 52 -4 84 -4z" />
    <glyph glyph-name="uogonek" unicode="&#x173;" horiz-adv-x="1006" 
d="M87 253l0.000976562 1052h337v-970c0 -73.333 15.167 -110 45.5 -110s65.5 24.667 105.5 74v1006h337v-1305h-337v113c-34 -41.333 -73.667 -75.333 -119 -102s-91.333 -40 -138 -40c-68.667 0 -124.334 29.167 -167.001 87.5s-64 123.166 -64 194.499zM903.001 -365.999
l-21 -159.999c-14 -1.33301 -28.667 -2 -44 -2c-29.333 0 -61.333 2 -96 6c-53.333 5.33301 -93.5 13.333 -120.5 24s-50.833 23.667 -71.5 39c-44.667 33.333 -67 80.666 -67 141.999s14.667 120.833 44 178.5s65 106.5 107 146.5h148
c-4.66699 -13.333 -12.334 -34 -23.001 -62l-25 -66c-16 -43.333 -24 -80.333 -24 -111s2.66699 -53.167 8 -67.5s13.833 -25.5 25.5 -33.5s22.834 -14.667 33.501 -20c9.33301 -4.66699 23.333 -8 42 -10c24 -2.66699 52 -4 84 -4z" />
    <glyph glyph-name="Wcircumflex" unicode="&#x174;" horiz-adv-x="1486" 
d="M270 0l-249 1800h310l112 -1192l154 1192h267l151 -1185l117 1185h311l-252 -1800h-311l-151 1178l-148 -1178h-311zM395 1937l201 406h290l206 -406h-275l-75 202l-73 -202h-274z" />
    <glyph glyph-name="wcircumflex" unicode="&#x175;" horiz-adv-x="1273" 
d="M218 0l-191 1305h281l104 -805l108 805h254l98 -821l114 821h260l-193 -1305h-290l-123 771l-132 -771h-290zM288 1436l201 406h290l206 -406h-275l-75 202l-73 -202h-274z" />
    <glyph glyph-name="Ycircumflex" unicode="&#x176;" horiz-adv-x="1035" 
d="M510 1009l185 791h333l-339 -1205v-595h-352v595l-338 1205h343zM169 1937l201 406h290l206 -406h-275l-75 202l-73 -202h-274z" />
    <glyph glyph-name="ycircumflex" unicode="&#x177;" horiz-adv-x="872" 
d="M228.5 -30.5c27.667 30.333 41.499 84.334 41.499 162.001s-17.667 200 -53 367s-76.333 338.5 -123 514.5s-72 273.333 -76 292h307l121 -728l106 728h309l-285 -1340c-36 -160 -143.333 -250 -322 -270c-36 -4 -77.333 -6 -124 -6h-43v233
c66.667 1.33301 113.834 17.166 141.501 47.499zM90.999 1436l201 406h290l206 -406h-275l-75 202l-73 -202h-274z" />
    <glyph glyph-name="Ydieresis" unicode="&#x178;" horiz-adv-x="1035" 
d="M510 1009l185 791h333l-339 -1205v-595h-352v595l-338 1205h343zM139 1937v308h303v-308h-303zM592 1937v308h304v-308h-304z" />
    <glyph glyph-name="Zacute" unicode="&#x179;" horiz-adv-x="998" 
d="M80 0v228l475 1321h-420v250h776v-229l-477 -1320h477v-250h-831zM393 1937l136 442h345l-277 -442h-204z" />
    <glyph glyph-name="zacute" unicode="&#x17a;" horiz-adv-x="813" 
d="M57 0v228l359 834h-303v243h651v-223l-362 -838h362v-244h-707zM282 1393l136 442h345l-277 -442h-204z" />
    <glyph glyph-name="Zdotaccent" unicode="&#x17b;" horiz-adv-x="998" 
d="M80 0v228l475 1321h-420v250h776v-229l-477 -1320h477v-250h-831zM384 1937v318h323v-318h-323z" />
    <glyph glyph-name="zdotaccent" unicode="&#x17c;" horiz-adv-x="813" 
d="M57 0v228l359 834h-303v243h651v-223l-362 -838h362v-244h-707zM245 1499v318h323v-318h-323z" />
    <glyph glyph-name="Zcaron" unicode="&#x17d;" horiz-adv-x="998" 
d="M80 0v228l475 1321h-420v250h776v-229l-477 -1320h477v-250h-831zM408 1937l-201 406h274l73 -201l75 201h275l-206 -406h-290z" />
    <glyph glyph-name="zcaron" unicode="&#x17e;" horiz-adv-x="813" 
d="M57 0v228l359 834h-303v243h651v-223l-362 -838h362v-244h-707zM309 1385l-201 406h274l73 -201l75 201h275l-206 -406h-290z" />
    <glyph glyph-name="uni01C4" unicode="&#x1c4;" horiz-adv-x="2162" 
d="M1244 0v228l475 1321h-420v250h776v-229l-477 -1320h477v-250h-831zM1572 1937l-201 406h274l73 -201l75 201h275l-206 -406h-290zM485 255c101.333 -0.666992 163.333 7.66797 186 25.001c23.333 17.333 36.666 39.333 39.999 66s5 53.667 5 81v969
c0 59.333 -17.667 98.666 -53 117.999s-94.666 29.333 -177.999 30v-1289zM107 0.00195312v1800h376c120 0 218.833 -10.833 296.5 -32.5s138.667 -57.334 183 -107.001s75 -109.167 92 -178.5s25.5 -157.666 25.5 -264.999v-590c0 -200.667 -24.667 -341.667 -74 -423
c-44 -73.333 -104.667 -124.666 -182 -153.999c-88 -33.333 -203 -50 -345 -50h-372z" />
    <glyph glyph-name="uni01C5" unicode="&#x1c5;" horiz-adv-x="1977" 
d="M1221 0v228l359 834h-303v243h651v-223l-362 -838h362v-244h-707zM1473 1385l-201 406h274l73 -201l75 201h275l-206 -406h-290zM485 255c101.333 -0.666992 163.333 7.66797 186 25.001c23.333 17.333 36.666 39.333 39.999 66s5 53.667 5 81v969
c0 59.333 -17.667 98.666 -53 117.999s-94.666 29.333 -177.999 30v-1289zM107 0.00195312v1800h376c120 0 218.833 -10.833 296.5 -32.5s138.667 -57.334 183 -107.001s75 -109.167 92 -178.5s25.5 -157.666 25.5 -264.999v-590c0 -200.667 -24.667 -341.667 -74 -423
c-44 -73.333 -104.667 -124.666 -182 -153.999c-88 -33.333 -203 -50 -345 -50h-372z" />
    <glyph glyph-name="uni01C6" unicode="&#x1c6;" horiz-adv-x="1812" 
d="M1056 0v228l359 834h-303v243h651v-223l-362 -838h362v-244h-707zM1308 1385l-201 406h274l73 -201l75 201h275l-206 -406h-290zM567 297l-0.000976562 708c-38 50 -69.667 75 -95 75c-37.333 0 -56 -28.667 -56 -86v-675c0 -62.667 18.667 -94 56 -94
c28.667 0 60.334 24 95.001 72zM156.999 1240c52 63.333 118.167 94.999 198.5 94.999s150.833 -39.333 211.5 -118v583h337v-1800h-337v98c-26.667 -39.333 -60 -70.333 -100 -93s-82.333 -34 -127 -34c-74 0 -136 27.833 -186 83.5s-75 120.834 -75 195.501v771
c0 82.667 26 155.667 78 219z" />
    <glyph glyph-name="uni01C7" unicode="&#x1c7;" horiz-adv-x="1529" 
d="M838 -34l-0.000976562 256h12c81.333 0 136 13.333 164 40c29.333 28 44 85.667 44 173v1365h364v-1368c0 -201.333 -38.667 -332 -116 -392c-63.333 -49.333 -159.666 -74 -288.999 -74h-179zM106.999 0v1800h364v-1550h358v-250h-722z" />
    <glyph glyph-name="uni01C8" unicode="&#x1c8;" horiz-adv-x="1410" 
d="M817 -284l0.000976562 244c37.333 -10.667 66.666 -16 87.999 -16c50.667 0 76 37 76 111v1250h335v-1279c0 -104.667 -27.5 -187 -82.5 -247s-134.167 -90 -237.5 -90c-50 0 -109.667 9 -179 27zM981.001 1419v315h335v-315h-335zM107.001 0v1800h364v-1550h358v-250
h-722z" />
    <glyph glyph-name="uni01C9" unicode="&#x1c9;" horiz-adv-x="1101" 
d="M508 -284l0.000976562 244c37.333 -10.667 66.666 -16 87.999 -16c50.667 0 76 37 76 111v1250h335v-1279c0 -104.667 -27.5 -187 -82.5 -247s-134.167 -90 -237.5 -90c-50 0 -109.667 9 -179 27zM672.001 1419v315h335v-315h-335zM96.001 0v1800h337v-1800h-337z" />
    <glyph glyph-name="uni01CA" unicode="&#x1ca;" horiz-adv-x="1864" 
d="M1173 -34l-0.000976562 256h12c81.333 0 136 13.333 164 40c29.333 28 44 85.667 44 173v1365h364v-1368c0 -201.333 -38.667 -332 -116 -392c-63.333 -49.333 -159.666 -74 -288.999 -74h-179zM106.999 0v1801h262l395 -942v942h302v-1801h-252l-394 999v-999h-313z" />
    <glyph glyph-name="uni01CB" unicode="&#x1cb;" horiz-adv-x="1745" 
d="M1152 -284l0.000976562 244c37.333 -10.667 66.666 -16 87.999 -16c50.667 0 76 37 76 111v1250h335v-1279c0 -104.667 -27.5 -187 -82.5 -247s-134.167 -90 -237.5 -90c-50 0 -109.667 9 -179 27zM1316 1419v315h335v-315h-335zM107.001 0v1801h262l395 -942v942h302
v-1801h-252l-394 999v-999h-313z" />
    <glyph glyph-name="uni01CC" unicode="&#x1cc;" horiz-adv-x="1577" 
d="M984 -284l0.000976562 244c37.333 -10.667 66.666 -16 87.999 -16c50.667 0 76 37 76 111v1250h335v-1279c0 -104.667 -27.5 -187 -82.5 -247s-134.167 -90 -237.5 -90c-50 0 -109.667 9 -179 27zM1148 1419v315h335v-315h-335zM94.001 0v1305h337v-92
c32 36.667 70.5 66 115.5 88s91.167 33 138.5 33s89 -14.667 125 -44c72 -57.333 108 -136.666 108 -237.999v-1052h-337v993c0 58 -18.667 87 -56 87c-8.66699 0 -16.167 -1.66699 -22.5 -5l-14.5 -7.5c-3.33301 -1.66699 -7.33301 -4.5 -12 -8.5
c-13.333 -11.333 -22 -19.666 -26 -24.999c-4.66699 -6 -11 -13.333 -19 -22v-1012h-337z" />
    <glyph glyph-name="uni01F1" unicode="&#x1f1;" horiz-adv-x="2162" 
d="M1244 0v228l475 1321h-420v250h776v-229l-477 -1320h477v-250h-831zM485 255c101.333 -0.666992 163.333 7.66797 186 25.001c23.333 17.333 36.666 39.333 39.999 66s5 53.667 5 81v969c0 59.333 -17.667 98.666 -53 117.999s-94.666 29.333 -177.999 30v-1289z
M107 0.00195312v1800h376c120 0 218.833 -10.833 296.5 -32.5s138.667 -57.334 183 -107.001s75 -109.167 92 -178.5s25.5 -157.666 25.5 -264.999v-590c0 -200.667 -24.667 -341.667 -74 -423c-44 -73.333 -104.667 -124.666 -182 -153.999c-88 -33.333 -203 -50 -345 -50
h-372z" />
    <glyph glyph-name="uni01F2" unicode="&#x1f2;" horiz-adv-x="1977" 
d="M1221 0v228l359 834h-303v243h651v-223l-362 -838h362v-244h-707zM485 255c101.333 -0.666992 163.333 7.66797 186 25.001c23.333 17.333 36.666 39.333 39.999 66s5 53.667 5 81v969c0 59.333 -17.667 98.666 -53 117.999s-94.666 29.333 -177.999 30v-1289z
M107 0.00195312v1800h376c120 0 218.833 -10.833 296.5 -32.5s138.667 -57.334 183 -107.001s75 -109.167 92 -178.5s25.5 -157.666 25.5 -264.999v-590c0 -200.667 -24.667 -341.667 -74 -423c-44 -73.333 -104.667 -124.666 -182 -153.999c-88 -33.333 -203 -50 -345 -50
h-372z" />
    <glyph glyph-name="uni01F3" unicode="&#x1f3;" horiz-adv-x="1812" 
d="M1056 0v228l359 834h-303v243h651v-223l-362 -838h362v-244h-707zM567 297l-0.000976562 708c-38 50 -69.667 75 -95 75c-37.333 0 -56 -28.667 -56 -86v-675c0 -62.667 18.667 -94 56 -94c28.667 0 60.334 24 95.001 72zM156.999 1240
c52 63.333 118.167 94.999 198.5 94.999s150.833 -39.333 211.5 -118v583h337v-1800h-337v98c-26.667 -39.333 -60 -70.333 -100 -93s-82.333 -34 -127 -34c-74 0 -136 27.833 -186 83.5s-75 120.834 -75 195.501v771c0 82.667 26 155.667 78 219z" />
    <glyph glyph-name="uni01F4" unicode="&#x1f4;" horiz-adv-x="1238" 
d="M84 563l0.000976562 634c0 425.333 177 638 531 638c216 0 363.667 -79.667 443 -239c48 -96 72 -216.333 72 -361v-106h-348v126c0 109.333 -14 187 -42 233c-26.667 44 -68.334 66 -125.001 66c-111.333 0 -167 -88.667 -167 -266v-777
c0 -176.667 55.5 -265 166.5 -265s166.5 91.667 166.5 275v144h-206v261h570v-926h-250l-46 126c-30.667 -48 -74.334 -86.833 -131.001 -116.5s-116.167 -44.5 -178.5 -44.5s-120 11.833 -173 35.5s-96.667 55 -131 94s-63.166 84.833 -86.499 137.5
c-43.333 98 -65 208.333 -65 331zM513.001 1937l136 442h345l-277 -442h-204z" />
    <glyph glyph-name="uni01F5" unicode="&#x1f5;" horiz-adv-x="965" 
d="M459 378c-12 0 -48.001 5 -108.001 15c-15.333 -30 -23 -48 -23 -54c0 -28.667 41.333 -51 124 -67c36.667 -6.66699 77.167 -13.667 121.5 -21s88.833 -16.833 133.5 -28.5s85.334 -25.834 122.001 -42.501s66.5 -40 89.5 -70s34.5 -68.833 34.5 -116.5
s-8.16699 -92.334 -24.5 -134.001s-38 -75 -65 -100s-60.5 -45.167 -100.5 -60.5c-69.333 -26.667 -156 -40 -260 -40c-320.667 0 -481 78.333 -481 235c0 46 12.667 91.833 38 137.5s58.333 83.167 99 112.5c-78 40 -117 74.667 -117 104c0 38 44.333 113.333 133 226
c-68 124 -102 248.667 -102 374c0 131.333 30.333 243 91 335c30.667 46.667 72.167 83.667 124.5 111s112.833 41 181.5 41c102.667 0 180 -27.667 232 -83c48.667 55.333 130.334 83 245.001 83h42l-28 -241c-66 0 -113.667 -14.667 -143 -44
c28 -50 42 -115.167 42 -195.5s-8.83301 -147.166 -26.5 -200.499s-43 -100.666 -76 -141.999s-75.333 -74 -127 -98s-108.834 -36 -171.501 -36zM461.999 632c54.667 0 82 78.332 82 234.999s-25.667 235 -77 235c-27.333 0 -46.333 -13.333 -57 -40
c-15.333 -36.667 -23.333 -75.167 -24 -115.5s-1 -72.166 -1 -95.499c0 -146 25.667 -219 77 -219zM630.999 -37.001c0 71.333 -91 110 -273 116h-24c-30 -47.333 -45 -89 -45 -125c0 -39.333 74 -59 222 -59c47.333 0 79 6.16699 95 18.5s24.333 28.833 25 49.5z
M402.999 1437l136 442h345l-277 -442h-204z" />
    <glyph glyph-name="uni0200" unicode="&#x200;" horiz-adv-x="1135" 
d="M9 0l389 1800h322l388 -1800h-359l-74 385h-235l-70 -385h-361zM465 609h186l-91 668zM306 1937l-215 442h285l137 -442h-207zM624 1937l-215 442h283l137 -442h-205z" />
    <glyph glyph-name="uni0201" unicode="&#x201;" horiz-adv-x="976" 
d="M620 0l-32.998 135c-19.333 -60.667 -51 -103.167 -95 -127.5s-94.333 -36.5 -151 -36.5s-103 9.33301 -139 28c-36 18 -64 43 -84 75c-40 62 -60 134.333 -60 217c0 131.333 36.667 236 110 314c48 51.333 97.333 90.666 148 117.999
c72.667 38.667 151 75.334 235 110.001v110c0 46 -5.66699 80.333 -17 103s-28.5 34 -51.5 34s-40.333 -3.83301 -52 -11.5s-19.834 -19.167 -24.501 -34.5c-7.33301 -24 -11 -54.333 -11 -91v-74h-327c0 150 37.667 265.167 113 345.5s184.666 120.5 327.999 120.5
c100 0 187.667 -36.333 263 -109s113 -159 113 -259v-620c0 -107.333 14.333 -223 43 -347h-308zM386.002 322c0 -64.667 22.667 -97 68 -97c25.333 0 49 12.333 71 37c6 6.66699 15 17.667 27 33v321c-110.667 -89.333 -166 -187.333 -166 -294zM232.002 1437l-215 442h285
l137 -442h-207zM550.002 1437l-215 442h283l137 -442h-205z" />
    <glyph glyph-name="uni0202" unicode="&#x202;" horiz-adv-x="1135" 
d="M9 0l389 1800h322l388 -1800h-359l-74 385h-235l-70 -385h-361zM465 609h186l-91 668zM487 1937l-172.001 0.00195312c0 73.333 23.667 133 71 179s108 69 182 69s134.667 -23 182 -69s71 -105.667 71 -179h-172c0 43.333 -8.66699 75.333 -26 96s-35.666 31 -54.999 31
c-19.333 -0.666992 -35.333 -8.33398 -48 -23.001c-22 -26.667 -33 -61.334 -33 -104.001z" />
    <glyph glyph-name="uni0203" unicode="&#x203;" horiz-adv-x="976" 
d="M620 0l-32.998 135c-19.333 -60.667 -51 -103.167 -95 -127.5s-94.333 -36.5 -151 -36.5s-103 9.33301 -139 28c-36 18 -64 43 -84 75c-40 62 -60 134.333 -60 217c0 131.333 36.667 236 110 314c48 51.333 97.333 90.666 148 117.999
c72.667 38.667 151 75.334 235 110.001v110c0 46 -5.66699 80.333 -17 103s-28.5 34 -51.5 34s-40.333 -3.83301 -52 -11.5s-19.834 -19.167 -24.501 -34.5c-7.33301 -24 -11 -54.333 -11 -91v-74h-327c0 150 37.667 265.167 113 345.5s184.666 120.5 327.999 120.5
c100 0 187.667 -36.333 263 -109s113 -159 113 -259v-620c0 -107.333 14.333 -223 43 -347h-308zM386.002 322c0 -64.667 22.667 -97 68 -97c25.333 0 49 12.333 71 37c6 6.66699 15 17.667 27 33v321c-110.667 -89.333 -166 -187.333 -166 -294zM412.002 1437
l-172.001 0.00195312c0 73.333 23.667 133 71 179s108 69 182 69s134.667 -23 182 -69s71 -105.667 71 -179h-172c0 43.333 -8.66699 75.333 -26 96s-35.666 31 -54.999 31c-19.333 -0.666992 -35.333 -8.33398 -48 -23.001c-22 -26.667 -33 -61.334 -33 -104.001z" />
    <glyph glyph-name="uni0204" unicode="&#x204;" horiz-adv-x="889" 
d="M107 0v1800h751v-250h-387v-490h274v-256h-274v-554h387v-250h-751zM221 1937l-215 442h285l137 -442h-207zM539 1937l-215 442h283l137 -442h-205z" />
    <glyph glyph-name="uni0205" unicode="&#x205;" horiz-adv-x="940" 
d="M78 339l-0.000976562 554.998c0 138.667 33 246.834 99 324.501s166.833 116.5 302.5 116.5s236.334 -38.667 302.001 -116s98.5 -185.666 98.5 -324.999v-270h-465v-289c0 -73.333 21.333 -110 64 -110c46.667 0 70 39.333 70 118v143h331v-147
c0 -108.667 -39.333 -197.167 -118 -265.5s-173 -102.5 -283 -102.5s-204.333 34.333 -283 103s-118 157 -118 265zM414.999 800.998h131v180c0 66 -21.833 99 -65.5 99s-65.5 -33 -65.5 -99v-180zM217.999 1437l-215 442h285l137 -442h-207zM535.999 1437l-215 442h283
l137 -442h-205z" />
    <glyph glyph-name="uni0206" unicode="&#x206;" horiz-adv-x="889" 
d="M107 0v1800h751v-250h-387v-490h274v-256h-274v-554h387v-250h-751zM401 1937l-172.001 0.00195312c0 73.333 23.667 133 71 179s108 69 182 69s134.667 -23 182 -69s71 -105.667 71 -179h-172c0 43.333 -8.66699 75.333 -26 96s-35.666 31 -54.999 31
c-19.333 -0.666992 -35.333 -8.33398 -48 -23.001c-22 -26.667 -33 -61.334 -33 -104.001z" />
    <glyph glyph-name="uni0207" unicode="&#x207;" horiz-adv-x="940" 
d="M78 339l-0.000976562 554.998c0 138.667 33 246.834 99 324.501s166.833 116.5 302.5 116.5s236.334 -38.667 302.001 -116s98.5 -185.666 98.5 -324.999v-270h-465v-289c0 -73.333 21.333 -110 64 -110c46.667 0 70 39.333 70 118v143h331v-147
c0 -108.667 -39.333 -197.167 -118 -265.5s-173 -102.5 -283 -102.5s-204.333 34.333 -283 103s-118 157 -118 265zM414.999 800.998h131v180c0 66 -21.833 99 -65.5 99s-65.5 -33 -65.5 -99v-180zM397.999 1437l-172.001 0.00195312c0 73.333 23.667 133 71 179
s108 69 182 69s134.667 -23 182 -69s71 -105.667 71 -179h-172c0 43.333 -8.66699 75.333 -26 96s-35.666 31 -54.999 31c-19.333 -0.666992 -35.333 -8.33398 -48 -23.001c-22 -26.667 -33 -61.334 -33 -104.001z" />
    <glyph glyph-name="uni0208" unicode="&#x208;" horiz-adv-x="578" 
d="M107 0v1800h364v-1800h-364zM28 1937l-215 442h285l137 -442h-207zM346 1937l-215 442h283l137 -442h-205z" />
    <glyph glyph-name="uni0209" unicode="&#x209;" horiz-adv-x="532" 
d="M124 0v1305h337v-1305h-337zM31 1436l-215 442h285l137 -442h-207zM349 1436l-215 442h283l137 -442h-205z" />
    <glyph glyph-name="uni020A" unicode="&#x20a;" horiz-adv-x="578" 
d="M107 0v1800h364v-1800h-364zM208 1937l-172.001 0.00195312c0 73.333 23.667 133 71 179s108 69 182 69s134.667 -23 182 -69s71 -105.667 71 -179h-172c0 43.333 -8.66699 75.333 -26 96s-35.666 31 -54.999 31c-19.333 -0.666992 -35.333 -8.33398 -48 -23.001
c-22 -26.667 -33 -61.334 -33 -104.001z" />
    <glyph glyph-name="uni020B" unicode="&#x20b;" horiz-adv-x="529" 
d="M96 0v1305h337v-1305h-337zM96 1419v315h337v-315h-337z" />
    <glyph glyph-name="uni020C" unicode="&#x20c;" horiz-adv-x="1221" 
d="M773 1288c0 177.333 -54.167 266 -162.5 266s-162.5 -88.667 -162.5 -266v-778c0 -176.667 54.167 -265 162.5 -265s162.5 88.333 162.5 265v778zM84 592l0.000976562 605.001c0 425.333 175.5 638 526.5 638s526.5 -212.667 526.5 -638v-596
c0 -324.667 -106.333 -525.667 -319 -603c-60.667 -22 -129.834 -33 -207.501 -33s-146.834 10.833 -207.501 32.5s-110.667 51.167 -150 88.5s-71.666 82.666 -96.999 135.999c-48 100 -72 223.333 -72 370zM349.001 1937l-215 442h285l137 -442h-207zM667.001 1937
l-215 442h283l137 -442h-205z" />
    <glyph glyph-name="uni020D" unicode="&#x20d;" horiz-adv-x="973" 
d="M78 339l0.00195312 555c0 139.333 32.833 247.5 98.5 324.5s168.167 115.5 307.5 115.5s242.666 -38.5 309.999 -115.5s101 -185.167 101 -324.5v-555c0 -108.667 -40.333 -197.167 -121 -265.5s-177.334 -102.5 -290.001 -102.5c-72.667 0 -139.667 14.833 -201 44.5
s-110.833 73 -148.5 130s-56.5 121.5 -56.5 193.5zM561.002 335v645.999c0 66 -25.667 99 -77 99c-46 0 -69 -33 -69 -99v-646c0 -53.333 10 -86.666 30 -99.999c10 -6.66699 23 -10 39 -10c51.333 0 77 36.667 77 110zM225.002 1436l-215 442h285l137 -442h-207z
M543.002 1436l-215 442h283l137 -442h-205z" />
    <glyph glyph-name="uni020E" unicode="&#x20e;" horiz-adv-x="1221" 
d="M773 1288c0 177.333 -54.167 266 -162.5 266s-162.5 -88.667 -162.5 -266v-778c0 -176.667 54.167 -265 162.5 -265s162.5 88.333 162.5 265v778zM84 592l0.000976562 605.001c0 425.333 175.5 638 526.5 638s526.5 -212.667 526.5 -638v-596
c0 -324.667 -106.333 -525.667 -319 -603c-60.667 -22 -129.834 -33 -207.501 -33s-146.834 10.833 -207.501 32.5s-110.667 51.167 -150 88.5s-71.666 82.666 -96.999 135.999c-48 100 -72 223.333 -72 370zM531.001 1932l-172.001 0.000976562c0 73.333 23.667 133 71 179
s108 69 182 69s134.667 -23 182 -69s71 -105.667 71 -179h-172c0 43.333 -8.66699 75.333 -26 96s-35.666 31 -54.999 31c-19.333 -0.666992 -35.333 -8.33398 -48 -23c-22 -26.667 -33 -61.334 -33 -104.001z" />
    <glyph glyph-name="uni020F" unicode="&#x20f;" horiz-adv-x="973" 
d="M78 339l0.00195312 555c0 139.333 32.833 247.5 98.5 324.5s168.167 115.5 307.5 115.5s242.666 -38.5 309.999 -115.5s101 -185.167 101 -324.5v-555c0 -108.667 -40.333 -197.167 -121 -265.5s-177.334 -102.5 -290.001 -102.5c-72.667 0 -139.667 14.833 -201 44.5
s-110.833 73 -148.5 130s-56.5 121.5 -56.5 193.5zM561.002 335v645.999c0 66 -25.667 99 -77 99c-46 0 -69 -33 -69 -99v-646c0 -53.333 10 -86.666 30 -99.999c10 -6.66699 23 -10 39 -10c51.333 0 77 36.667 77 110zM418.002 1450l-172.001 0.00195312
c0 73.333 23.667 133 71 179s108 69 182 69s134.667 -23 182 -69s71 -105.667 71 -179h-172c0 43.333 -8.66699 75.333 -26 96s-35.666 31 -54.999 31c-19.333 -0.666992 -35.333 -8.33398 -48 -23.001c-22 -26.667 -33 -61.334 -33 -104.001z" />
    <glyph glyph-name="uni0210" unicode="&#x210;" horiz-adv-x="1134" 
d="M107 0v1800h396c283.333 0 461.333 -84 534 -252c26.667 -61.333 40 -135.333 40 -222c0 -128 -20.667 -228 -62 -300c-38.667 -67.333 -99.667 -119.333 -183 -156l282 -870h-377l-206 829h-60v-829h-364zM471 1051l104.001 -0.00292969c28 0 52 9.33301 72 28
s34.5 42.334 43.5 71.001s15.333 55 19 79s5.5 46.667 5.5 68s-1.5 43.333 -4.5 66s-8.33301 47.834 -16 75.501s-20.334 50.334 -38.001 68.001s-39.167 26.5 -64.5 26.5h-121v-482zM285.001 1901l-215 442h285l137 -442h-207zM603.001 1901l-215 442h283l137 -442h-205z
" />
    <glyph glyph-name="uni0211" unicode="&#x211;" horiz-adv-x="714" 
d="M569 1040c-93.333 0 -139.999 -54.667 -139.999 -164v-876h-335v1305h335v-106c51.333 83.333 111.333 125 180 125c19.333 0 49.666 -3.33301 90.999 -10v-284c-62 6.66699 -105.667 10 -131 10zM211.001 1406l-215 442h285l137 -442h-207zM529.001 1406l-215 442h283
l137 -442h-205z" />
    <glyph glyph-name="uni0212" unicode="&#x212;" horiz-adv-x="1134" 
d="M107 0v1800h396c283.333 0 461.333 -84 534 -252c26.667 -61.333 40 -135.333 40 -222c0 -128 -20.667 -228 -62 -300c-38.667 -67.333 -99.667 -119.333 -183 -156l282 -870h-377l-206 829h-60v-829h-364zM471 1051l104.001 -0.00292969c28 0 52 9.33301 72 28
s34.5 42.334 43.5 71.001s15.333 55 19 79s5.5 46.667 5.5 68s-1.5 43.333 -4.5 66s-8.33301 47.834 -16 75.501s-20.334 50.334 -38.001 68.001s-39.167 26.5 -64.5 26.5h-121v-482zM423.001 1932l-172.001 0.000976562c0 73.333 23.667 133 71 179s108 69 182 69
s134.667 -23 182 -69s71 -105.667 71 -179h-172c0 43.333 -8.66699 75.333 -26 96s-35.666 31 -54.999 31c-19.333 -0.666992 -35.333 -8.33398 -48 -23c-22 -26.667 -33 -61.334 -33 -104.001z" />
    <glyph glyph-name="uni0213" unicode="&#x213;" horiz-adv-x="714" 
d="M569 1040c-93.333 0 -139.999 -54.667 -139.999 -164v-876h-335v1305h335v-106c51.333 83.333 111.333 125 180 125c19.333 0 49.666 -3.33301 90.999 -10v-284c-62 6.66699 -105.667 10 -131 10zM349.001 1437l-172.001 0.00195312c0 73.333 23.667 133 71 179
s108 69 182 69s134.667 -23 182 -69s71 -105.667 71 -179h-172c0 43.333 -8.66699 75.333 -26 96s-35.666 31 -54.999 31c-19.333 -0.666992 -35.333 -8.33398 -48 -23.001c-22 -26.667 -33 -61.334 -33 -104.001z" />
    <glyph glyph-name="uni0214" unicode="&#x214;" 
d="M99 669l-0.00683594 1131h364v-1120c0 -188.667 5 -295.5 15 -320.5s20.833 -47.167 32.5 -66.5s26.834 -32 45.501 -38s41.334 -9 68.001 -9s49.334 3 68.001 9s33.834 18.5 45.501 37.5s20.834 36.833 27.501 53.5c6.66699 16 11.334 44.667 14.001 86
c4 61.333 6 117.666 6 168.999v1199h364v-1131c0 -190 -20.667 -334.333 -62 -433c-36.667 -88 -89.667 -153.667 -159 -197c-79.333 -49.333 -180.666 -74 -303.999 -74c-232.667 0.666992 -386.667 91 -462 271c-42 100 -63 244.333 -63 433zM408.993 1901l-215 442h285
l137 -442h-207zM726.993 1901l-215 442h283l137 -442h-205z" />
    <glyph glyph-name="uni0215" unicode="&#x215;" horiz-adv-x="1006" 
d="M87 253l0.000976562 1052h337v-970c0 -73.333 15.167 -110 45.5 -110s65.5 24.667 105.5 74v1006h337v-1305h-337v113c-34 -41.333 -73.667 -75.333 -119 -102s-91.333 -40 -138 -40c-68.667 0 -124.334 29.167 -167.001 87.5s-64 123.166 -64 194.499zM276.001 1405
l-215 442h285l137 -442h-207zM594.001 1405l-215 442h283l137 -442h-205z" />
    <glyph glyph-name="uni0216" unicode="&#x216;" 
d="M99 669l-0.00683594 1131h364v-1120c0 -188.667 5 -295.5 15 -320.5s20.833 -47.167 32.5 -66.5s26.834 -32 45.501 -38s41.334 -9 68.001 -9s49.334 3 68.001 9s33.834 18.5 45.501 37.5s20.834 36.833 27.501 53.5c6.66699 16 11.334 44.667 14.001 86
c4 61.333 6 117.666 6 168.999v1199h364v-1131c0 -190 -20.667 -334.333 -62 -433c-36.667 -88 -89.667 -153.667 -159 -197c-79.333 -49.333 -180.666 -74 -303.999 -74c-232.667 0.666992 -386.667 91 -462 271c-42 100 -63 244.333 -63 433zM546.993 1932
l-172.001 0.000976562c0 73.333 23.667 133 71 179s108 69 182 69s134.667 -23 182 -69s71 -105.667 71 -179h-172c0 43.333 -8.66699 75.333 -26 96s-35.666 31 -54.999 31c-19.333 -0.666992 -35.333 -8.33398 -48 -23c-22 -26.667 -33 -61.334 -33 -104.001z" />
    <glyph glyph-name="uni0217" unicode="&#x217;" horiz-adv-x="1006" 
d="M87 253l0.000976562 1052h337v-970c0 -73.333 15.167 -110 45.5 -110s65.5 24.667 105.5 74v1006h337v-1305h-337v113c-34 -41.333 -73.667 -75.333 -119 -102s-91.333 -40 -138 -40c-68.667 0 -124.334 29.167 -167.001 87.5s-64 123.166 -64 194.499zM414.001 1436
l-172.001 0.00195312c0 73.333 23.667 133 71 179s108 69 182 69s134.667 -23 182 -69s71 -105.667 71 -179h-172c0 43.333 -8.66699 75.333 -26 96s-35.666 31 -54.999 31c-19.333 -0.666992 -35.333 -8.33398 -48 -23.001c-22 -26.667 -33 -61.334 -33 -104.001z" />
    <glyph glyph-name="Scommaaccent" unicode="&#x218;" horiz-adv-x="1073" 
d="M636 1278l3.00098 72.998c0 138 -38.333 207 -115 207c-40 0 -70 -15.667 -90 -47s-30 -67 -30 -107s5.83301 -76.333 17.5 -109s29.334 -63.167 53.001 -91.5s45.5 -51.833 65.5 -70.5s46.667 -41.5 80 -68.5l99 -84c32.667 -29 66.667 -63.333 102 -103
s68.666 -84.5 99.999 -134.5c62.667 -100 94 -214.833 94 -344.5s-45 -234.667 -135 -315s-199.333 -120.5 -328 -120.5c-83.333 0 -157.333 15.333 -222 46c-64 30.667 -116 72.334 -156 125.001c-78.667 104.667 -121.667 231.667 -129 381l369 71c0 -128 12 -218 36 -270
c22.667 -49.333 57 -74 103 -74c72 0 108 46 108 138c0 126 -71 251.333 -213 376l-113 96c-114 96 -190.333 180.667 -229 254c-40 76.667 -60 162.334 -60 257.001c0 146 46.333 261.5 139 346.5s215.667 127.5 369 127.5c127.333 0 235.666 -45.333 324.999 -136
s134 -200 134 -328l-1 -13v-30zM449.001 -700.002l-39.9971 166.001h15c17.333 0 29.166 0.166992 35.499 0.5s12.5 3.16602 18.5 8.49902c8 7.33301 12 30 12 68h-110v318h323c0 -26 0.166992 -64.833 0.5 -116.5s0.5 -100.5 0.5 -146.5s-3.33301 -87.667 -10 -125
s-17.334 -69 -32.001 -95c-30 -54.667 -86.333 -82 -169 -82c-10.667 0 -25.334 1.33301 -44.001 4z" />
    <glyph glyph-name="scommaaccent" unicode="&#x219;" horiz-adv-x="874" 
d="M38 315l258.001 92.002c23.333 -70.667 42.333 -115 57 -133c29.333 -37.333 58.666 -56 87.999 -56c42 0 63 24.667 63 74s-28.667 102 -86 158c-30 29.333 -68 63.666 -114 102.999l-55 47c-71.333 62 -127.333 123 -168 183s-61 122.5 -61 187.5
s11.833 120.333 35.5 166s55.5 82.5 95.5 110.5c82.667 58 179.667 87 291 87c97.333 0 183.333 -38 258 -114c68.667 -70 116.667 -153.667 144 -251l-242 -83c-29.333 73.333 -52.666 120 -69.999 140c-34 39.333 -65 59 -93 59s-48.5 -8.33301 -61.5 -25
s-19.5 -37.667 -19.5 -63c0 -44 60.667 -116.667 182 -218l62 -55c114.667 -102.667 186.667 -195.667 216 -279c13.333 -36.667 19.666 -73.334 18.999 -110.001c0 -105.333 -37.167 -192.333 -111.5 -261s-163.333 -103 -267 -103s-192.5 31.667 -266.5 95
s-125.333 146.333 -154 249zM352.001 -691.998l-39.9971 166.001h15c17.333 0 29.166 0.166992 35.499 0.5s12.5 3.16602 18.5 8.49902c8 7.33301 12 30 12 68h-110v318h323c0 -26 0.166992 -64.833 0.5 -116.5s0.5 -100.5 0.5 -146.5s-3.33301 -87.667 -10 -125
s-17.334 -69 -32.001 -95c-30 -54.667 -86.333 -82 -169 -82c-10.667 0 -25.334 1.33301 -44.001 4z" />
    <glyph glyph-name="uni021A" unicode="&#x21a;" horiz-adv-x="921" 
d="M278 0v1528h-264v272h887v-272h-259v-1528h-364zM367 -663l-39.9971 166.001h15c17.333 0 29.166 0.166992 35.499 0.5s12.5 3.16602 18.5 8.49902c8 7.33301 12 30 12 68h-110v318h323c0 -26 0.166992 -64.833 0.5 -116.5s0.5 -100.5 0.5 -146.5
s-3.33301 -87.667 -10 -125s-17.334 -69 -32.001 -95c-30 -54.667 -86.333 -82 -169 -82c-10.667 0 -25.334 1.33301 -44.001 4z" />
    <glyph glyph-name="uni021B" unicode="&#x21b;" horiz-adv-x="668" 
d="M117 448l0.00390625 632h-96v225h96v429h337v-429h162v-225h-162v-713c0 -36 6.66699 -62.833 20 -80.5s38.166 -26.5 74.499 -26.5s67.833 2 94.5 6v-261c-44 -13.333 -100.333 -20 -169 -20s-118.834 4.66699 -150.501 14s-58.334 21.833 -80.001 37.5
s-40.334 35.5 -56.001 59.5s-28.167 48.667 -37.5 74c-8 24.667 -14.667 53.667 -20 87c-8 55.333 -12.333 119 -13 191zM279.004 -678l-39.9971 166.001h15c17.333 0 29.166 0.166992 35.499 0.5s12.5 3.16602 18.5 8.49902c8 7.33301 12 30 12 68h-110v318h323
c0 -26 0.166992 -64.833 0.5 -116.5s0.5 -100.5 0.5 -146.5s-3.33301 -87.667 -10 -125s-17.334 -69 -32.001 -95c-30 -54.667 -86.333 -82 -169 -82c-10.667 0 -25.334 1.33301 -44.001 4z" />
    <glyph glyph-name="uni0237" unicode="&#x237;" horiz-adv-x="641" 
d="M48 -284l0.000976562 244c37.333 -10.667 66.666 -16 87.999 -16c50.667 0 76 37 76 111v1250h335v-1279c0 -104.667 -27.5 -187 -82.5 -247s-134.167 -90 -237.5 -90c-50 0 -109.667 9 -179 27z" />
    <glyph glyph-name="circumflex" unicode="&#x2c6;" horiz-adv-x="894" 
d="M107 1393l201 406h290l206 -406h-275l-75 202l-73 -202h-274z" />
    <glyph glyph-name="caron" unicode="&#x2c7;" horiz-adv-x="859" 
d="M281 1385l-201 406h274l73 -201l75 201h275l-206 -406h-290z" />
    <glyph glyph-name="breve" unicode="&#x2d8;" horiz-adv-x="728" 
d="M95 1686l172.001 -0.000976562c0 -43.333 8.66699 -75.333 26 -96s35.666 -31 54.999 -31c19.333 0.666992 35.333 8.33398 48 23.001c22 26 33 60.667 33 104h172c0 -73.333 -23.667 -133 -71 -179s-108 -69 -182 -69s-134.667 23 -182 69s-71 105.667 -71 179z" />
    <glyph glyph-name="dotaccent" unicode="&#x2d9;" horiz-adv-x="579" 
d="M146 1499v318h323v-318h-323z" />
    <glyph glyph-name="ring" unicode="&#x2da;" horiz-adv-x="757" 
d="M311 1596c13.333 -24.667 33.333 -37.001 60 -37.001s46.5 12.333 59.5 37s19.5 51.334 19.5 80.001s-6.5 55.667 -19.5 81s-32.667 38 -59 38s-46.333 -12.333 -60 -37s-20.5 -51.667 -20.5 -81s6.66699 -56.333 20 -81zM119 1677c0 72.667 23.833 130.667 71.5 174
s108.167 65 181.5 65s133.833 -21.667 181.5 -65s71.5 -101.333 71.5 -174s-23.833 -130.667 -71.5 -174s-108.167 -65 -181.5 -65s-133.833 21.667 -181.5 65s-71.5 101.333 -71.5 174z" />
    <glyph glyph-name="ogonek" unicode="&#x2db;" horiz-adv-x="575" 
d="M468 -358l-21 -159.999c-14 -1.33301 -28.667 -2 -44 -2c-29.333 0 -61.333 2 -96 6c-53.333 5.33301 -93.5 13.333 -120.5 24s-50.833 23.667 -71.5 39c-44.667 33.333 -67 80.666 -67 141.999s14.667 120.833 44 178.5s65 106.5 107 146.5h148
c-4.66699 -13.333 -12.334 -34 -23.001 -62l-25 -66c-16 -43.333 -24 -80.333 -24 -111s2.66699 -53.167 8 -67.5s13.833 -25.5 25.5 -33.5s22.834 -14.667 33.501 -20c9.33301 -4.66699 23.333 -8 42 -10c24 -2.66699 52 -4 84 -4z" />
    <glyph glyph-name="tilde" unicode="&#x2dc;" horiz-adv-x="900" 
d="M288 1430l-166.995 0.000976562c0.666992 112 17.667 191.333 51 238c29.333 40.667 71.166 61 125.499 61s115.666 -9.66699 183.999 -29s109.166 -29 122.499 -29c13.333 -0.666992 22.666 1.66602 27.999 6.99902c6.66699 6 10 19 10 39h155
c0 -198.667 -52 -298 -156 -298c-33.333 0 -84.5 12.167 -153.5 36.5s-113.833 36.5 -134.5 36.5s-34.334 -1.5 -41.001 -4.5s-11.5 -5.83301 -14.5 -8.5s-5.33301 -8 -7 -16s-2.5 -13 -2.5 -15v-18z" />
    <glyph glyph-name="hungarumlaut" unicode="&#x2dd;" horiz-adv-x="984" 
d="M113 1405l137 442h283l-215 -442h-205zM429 1405l137 442h285l-215 -442h-207z" />
    <glyph glyph-name="uni030F" unicode="&#x30f;" horiz-adv-x="984" 
d="M328 1405l-215 442h285l137 -442h-207zM646 1405l-215 442h283l137 -442h-205z" />
    <glyph glyph-name="uni0311" unicode="&#x311;" horiz-adv-x="728" 
d="M267 1438l-172.001 0.00195312c0 73.333 23.667 133 71 179s108 69 182 69s134.667 -23 182 -69s71 -105.667 71 -179h-172c0 43.333 -8.66699 75.333 -26 96s-35.666 31 -54.999 31c-19.333 -0.666992 -35.333 -8.33398 -48 -23.001
c-22 -26.667 -33 -61.334 -33 -104.001z" />
    <glyph glyph-name="uni0326" unicode="&#x326;" horiz-adv-x="506" 
d="M153 -639l-39.9971 166.001h15c17.333 0 29.166 0.166992 35.499 0.5s12.5 3.16602 18.5 8.49902c8 7.33301 12 30 12 68h-110v318h323c0 -26 0.166992 -64.833 0.5 -116.5s0.5 -100.5 0.5 -146.5s-3.33301 -87.667 -10 -125s-17.334 -69 -32.001 -95
c-30 -54.667 -86.333 -82 -169 -82c-10.667 0 -25.334 1.33301 -44.001 4z" />
    <glyph glyph-name="Delta" unicode="&#x394;" horiz-adv-x="1054" 
d="M376 192h303l-152 1067zM79 0l320 1643h258l320 -1643h-898z" />
    <glyph glyph-name="mu" unicode="&#x3bc;" horiz-adv-x="1083" 
d="M134 -179v1484h336v-1003c0 -55.333 15.333 -83 46 -83c13.333 0 28 5.66699 44 17c16 10.667 27.333 20 34 28l28 35v1006h335v-1305h-336v113c-45.333 -55.333 -96 -95 -152 -119v-173h-335z" />
    <glyph glyph-name="Wgrave" unicode="&#x1e80;" horiz-adv-x="1486" 
d="M270 0l-249 1800h310l112 -1192l154 1192h267l151 -1185l117 1185h311l-252 -1800h-311l-151 1178l-148 -1178h-311zM641 1937l-277 442h346l136 -442h-205z" />
    <glyph glyph-name="wgrave" unicode="&#x1e81;" horiz-adv-x="1273" 
d="M218 0l-191 1305h281l104 -805l108 805h254l98 -821l114 821h260l-193 -1305h-290l-123 771l-132 -771h-290zM534 1436l-277 442h346l136 -442h-205z" />
    <glyph glyph-name="Wacute" unicode="&#x1e82;" horiz-adv-x="1486" 
d="M270 0l-249 1800h310l112 -1192l154 1192h267l151 -1185l117 1185h311l-252 -1800h-311l-151 1178l-148 -1178h-311zM641 1937l136 442h345l-277 -442h-204z" />
    <glyph glyph-name="wacute" unicode="&#x1e83;" horiz-adv-x="1273" 
d="M218 0l-191 1305h281l104 -805l108 805h254l98 -821l114 821h260l-193 -1305h-290l-123 771l-132 -771h-290zM535 1436l136 442h345l-277 -442h-204z" />
    <glyph glyph-name="Wdieresis" unicode="&#x1e84;" horiz-adv-x="1486" 
d="M270 0l-249 1800h310l112 -1192l154 1192h267l151 -1185l117 1185h311l-252 -1800h-311l-151 1178l-148 -1178h-311zM364 1937v308h303v-308h-303zM817 1937v308h304v-308h-304z" />
    <glyph glyph-name="wdieresis" unicode="&#x1e85;" horiz-adv-x="1273" 
d="M218 0l-191 1305h281l104 -805l108 805h254l98 -821l114 821h260l-193 -1305h-290l-123 771l-132 -771h-290zM258 1436v308h303v-308h-303zM711 1436v308h304v-308h-304z" />
    <glyph glyph-name="Ygrave" unicode="&#x1ef2;" horiz-adv-x="1035" 
d="M510 1009l185 791h333l-339 -1205v-595h-352v595l-338 1205h343zM415 1937l-277 442h346l136 -442h-205z" />
    <glyph glyph-name="ygrave" unicode="&#x1ef3;" horiz-adv-x="872" 
d="M228.5 -30.5c27.667 30.333 41.499 84.334 41.499 162.001s-17.667 200 -53 367s-76.333 338.5 -123 514.5s-72 273.333 -76 292h307l121 -728l106 728h309l-285 -1340c-36 -160 -143.333 -250 -322 -270c-36 -4 -77.333 -6 -124 -6h-43v233
c66.667 1.33301 113.834 17.166 141.501 47.499zM336.999 1436l-277 442h346l136 -442h-205z" />
    <glyph glyph-name="endash" unicode="&#x2013;" horiz-adv-x="528" 
d="M4 453v223h517v-223h-517z" />
    <glyph glyph-name="emdash" unicode="&#x2014;" horiz-adv-x="827" 
d="M4 453v223h817v-223h-817z" />
    <glyph glyph-name="quoteleft" unicode="&#x2018;" horiz-adv-x="562" 
d="M425 1281h-297c0 18 -0.666992 44.5 -2 79.5s-2.33301 65.167 -3 90.5v23c-0.666992 20 -0.333984 42.667 0.999023 68c1.33301 35.333 4.5 65.5 9.5 90.5s12.833 50.833 23.5 77.5c11.333 26.667 25 48.667 41 66c36.667 38.667 88.334 58 155.001 58l83 -169h-11
c-43.333 0 -75 -8.66699 -95 -26c-21.333 -18.667 -32.333 -39 -33 -61h128v-297z" />
    <glyph glyph-name="quoteright" unicode="&#x2019;" horiz-adv-x="562" 
d="M199 1281l-84.001 169h7c85.333 0 130 29 134 87h-128v297h296c0 -18 0.666992 -44.5 2 -79.5s2.33301 -65.167 3 -90.5v-23c0.666992 -20 0.333984 -42.667 -0.999023 -68c-1.33301 -35.333 -4.5 -65.5 -9.5 -90.5s-12.833 -51.167 -23.5 -78.5
c-11.333 -26.667 -25 -48.667 -41 -66c-37.333 -38.667 -89 -57.667 -155 -57z" />
    <glyph glyph-name="quotesinglbase" unicode="&#x201a;" horiz-adv-x="429" 
d="M127 -321l-70 424h304l-71 -424h-163z" />
    <glyph glyph-name="quotedblleft" unicode="&#x201c;" horiz-adv-x="962" 
d="M428 1281l-297.002 0.00390625c0 18 -0.666992 44.667 -2 80s-2.33301 65.666 -3 90.999v23c0 19.333 0.666992 41.666 2 66.999c1.33301 34.667 4.33301 64.667 9 90s12.334 51.666 23.001 78.999c12 27.333 26 49.333 42 66c37.333 38 89 57 155 57l83 -169h-11
c-44 0 -75.667 -8.33301 -95 -25c-21.333 -18.667 -32.666 -39.334 -33.999 -62.001h128v-297zM812.998 1281l-296.999 0.00292969c0 18 -0.666992 44.667 -2 80s-2.33301 65.666 -3 90.999v23c-0.666992 19.333 -0.333984 41.666 0.999023 66.999
c1.33301 34.667 4.5 64.667 9.5 90s13 51.666 24 78.999s24.5 49.333 40.5 66c37.333 38 89.333 57 156 57l82 -169h-5c-34 0 -64 -6.33301 -90 -19c-27.333 -13.333 -42 -36 -44 -68h128v-297z" />
    <glyph glyph-name="quotedblright" unicode="&#x201d;" horiz-adv-x="962" 
d="M203 1281l-84.001 168.999h11c44 0 76 8.33301 96 25c21.333 18.667 32.333 39.334 33 62.001h-128v297h297c0 -18 0.666992 -44.5 2 -79.5s2.33301 -65.167 3 -90.5v-23c0.666992 -20 0.333984 -42.667 -0.999023 -68c-1.33301 -35.333 -4.5 -65.5 -9.5 -90.5
s-12.833 -51.167 -23.5 -78.5c-11.333 -26.667 -25 -48.667 -41 -66c-37.333 -38.667 -89 -57.667 -155 -57zM586.999 1281l-83.999 168.999h7c85.333 0 130 29 134 87h-128v297h297c0 -18 0.666992 -44.667 2 -80s2.33301 -65.666 3 -90.999v-23
c0 -20 -0.666992 -42.667 -2 -68c-1.33301 -34.667 -4.33301 -64.5 -9 -89.5s-12.334 -51.167 -23.001 -78.5c-12 -27.333 -26 -49.333 -42 -66c-37.333 -38 -89 -57 -155 -57z" />
    <glyph glyph-name="quotedblbase" unicode="&#x201e;" horiz-adv-x="762" 
d="M130 -320l-70 424h304l-71 -424h-163zM454 -320l-71 424h305l-72 -424h-162z" />
    <glyph glyph-name="daggerdbl" unicode="&#x2021;" horiz-adv-x="798" 
d="M271 0v448h-192v256h192v320h-192v256h192v256h256v-256h192v-256h-192v-320h192v-256h-192v-448h-256z" />
    <glyph glyph-name="bullet" unicode="&#x2022;" horiz-adv-x="990" 
d="M494 335c-48 0 -93.998 8.33398 -137.998 25.001c-42.667 16 -82 39.333 -118 70c-77.333 67.333 -116.333 163.333 -117 288c0 62 10.667 118.167 32 168.5s49.666 90.833 84.999 121.5c73.333 64 158.666 96.333 255.999 97c97.333 -0.666992 183.333 -33 258 -97
c36 -30.667 64.5 -71.167 85.5 -121.5s31.5 -106.333 31.5 -168s-10.667 -117.334 -32 -167.001s-49.833 -90 -85.5 -121s-75.5 -54.667 -119.5 -71s-90 -24.5 -138 -24.5z" />
    <glyph glyph-name="guilsinglleft" unicode="&#x2039;" horiz-adv-x="618" 
d="M527 64l-448 512v128l448 512v-320l-256 -255l256 -257v-320z" />
    <glyph glyph-name="guilsinglright" unicode="&#x203a;" horiz-adv-x="600" 
d="M79 64v320l256 257l-256 255v320l448 -512v-128z" />
    <glyph glyph-name="fraction" unicode="&#x2044;" horiz-adv-x="618" 
d="M29 0l257 1801h199l-260 -1801h-196z" />
    <glyph glyph-name="uni2074" unicode="&#x2074;" horiz-adv-x="829" 
d="M71 842v148l351 593h195v-583h130v-158h-130v-259h-222v259h-324zM302 1000h93v184z" />
    <glyph glyph-name="Euro" unicode="&#x20ac;" horiz-adv-x="1040" 
d="M361 1067l0.00390625 -33h199v-197h-199v-127h199v-196h-196v-5l3 -52c0.666992 -12 2.5 -29.167 5.5 -51.5s6.66699 -40 11 -53s10.5 -27.833 18.5 -44.5c8 -16 17.333 -28.667 28 -38c26.667 -22.667 58.667 -34 96 -34c100.667 0 151 111.333 151 334v6h278v-8
c0.666992 -216 -41 -373.333 -125 -472c-30.667 -36 -72.5 -65.5 -125.5 -88.5s-117.5 -34.5 -193.5 -34.5s-143 13.667 -201 41c-58.667 26.667 -104 65.334 -136 116.001c-58 91.333 -90.333 216.666 -97 375.999v8h-70v196h69v127h-69v197h72v7
c6.66699 129.333 23.667 226.166 51 290.499s56.666 112.5 87.999 144.5s72 57.833 122 77.5s108 29.5 174 29.5s124.5 -9.66699 175.5 -29s92.5 -45.333 124.5 -78c32 -32 58.333 -72 79 -120c36.667 -84.667 55.667 -191 57 -319v-6h-282v7c0 136 -27.333 224.667 -82 266
c-18.667 14.667 -40.834 21.834 -66.501 21.501s-47.834 -4.16602 -66.501 -11.499s-33.5 -18.5 -44.5 -33.5s-19.833 -30 -26.5 -45s-11.334 -34.5 -14.001 -58.5c-4 -34.667 -6.33301 -71.334 -7 -110.001z" />
    <glyph glyph-name="trademark" unicode="&#x2122;" horiz-adv-x="2234" 
d="M330 686v678h-163v154h497v-154h-164v-678h-170zM756 686v832h242l104 -453l107 453h242v-832h-160v555l-137 -555h-103l-137 555v-555h-158z" />
    <glyph glyph-name="product" unicode="&#x220f;" horiz-adv-x="1246" 
d="M143 0v1792h960v-1792h-256v1600h-448v-1600h-256z" />
    <glyph glyph-name="minus" unicode="&#x2212;" horiz-adv-x="895" 
d="M137 531v223h610v-223h-610z" />
    <glyph glyph-name="integral" unicode="&#x222b;" horiz-adv-x="734" 
d="M655 1526l-85.998 10c-64.667 0 -99.667 -36.667 -105 -110c-1.33301 -13.333 -1.66602 -30 -0.999023 -50v-1248c0 -118 -5.5 -190.667 -16.5 -218s-23.5 -52.166 -37.5 -74.499s-31 -38.833 -51 -49.5c-51.333 -28 -105.333 -42 -162 -42s-117 4 -181 12v190
c41.333 -6.66699 70.666 -10 87.999 -10s32.666 3 45.999 9s23.666 13.667 30.999 23c8 9.33301 14 21.333 18 36c6.66699 22 9.66699 52.667 9 92v1248c0 118 5.5 190.667 16.5 218s23.5 52.166 37.5 74.499s31 38.833 51 49.5c51.333 28 105.333 42 162 42s117 -4 181 -12
v-190z" />
    <glyph glyph-name=".null" horiz-adv-x="0" 
 />
    <glyph glyph-name="nonmarkingreturn" horiz-adv-x="682" 
 />
    <glyph glyph-name="foundryicon" horiz-adv-x="1620" 
d="M346 277l168 542l-459 338l572 11l178 542l188 -542h572l-461 -349l170 -542l-469 327z" />
    <glyph glyph-name="tt" horiz-adv-x="1263" 
d="M117 448l0.00585938 632h-96v225h96v429h336v-429h266v429h336v-429h163v-225h-163v-713c0 -36 6.83301 -62.833 20.5 -80.5s38.667 -26.5 75 -26.5s67.833 2 94.5 6v-261c-44 -13.333 -100.333 -20 -169 -20s-118.834 4.66699 -150.501 14s-58.334 21.833 -80.001 37.5
s-40.334 35.5 -56.001 59.5s-28.167 48.667 -37.5 74c-8 24.667 -14.667 53.667 -20 87c-8 55.333 -12.333 119 -13 191v632h-266v-713c0 -36 6.83301 -62.833 20.5 -80.5s38.667 -26.5 75 -26.5s67.833 2 94.5 6v-261c-44 -13.333 -100.333 -20 -169 -20
s-118.834 4.66699 -150.501 14s-58.334 21.833 -80.001 37.5s-40.334 35.5 -56.001 59.5s-28.167 48.667 -37.5 74c-8 24.667 -14.667 53.667 -20 87c-8 55.333 -12.333 119 -13 191z" />
    <glyph glyph-name="Dz" horiz-adv-x="1977" 
d="M1298 255c101.333 -0.666992 163.333 7.66797 186 25.001c23.333 17.333 36.666 39.333 39.999 66s5 53.667 5 81v969c0 59.333 -17.667 98.666 -53 117.999s-94.666 29.333 -177.999 30v-1289zM920 0.00195312v1800h376c120 0 218.833 -10.833 296.5 -32.5
s138.667 -57.334 183 -107.001s75 -109.167 92 -178.5s25.5 -157.666 25.5 -264.999v-590c0 -200.667 -24.667 -341.667 -74 -423c-44 -73.333 -104.667 -124.666 -182 -153.999c-88 -33.333 -203 -50 -345 -50h-372zM57 0.000976562v228l359 834h-303v243h651v-223
l-362 -838h362v-244h-707z" />
    <glyph glyph-name="Scommaaccent" horiz-adv-x="1073" 
d="M636 1278l3.00098 72.998c0 138 -38.333 207 -115 207c-40 0 -70 -15.667 -90 -47s-30 -67 -30 -107s5.83301 -76.333 17.5 -109s29.334 -63.167 53.001 -91.5s45.5 -51.833 65.5 -70.5s46.667 -41.5 80 -68.5l99 -84c32.667 -29 66.667 -63.333 102 -103
s68.666 -84.5 99.999 -134.5c62.667 -100 94 -214.833 94 -344.5s-45 -234.667 -135 -315s-199.333 -120.5 -328 -120.5c-83.333 0 -157.333 15.333 -222 46c-64 30.667 -116 72.334 -156 125.001c-78.667 104.667 -121.667 231.667 -129 381l369 71c0 -128 12 -218 36 -270
c22.667 -49.333 57 -74 103 -74c72 0 108 46 108 138c0 126 -71 251.333 -213 376l-113 96c-114 96 -190.333 180.667 -229 254c-40 76.667 -60 162.334 -60 257.001c0 146 46.333 261.5 139 346.5s215.667 127.5 369 127.5c127.333 0 235.666 -45.333 324.999 -136
s134 -200 134 -328l-1 -13v-30zM425.001 -639.002l-39.9971 166.001h15c17.333 0 29.166 0.166992 35.499 0.5s12.5 3.16602 18.5 8.49902c8 7.33301 12 30 12 68h-110v318h323c0 -26 0.166992 -64.833 0.5 -116.5s0.5 -100.5 0.5 -146.5s-3.33301 -87.667 -10 -125
s-17.334 -69 -32.001 -95c-30 -54.667 -86.333 -82 -169 -82c-10.667 0 -25.334 1.33301 -44.001 4z" />
    <glyph glyph-name="Tcommaaccent" horiz-adv-x="921" 
d="M278 0v1528h-264v272h887v-272h-259v-1528h-364zM358 -639l-39.999 166.001h15c17.333 0 29.166 0.166992 35.499 0.5s12.5 3.16602 18.5 8.49902c8 7.33301 12 30 12 68h-110v318h323c2 -45.333 3 -88 3 -128c0 -122.667 -8.66699 -216.667 -26 -282
c-26 -100 -103 -150.333 -231 -151z" />
    <glyph glyph-name="commaaccent" horiz-adv-x="506" 
d="M153 -639l-39.999 166.001h15c17.333 0 29.166 0.166992 35.499 0.5s12.5 3.16602 18.5 8.49902c8 7.33301 12 30 12 68h-110v318h323c2 -45.333 3 -88 3 -128c0 -122.667 -8.66699 -216.667 -26 -282c-26 -100 -103 -150.333 -231 -151z" />
    <glyph glyph-name="scommaaccent" horiz-adv-x="874" 
d="M38 315l258.001 92.002c23.333 -70.667 42.333 -115 57 -133c29.333 -37.333 58.666 -56 87.999 -56c42 0 63 24.667 63 74s-28.667 102 -86 158c-30 29.333 -68 63.666 -114 102.999l-55 47c-71.333 62 -127.333 123 -168 183s-61 122.5 -61 187.5
s11.833 120.333 35.5 166s55.5 82.5 95.5 110.5c82.667 58 179.667 87 291 87c97.333 0 183.333 -38 258 -114c68.667 -70 116.667 -153.667 144 -251l-242 -83c-29.333 73.333 -52.666 120 -69.999 140c-34 39.333 -65 59 -93 59s-48.5 -8.33301 -61.5 -25
s-19.5 -37.667 -19.5 -63c0 -44 60.667 -116.667 182 -218l62 -55c114.667 -102.667 186.667 -195.667 216 -279c13.333 -36.667 19.666 -73.334 18.999 -110.001c0 -105.333 -37.167 -192.333 -111.5 -261s-163.333 -103 -267 -103s-192.5 31.667 -266.5 95
s-125.333 146.333 -154 249zM377.001 -641.998l-39.9971 166.001h15c17.333 0 29.166 0.166992 35.499 0.5s12.5 3.16602 18.5 8.49902c8 7.33301 12 30 12 68h-110v318h323c0 -26 0.166992 -64.833 0.5 -116.5s0.5 -100.5 0.5 -146.5s-3.33301 -87.667 -10 -125
s-17.334 -69 -32.001 -95c-30 -54.667 -86.333 -82 -169 -82c-10.667 0 -25.334 1.33301 -44.001 4z" />
    <glyph glyph-name="tcommaaccent" horiz-adv-x="668" 
d="M117 448l0.00390625 632h-96v225h96v429h337v-429h162v-225h-162v-713c0 -36 6.66699 -62.833 20 -80.5s38.166 -26.5 74.499 -26.5s67.833 2 94.5 6v-261c-44 -13.333 -100.333 -20 -169 -20s-118.834 4.66699 -150.501 14s-58.334 21.833 -80.001 37.5
s-40.334 35.5 -56.001 59.5s-28.167 48.667 -37.5 74c-8 24.667 -14.667 53.667 -20 87c-8 55.333 -12.333 119 -13 191zM344.004 -639l-39.999 166.001h15c17.333 0 29.166 0.166992 35.499 0.5s12.5 3.16602 18.5 8.49902c8 7.33301 12 30 12 68h-110v318h323
c2 -45.333 3 -88 3 -128c0 -122.667 -8.66699 -216.667 -26 -282c-26 -100 -103 -150.333 -231 -151z" />
    <glyph glyph-name=".ttfautohint" horiz-adv-x="668" 
d="M0 0z" />
    </font>
</defs>
</svg>
